<svg version="1.1" id="Layer_1" xmlns="http://www.w3.org/2000/svg" xmlns:xlink="http://www.w3.org/1999/xlink" x="0px" y="0px"
	 width="100%" viewBox="0 0 564 544" enable-background="new 0 0 564 544" xml:space="preserve">
<path fill="#040404" opacity="1.000000" stroke="none" 
	d="
M258.000000,1.000000 
	C264.354401,1.000000 270.708801,1.000000 277.636719,1.352314 
	C284.585419,5.130899 291.276031,4.214110 298.405182,3.189637 
	C300.819641,3.354769 302.806976,3.470342 304.953857,3.893639 
	C305.977753,4.681100 306.791412,5.415053 307.714722,5.599112 
	C313.488312,6.750092 319.272308,7.863860 325.080933,8.819296 
	C329.494507,9.545264 333.949707,10.018154 338.655518,10.573079 
	C339.276703,10.612099 339.628723,10.681689 340.128082,11.090436 
	C344.186005,12.939400 348.090485,14.465263 352.008453,15.955605 
	C359.753876,18.901844 367.602203,21.602625 375.229187,24.827763 
	C382.602661,27.945717 389.751282,31.595434 397.324829,35.142094 
	C399.115814,35.835846 400.580719,36.399078 402.354675,37.025352 
	C403.004303,37.326408 403.344849,37.564426 403.674622,38.151627 
	C404.592987,38.826752 405.522095,39.152695 406.798004,39.560253 
	C415.474518,45.374340 423.804260,51.106812 432.093567,57.187668 
	C433.035614,58.622738 433.882538,59.883450 435.020935,60.769913 
	C451.268951,73.421921 465.682465,87.891045 478.366608,104.110764 
	C479.287994,105.288986 480.870819,105.949951 482.073669,106.925095 
	C482.001221,106.998779 482.150574,106.855843 482.088135,107.220718 
	C486.518097,114.430908 491.152252,121.188065 495.475708,128.138474 
	C507.291046,147.132980 517.182861,167.018448 523.418335,188.620865 
	C524.465393,192.248245 526.624695,195.554581 528.344238,199.273285 
	C528.419556,199.901886 528.420715,200.266464 528.214844,201.037567 
	C529.896729,211.597870 531.754578,221.757675 533.730164,231.894577 
	C533.896667,232.749222 534.851013,233.450363 535.535645,234.445038 
	C535.631836,234.667252 535.983032,235.000763 535.861511,235.258713 
	C535.837646,235.679718 535.935303,235.842789 535.874634,236.234070 
	C535.669006,236.641342 535.621765,236.820435 535.333801,237.336578 
	C535.165588,243.287552 535.009338,248.918427 535.423401,254.507050 
	C535.589172,256.745117 537.010376,258.890198 537.891113,261.540222 
	C537.900940,268.309296 537.879822,274.615753 537.533203,281.081848 
	C536.654602,289.147491 536.101379,297.053558 535.600586,305.326355 
	C535.713196,305.932587 535.773438,306.172089 535.876953,306.410522 
	C535.920227,306.409424 535.866943,306.339508 535.746887,306.696594 
	C535.564026,307.296844 535.501282,307.540009 535.132568,307.946472 
	C534.351990,308.976074 533.627625,309.792603 533.443298,310.716858 
	C532.290955,316.495972 531.174927,322.285217 530.214905,328.098877 
	C529.487305,332.504822 529.009583,336.952087 528.443054,341.651367 
	C528.400574,342.275879 528.335693,342.629974 527.933228,343.133606 
	C526.891479,344.379028 525.957275,345.390442 525.519104,346.583984 
	C521.367615,357.891632 517.762085,369.424103 513.103455,380.515533 
	C505.711731,398.114197 496.200836,414.582214 484.637421,429.837982 
	C480.618805,435.139832 476.970062,440.722015 473.060974,446.427460 
	C472.626404,447.087158 472.283295,447.495575 471.595917,447.919586 
	C470.369263,449.192017 469.486877,450.448853 468.336609,451.876770 
	C466.662415,453.631226 465.256073,455.214600 463.530640,456.794617 
	C462.646606,457.601990 462.081696,458.412750 461.425476,459.282867 
	C461.334198,459.342224 461.216431,459.525360 460.899902,459.495056 
	C460.015259,460.270477 459.447205,461.076202 458.939575,461.940979 
	C459.000000,462.000000 458.882172,461.878876 458.564087,461.845673 
	C457.670105,462.615967 457.094238,463.419495 456.426758,464.282043 
	C456.335144,464.341034 456.216614,464.523895 455.900879,464.490906 
	C454.989502,465.255157 454.393860,466.052338 453.497986,466.959106 
	C451.699677,468.581085 450.201630,470.093475 448.359436,471.560852 
	C446.982300,472.651520 445.949280,473.787140 444.960022,474.957214 
	C445.003815,474.991669 444.923126,474.913025 444.617828,474.939758 
	C443.798279,475.560211 443.284027,476.153900 442.858704,476.875793 
	C442.947632,477.003998 442.753693,476.758545 442.404236,476.762543 
	C432.916473,483.596741 424.184174,491.073334 414.555023,497.122253 
	C394.702637,509.593292 373.903198,520.278259 351.249420,526.954468 
	C347.731537,527.991211 344.456879,529.853333 340.699890,531.338745 
	C339.609772,531.490967 338.889496,531.638367 337.859497,531.594116 
	C336.823792,531.448975 336.097778,531.495422 335.029755,531.367310 
	C333.778198,531.777039 332.868622,532.361389 331.832214,533.128967 
	C331.705353,533.312134 331.903046,533.711426 331.513275,533.704102 
	C330.102020,533.861694 329.080566,534.026672 327.750916,534.009644 
	C326.965881,533.826599 326.488983,533.825684 325.761536,533.597168 
	C323.652191,534.200562 321.793396,535.031555 319.582825,535.975647 
	C318.496246,536.118103 317.761444,536.147522 316.794373,535.887146 
	C312.640991,536.533508 308.719879,537.469666 304.423157,538.498535 
	C303.033569,538.734314 302.019531,538.877319 300.655090,538.840698 
	C299.518646,538.633118 298.732605,538.605225 297.609863,538.349609 
	C292.983521,538.160767 288.665741,537.921692 284.415833,538.352234 
	C282.187439,538.577942 280.077881,539.977417 277.452576,540.878662 
	C270.689178,540.891418 264.387848,540.872192 257.938293,540.518799 
	C251.205978,539.652710 244.621841,539.120667 237.646515,538.604370 
	C236.501602,538.754211 235.747864,538.888245 234.633301,538.885742 
	C233.253357,538.639465 232.234268,538.529663 231.056366,538.111450 
	C230.030365,537.322205 229.213837,536.586304 228.287674,536.402344 
	C222.481827,535.249084 216.662231,534.155945 210.825989,533.167969 
	C206.204849,532.385742 201.553421,531.782471 196.546478,531.052673 
	C185.516464,527.118469 174.485413,524.010071 164.281158,519.161621 
	C148.990036,511.896088 134.024689,503.843597 119.414902,495.282654 
	C110.213860,489.891052 101.914963,482.959869 93.034363,476.530609 
	C92.412010,476.079742 91.966682,475.817596 91.534790,475.200745 
	C81.778534,465.156586 72.008827,455.467133 62.116596,445.872803 
	C61.994072,445.967957 62.231133,445.766113 62.222221,445.416901 
	C61.307724,443.881683 60.430725,442.672546 59.492359,441.513062 
	C38.308990,415.338989 22.065933,386.491760 12.033224,354.241638 
	C10.881598,350.539734 9.028541,347.056000 7.539177,343.227905 
	C7.578063,342.648346 7.497132,342.332916 7.531581,341.732544 
	C6.033838,334.977295 4.339371,328.527893 2.688901,321.754150 
	C2.651647,321.003937 2.570395,320.578064 2.681584,319.754822 
	C2.249349,316.238281 1.624675,313.119141 1.000000,310.000000 
	C1.000000,284.312439 1.000000,258.624878 1.081844,232.098206 
	C1.605986,228.125610 2.048283,224.992142 2.588881,221.542923 
	C2.674060,220.788834 2.660938,220.350464 2.914732,219.663849 
	C4.567019,212.927704 5.952389,206.439819 7.429130,199.724625 
	C7.606713,199.172272 7.600888,198.848846 7.798435,198.339050 
	C8.613330,197.306442 9.303573,196.522095 9.626009,195.608017 
	C13.019302,185.988312 15.547224,175.965897 19.888020,166.800049 
	C26.925697,151.939606 34.670143,137.358948 43.025951,123.196945 
	C48.613037,113.727570 55.776505,105.188286 62.114754,96.129585 
	C61.994953,96.026390 62.241707,96.222412 62.562675,96.128624 
	C72.996796,85.770294 83.109940,75.505760 93.126587,65.117790 
	C93.030090,64.994354 93.234222,65.233551 93.583267,65.223709 
	C97.365601,62.197563 100.798882,59.181271 104.433731,56.139015 
	C104.635284,56.113060 104.923622,55.826607 105.242867,55.886425 
	C106.449226,55.344364 107.336334,54.742485 108.582176,54.170975 
	C114.258987,50.706821 119.500450,47.088543 124.908974,43.740089 
	C144.016464,31.910496 163.931030,21.834057 185.664230,15.616434 
	C189.282166,14.581382 192.572388,12.400763 196.273407,10.666034 
	C196.894318,10.588588 197.255859,10.594618 198.026794,10.805672 
	C208.607635,9.126451 218.785034,7.272880 228.939529,5.301251 
	C229.775330,5.138970 230.455383,4.174697 231.584686,3.494944 
	C232.993149,3.371791 234.024704,3.336757 235.351715,3.588711 
	C241.353195,3.819715 247.073410,3.972047 252.757004,3.585853 
	C254.554932,3.463685 256.255096,1.902583 258.000000,1.000000 
M402.613068,77.864883 
	C395.488586,73.389267 388.511963,68.654419 381.210266,64.489479 
	C363.479065,54.375484 344.537689,47.031479 324.752869,42.277237 
	C313.340729,39.534924 301.525787,38.461433 289.886566,36.673016 
	C266.486603,33.077496 243.294418,35.806244 220.388000,40.181049 
	C203.693192,43.369526 187.546906,48.847248 171.933014,55.938721 
	C151.150406,65.377708 132.030960,77.286987 114.808273,92.175880 
	C93.573441,110.533257 75.996689,131.850113 62.256233,156.479126 
	C52.122520,174.643265 44.426243,193.694901 39.393246,213.726746 
	C36.535728,225.099930 35.376411,236.922638 33.795677,248.589432 
	C29.308084,281.710602 34.322922,313.946564 44.380379,345.390656 
	C51.237255,366.828308 61.658138,386.675751 74.595078,405.250946 
	C100.446960,442.369751 134.218338,469.773499 175.509415,487.726532 
	C197.453018,497.267456 220.544235,502.673676 244.516159,505.302826 
	C282.929871,509.515808 319.756073,503.692017 355.355164,489.880798 
	C380.936401,479.956177 404.001648,465.406403 424.504517,447.008240 
	C460.474670,414.730560 484.671234,375.127380 496.526886,328.383972 
	C500.302246,313.498871 502.141144,297.959534 503.265839,282.602356 
	C505.087158,257.733093 501.627960,233.307755 495.153931,209.143951 
	C489.808380,189.192123 481.917938,170.479385 471.642914,152.713928 
	C454.365936,122.842133 431.371735,98.140442 402.613068,77.864883 
z"/>
<path fill="#F6F6F6" opacity="1.000000" stroke="none" 
	d="
M528.421875,200.631042 
	C528.420715,200.266464 528.419556,199.901886 528.535583,198.991318 
	C527.723145,195.111404 526.952515,191.723297 525.838013,188.452377 
	C518.603027,167.219559 509.667938,146.747452 497.457245,127.871338 
	C492.757324,120.605927 487.275940,113.846046 482.150574,106.855835 
	C482.150574,106.855843 482.001221,106.998779 482.050323,106.575691 
	C476.266174,99.161613 470.993347,91.588112 464.471130,85.313202 
	C454.131256,75.365410 442.955902,66.286049 432.134003,56.839272 
	C423.804260,51.106812 415.474518,45.374340 406.697693,39.260735 
	C405.395569,38.520554 404.540466,38.161503 403.685394,37.802448 
	C403.344849,37.564426 403.004303,37.326408 402.264893,36.696945 
	C400.245392,35.533096 398.624817,34.760693 396.846619,33.695934 
	C396.337280,33.060612 396.046021,32.581871 395.625092,32.394417 
	C383.033783,26.787003 370.533936,20.953295 357.779938,15.741881 
	C352.113251,13.426419 345.929688,12.375943 339.980743,10.751280 
	C339.628723,10.681689 339.276703,10.612099 338.437317,10.303110 
	C332.069489,8.529687 326.242065,6.730029 320.292450,5.542620 
	C315.199097,4.526103 309.965729,4.211154 304.794281,3.585914 
	C302.806976,3.470342 300.819641,3.354769 298.412109,2.862106 
	C297.327942,1.990011 296.663971,1.495005 296.000000,1.000000 
	C373.020905,1.000000 450.041779,1.000000 527.592529,1.346408 
	C529.654236,2.578131 531.289795,3.325745 532.692322,4.382631 
	C534.562073,5.791676 536.250671,7.441202 538.011108,9.457457 
	C538.003418,53.532146 538.001282,97.136810 538.000122,140.741470 
	C537.999329,170.366028 538.035095,199.990707 537.913696,229.614777 
	C537.906311,231.412704 536.655334,233.205551 535.983032,235.000763 
	C535.983032,235.000763 535.631836,234.667252 535.722778,234.028687 
	C535.638184,231.002304 535.462646,228.614487 535.620972,226.089294 
	C535.329712,224.633530 534.704590,223.315155 533.945923,221.584625 
	C532.015503,214.325333 530.218689,207.478195 528.421875,200.631042 
z"/>
<path fill="#F6F6F6" opacity="1.000000" stroke="none" 
	d="
M104.923622,55.826607 
	C104.923622,55.826607 104.635284,56.113060 104.070435,56.030388 
	C100.081795,59.042992 96.658012,62.138271 93.234222,65.233551 
	C93.234222,65.233551 93.030090,64.994354 92.769142,65.034859 
	C80.653191,72.937973 71.368996,83.446289 62.473339,94.343010 
	C62.135567,94.756767 62.307365,95.586510 62.241707,96.222412 
	C62.241707,96.222412 61.994953,96.026390 61.764973,96.090561 
	C61.002651,96.508698 60.363579,96.767990 59.953457,97.230362 
	C47.352173,111.437347 36.714298,127.082924 28.220673,143.976822 
	C21.258471,157.824661 15.545816,172.316971 9.669443,186.683197 
	C8.182522,190.318329 8.184966,194.562683 7.503026,198.527084 
	C7.600888,198.848846 7.606713,199.172272 7.083346,199.877960 
	C5.804599,202.634659 5.122181,205.084351 4.068366,207.362228 
	C3.298947,209.025375 2.040471,210.462250 1.000000,212.000000 
	C1.000000,141.735245 1.000000,71.470474 1.000000,1.000000 
	C80.020775,1.000000 159.041733,1.000000 238.328552,1.310424 
	C237.415024,2.181139 236.235657,2.741429 235.056274,3.301722 
	C234.024704,3.336757 232.993149,3.371791 231.169907,3.310304 
	C224.167114,4.224091 217.900925,4.982732 211.762497,6.325376 
	C206.965271,7.374664 202.326553,9.148667 197.617401,10.600649 
	C197.255859,10.594618 196.894318,10.588588 195.990173,10.478514 
	C163.747147,19.335182 134.498932,33.317165 107.701492,53.024689 
	C106.536530,53.940727 105.730072,54.883667 104.923622,55.826607 
z"/>
<path fill="#F7F7F7" opacity="1.000000" stroke="none" 
	d="
M91.521347,475.555481 
	C91.966682,475.817596 92.412010,476.079742 92.997131,476.889557 
	C97.051300,480.845215 100.661720,484.706116 104.937515,487.575500 
	C117.340385,495.898865 129.611649,504.555939 142.695862,511.684814 
	C154.093262,517.894592 166.417053,522.482788 178.549179,527.231384 
	C184.389038,529.517151 190.730469,530.521484 197.110184,532.388916 
	C204.909988,534.136047 212.444366,535.600220 220.071289,537.451233 
	C221.350449,537.971741 222.537079,538.105469 224.132584,538.240234 
	C226.766037,538.300781 228.990601,538.360352 231.215164,538.419861 
	C232.234268,538.529663 233.253357,538.639465 234.502808,539.264893 
	C232.737442,540.186951 230.742096,540.946594 228.745926,540.948792 
	C158.505524,541.026123 88.265022,541.032166 17.593136,541.026794 
	C11.774491,539.670227 6.387247,538.335083 1.000001,537.000000 
	C1.000000,468.645782 1.000000,400.291534 1.398130,331.412109 
	C2.589309,332.512177 3.372480,334.142395 4.177893,335.761536 
	C5.220960,337.858398 6.281720,339.946472 7.334863,342.038361 
	C7.497132,342.332916 7.578063,342.648346 7.355937,343.640381 
	C8.187203,348.394806 8.922462,352.609070 10.362359,356.566956 
	C12.985360,363.776917 15.734398,370.970306 18.960726,377.924774 
	C23.931452,388.639404 28.818758,399.454071 34.730083,409.653320 
	C40.335392,419.324585 47.038017,428.385468 53.623959,437.448944 
	C55.933781,440.627686 59.330635,443.016571 62.231125,445.766113 
	C62.231133,445.766113 61.994072,445.967957 62.021511,446.236176 
	C62.402721,447.410767 62.519073,448.550690 63.146168,449.188232 
	C71.514275,457.696228 79.928619,466.159485 88.422607,474.541534 
	C89.114906,475.224701 90.472763,475.233368 91.521347,475.555481 
z"/>
<path fill="#E8E8E8" opacity="1.000000" stroke="none" 
	d="
M538.017090,8.987432 
	C536.250671,7.441202 534.562073,5.791676 532.692322,4.382631 
	C531.289795,3.325745 529.654236,2.578131 528.061218,1.346408 
	C530.370544,1.000000 532.741150,1.000000 535.611328,1.337862 
	C537.478516,2.820810 538.847168,3.964705 540.213623,5.111196 
	C543.598694,7.951380 547.341858,10.465307 550.292725,13.701556 
	C556.527344,20.539028 560.022034,28.944675 562.814392,37.671238 
	C563.204102,38.889248 564.255066,39.895657 565.000000,41.000000 
	C565.000000,198.687561 565.000000,356.375122 564.646667,514.599304 
	C561.710571,520.729187 559.385132,526.461182 556.465881,531.872925 
	C554.001465,536.441528 550.848328,540.638550 548.000000,545.000000 
	C545.299988,545.000000 542.599976,545.000000 539.489014,544.654602 
	C542.032410,541.244019 545.289551,538.414001 547.886292,535.070984 
	C556.846008,523.536438 559.881775,509.875946 559.897888,495.766663 
	C560.064026,349.994873 560.059631,204.222717 559.835327,58.451080 
	C559.823303,50.630070 557.547913,42.788548 556.027832,35.014927 
	C555.738220,33.534138 554.041870,32.328468 552.846558,30.663582 
	C552.103699,28.613123 551.603882,26.854765 550.897278,25.183840 
	C548.111755,18.596989 545.092163,12.172352 538.017090,8.987432 
z"/>
<path fill="#D1D1D1" opacity="1.000000" stroke="none" 
	d="
M18.024536,541.048279 
	C88.265022,541.032166 158.505524,541.026123 228.745926,540.948792 
	C230.742096,540.946594 232.737442,540.186951 234.863647,539.401367 
	C235.747864,538.888245 236.501602,538.754211 237.901260,538.887390 
	C245.060272,539.720764 251.573380,540.286804 258.086487,540.852905 
	C264.387848,540.872192 270.689178,540.891418 277.915344,540.985840 
	C285.208954,540.233154 291.577759,539.405273 297.946594,538.577393 
	C298.732605,538.605225 299.518646,538.633118 300.784485,539.220398 
	C303.261078,540.186829 305.257507,540.947754 307.254639,540.949646 
	C372.377563,541.012329 437.500580,541.039490 502.623444,540.956787 
	C511.075592,540.946045 519.526917,540.313538 528.204590,540.167480 
	C527.286987,541.910706 526.143494,543.455322 525.000000,545.000000 
	C356.979095,545.000000 188.958206,545.000000 20.417841,544.675476 
	C19.273756,543.250061 18.649145,542.149170 18.024536,541.048279 
z"/>
<path fill="#E1E1E1" opacity="1.000000" stroke="none" 
	d="
M525.464661,545.000000 
	C526.143494,543.455322 527.286987,541.910706 528.432556,539.907837 
	C531.624146,537.634338 534.813782,535.819031 538.299561,533.852539 
	C546.532715,527.704956 550.653015,519.388550 553.378540,509.912628 
	C554.161011,509.167755 554.872803,508.533691 554.932739,507.843048 
	C555.676880,499.266754 556.900818,490.683014 556.912415,482.099731 
	C557.048828,380.944214 557.094910,279.788300 556.954346,178.632782 
	C556.896301,136.844070 556.394592,95.055305 555.874023,53.269321 
	C555.835388,50.170837 554.009705,47.094624 553.009521,43.544376 
	C553.000977,39.052422 552.997803,35.024139 552.994568,30.995861 
	C554.041870,32.328468 555.738220,33.534138 556.027832,35.014927 
	C557.547913,42.788548 559.823303,50.630070 559.835327,58.451080 
	C560.059631,204.222717 560.064026,349.994873 559.897888,495.766663 
	C559.881775,509.875946 556.846008,523.536438 547.886292,535.070984 
	C545.289551,538.414001 542.032410,541.244019 539.039001,544.654602 
	C534.643127,545.000000 530.286194,545.000000 525.464661,545.000000 
z"/>
<path fill="#F0F0F0" opacity="1.000000" stroke="none" 
	d="
M565.000000,40.531467 
	C564.255066,39.895657 563.204102,38.889248 562.814392,37.671238 
	C560.022034,28.944675 556.527344,20.539028 550.292725,13.701556 
	C547.341858,10.465307 543.598694,7.951380 540.213623,5.111196 
	C538.847168,3.964705 537.478516,2.820810 536.055420,1.337862 
	C540.024536,1.000000 544.049072,1.000000 548.574951,1.343795 
	C553.761902,7.598355 558.429993,13.523295 563.170105,19.389980 
	C563.510437,19.811199 564.377686,19.806616 565.000000,19.999996 
	C565.000000,26.687645 565.000000,33.375290 565.000000,40.531467 
z"/>
<path fill="#F1F1F1" opacity="1.000000" stroke="none" 
	d="
M548.470459,545.000000 
	C550.848328,540.638550 554.001465,536.441528 556.465881,531.872925 
	C559.385132,526.461182 561.710571,520.729187 564.646667,515.067993 
	C565.000000,524.905151 565.000000,534.810364 565.000000,545.000000 
	C559.650330,545.000000 554.295593,545.000000 548.470459,545.000000 
z"/>
<path fill="#F7F7F7" opacity="1.000000" stroke="none" 
	d="
M565.000000,19.530621 
	C564.377686,19.806616 563.510437,19.811199 563.170105,19.389980 
	C558.429993,13.523295 553.761902,7.598355 549.038208,1.343795 
	C554.265503,1.000000 559.531006,1.000000 565.000000,1.000000 
	C565.000000,7.019346 565.000000,13.040298 565.000000,19.530621 
z"/>
<path fill="#DCDCDC" opacity="1.000000" stroke="none" 
	d="
M17.593136,541.026794 
	C18.649145,542.149170 19.273756,543.250061 19.949184,544.675476 
	C13.783654,545.000000 7.567308,545.000000 1.000000,545.000000 
	C1.000000,542.674866 1.000000,540.332214 1.000001,537.494751 
	C6.387247,538.335083 11.774491,539.670227 17.593136,541.026794 
z"/>
<path fill="#575757" opacity="1.000000" stroke="none" 
	d="
M235.351715,3.588709 
	C236.235657,2.741429 237.415024,2.181139 238.797211,1.310424 
	C245.021149,1.000000 251.042297,1.000000 257.531738,1.000000 
	C256.255096,1.902583 254.554932,3.463685 252.757004,3.585853 
	C247.073410,3.972047 241.353195,3.819715 235.351715,3.588709 
z"/>
<path fill="#B3B3B3" opacity="1.000000" stroke="none" 
	d="
M7.531587,341.732544 
	C6.281720,339.946472 5.220960,337.858398 4.177893,335.761536 
	C3.372480,334.142395 2.589309,332.512177 1.398130,330.943451 
	C1.000000,329.933319 1.000000,328.866669 1.314711,327.243774 
	C1.967917,325.151184 2.306411,323.614838 2.644904,322.078491 
	C4.339371,328.527893 6.033838,334.977295 7.531587,341.732544 
z"/>
<path fill="#B3B3B3" opacity="1.000000" stroke="none" 
	d="
M1.000000,212.375000 
	C2.040471,210.462250 3.298947,209.025375 4.068366,207.362228 
	C5.122181,205.084351 5.804599,202.634659 6.991976,200.105255 
	C5.952389,206.439819 4.567019,212.927704 2.668819,219.418732 
	C1.770661,217.947922 1.385332,216.473953 1.000001,215.000000 
	C1.000000,214.250000 1.000000,213.500000 1.000000,212.375000 
z"/>
<path fill="#575757" opacity="1.000000" stroke="none" 
	d="
M295.532043,1.000000 
	C296.663971,1.495005 297.327942,1.990011 297.984985,2.812548 
	C291.276031,4.214110 284.585419,5.130899 278.105103,1.352314 
	C283.688049,1.000000 289.376068,1.000000 295.532043,1.000000 
z"/>
<path fill="#B3B3B3" opacity="1.000000" stroke="none" 
	d="
M1.000000,310.454102 
	C1.624675,313.119141 2.249349,316.238281 2.427023,319.776733 
	C1.653349,320.130707 1.326675,320.065369 1.000000,320.000000 
	C1.000000,316.969391 1.000000,313.938812 1.000000,310.454102 
z"/>
<path fill="#B3B3B3" opacity="1.000000" stroke="none" 
	d="
M2.490581,221.858673 
	C2.048283,224.992142 1.605986,228.125610 1.081844,231.629547 
	C1.000000,228.969406 1.000000,225.938812 1.254925,222.457855 
	C1.836761,221.957886 2.163671,221.908279 2.490581,221.858673 
z"/>
<path fill="#F6F6F6" opacity="1.000000" stroke="none" 
	d="
M2.588882,221.542938 
	C2.163671,221.908279 1.836761,221.957886 1.254925,222.003754 
	C1.000000,219.958328 1.000000,217.916672 1.000001,215.437500 
	C1.385332,216.473953 1.770661,217.947922 2.401903,219.666992 
	C2.660938,220.350464 2.674060,220.788834 2.588882,221.542938 
z"/>
<path fill="#F7F7F7" opacity="1.000000" stroke="none" 
	d="
M1.000000,320.437500 
	C1.326675,320.065369 1.653349,320.130707 2.234584,320.174133 
	C2.570395,320.578064 2.651647,321.003937 2.688902,321.754150 
	C2.306411,323.614838 1.967917,325.151184 1.314711,326.843750 
	C1.000000,324.958344 1.000000,322.916656 1.000000,320.437500 
z"/>
<path fill="#F5F5F5" opacity="1.000000" stroke="none" 
	d="
M402.942261,78.011169 
	C431.371735,98.140442 454.365936,122.842133 471.642914,152.713928 
	C481.917938,170.479385 489.808380,189.192123 495.153931,209.143951 
	C501.627960,233.307755 505.087158,257.733093 503.265839,282.602356 
	C502.141144,297.959534 500.302246,313.498871 496.526886,328.383972 
	C484.671234,375.127380 460.474670,414.730560 424.504517,447.008240 
	C404.001648,465.406403 380.936401,479.956177 355.355164,489.880798 
	C319.756073,503.692017 282.929871,509.515808 244.516159,505.302826 
	C220.544235,502.673676 197.453018,497.267456 175.509415,487.726532 
	C134.218338,469.773499 100.446960,442.369751 74.595078,405.250946 
	C61.658138,386.675751 51.237255,366.828308 44.380379,345.390656 
	C34.322922,313.946564 29.308084,281.710602 33.795677,248.589432 
	C35.376411,236.922638 36.535728,225.099930 39.393246,213.726746 
	C44.426243,193.694901 52.122520,174.643265 62.256233,156.479126 
	C75.996689,131.850113 93.573441,110.533257 114.808273,92.175880 
	C132.030960,77.286987 151.150406,65.377708 171.933014,55.938721 
	C187.546906,48.847248 203.693192,43.369526 220.388000,40.181049 
	C243.294418,35.806244 266.486603,33.077496 289.886566,36.673016 
	C301.525787,38.461433 313.340729,39.534924 324.752869,42.277237 
	C344.537689,47.031479 363.479065,54.375484 381.210266,64.489479 
	C388.511963,68.654419 395.488586,73.389267 402.942261,78.011169 
M242.873764,315.754791 
	C242.807556,323.752350 242.873978,331.754150 242.618851,339.745667 
	C242.492401,343.706482 243.508865,345.302216 247.938278,345.213135 
	C262.930695,344.911591 277.932953,345.120758 292.931305,345.084106 
	C300.280060,345.066162 300.110199,346.779572 300.738281,337.657318 
	C301.339020,328.931946 302.004242,319.996552 304.408569,311.663452 
	C307.498077,300.955811 316.239655,293.903442 324.289093,286.675964 
	C337.615204,274.710693 351.205170,263.020416 364.154572,250.659607 
	C377.983215,237.459534 388.754456,222.407486 392.528381,202.854446 
	C395.897217,185.400177 393.423920,168.905701 385.681061,153.523560 
	C370.336609,123.039841 344.666962,105.097908 311.962524,97.302231 
	C295.260956,93.321121 278.122314,92.543327 260.873962,93.708519 
	C246.657806,94.668884 232.789352,97.143326 219.648361,102.409668 
	C198.866440,110.738159 181.913895,124.263680 169.430740,142.943832 
	C160.656937,156.073212 155.258224,170.553711 153.852585,186.418427 
	C153.578674,189.510010 154.441727,190.906723 157.715378,191.321381 
	C173.877380,193.368591 190.024628,195.543091 206.150711,197.856522 
	C211.075104,198.562973 213.067596,196.291428 214.017883,191.892380 
	C214.781372,188.358109 215.700470,184.789871 217.107651,181.473068 
	C227.073425,157.983398 244.002594,143.799332 270.215668,142.274689 
	C284.014099,141.472107 297.442169,142.713196 309.552185,150.177368 
	C334.501343,165.555115 340.096161,197.860626 317.333893,217.942642 
	C304.033295,229.677094 290.627136,241.293213 277.185455,252.866150 
	C258.098602,269.299408 245.472092,289.255035 242.873764,315.754791 
M249.703506,431.792297 
	C264.859528,431.792999 280.015533,431.796631 295.171570,431.792969 
	C301.616638,431.791412 301.720001,431.703766 301.725800,425.465393 
	C301.740448,409.643188 301.585693,393.818542 301.841187,378.000397 
	C301.907440,373.900330 300.515228,372.837433 296.714569,372.866974 
	C280.060608,372.996490 263.405060,372.915375 246.750107,372.937012 
	C245.612915,372.938477 244.476028,373.156281 242.668488,373.342621 
	C242.668488,375.079895 242.668457,376.691711 242.668472,378.303558 
	C242.668686,394.125793 242.833618,409.950745 242.569824,425.768585 
	C242.489624,430.577484 243.911606,432.647186 249.703506,431.792297 
z"/>
<path fill="#F6F6F6" opacity="1.000000" stroke="none" 
	d="
M538.003357,534.003723 
	C534.813782,535.819031 531.624146,537.634338 528.206604,539.709290 
	C519.526917,540.313538 511.075592,540.946045 502.623444,540.956787 
	C437.500580,541.039490 372.377563,541.012329 307.254639,540.949646 
	C305.257507,540.947754 303.261078,540.186829 301.134918,539.400024 
	C302.019531,538.877319 303.033569,538.734314 304.818848,538.681152 
	C307.814911,538.585266 310.039673,538.399475 312.628357,538.441406 
	C314.000214,538.129639 315.008179,537.590088 316.228882,536.940308 
	C316.827545,536.783386 317.022552,536.565674 317.026642,536.176941 
	C317.761444,536.147522 318.496246,536.118103 319.935669,536.156372 
	C321.429718,536.168884 322.219116,536.113708 323.226746,536.315674 
	C324.983002,535.779114 326.521027,534.985352 328.059082,534.191650 
	C329.080566,534.026672 330.102020,533.861694 331.681458,534.008301 
	C334.215973,533.475220 336.192596,532.630432 338.169189,531.785767 
	C338.889496,531.638367 339.609772,531.490967 340.961548,531.585632 
	C343.616943,531.280090 345.720551,530.930725 347.652100,530.153625 
	C363.296570,523.859619 379.439514,518.517273 394.375458,510.833832 
	C408.214264,503.714722 420.846710,494.206329 433.798492,485.437073 
	C437.188263,483.141968 439.790039,479.683014 442.753693,476.758545 
	C442.753693,476.758545 442.947632,477.003998 443.212067,476.955139 
	C443.958679,476.241821 444.440887,475.577423 444.923096,474.913025 
	C444.923126,474.913025 445.003815,474.991669 445.337708,475.019226 
	C446.682251,473.899811 447.692902,472.752808 448.703583,471.605835 
	C450.201630,470.093475 451.699677,468.581085 453.879791,467.055450 
	C455.113434,466.202759 455.665009,465.363312 456.216614,464.523895 
	C456.216614,464.523895 456.335144,464.341034 456.762970,464.464050 
	C457.754608,463.684357 458.318390,462.781616 458.882202,461.878906 
	C458.882172,461.878876 459.000000,462.000000 459.317627,462.032715 
	C460.162323,461.218750 460.689362,460.372040 461.216431,459.525360 
	C461.216431,459.525360 461.334198,459.342224 461.767151,459.463074 
	C462.750000,458.655273 463.299896,457.726624 463.849731,456.797974 
	C465.256073,455.214600 466.662415,453.631226 468.708984,451.946289 
	C470.212891,450.531189 471.076538,449.217590 471.940186,447.903992 
	C472.283295,447.495575 472.626404,447.087158 473.388885,446.348907 
	C479.345642,439.012054 485.193115,432.225433 490.360809,424.955627 
	C504.406006,405.197266 515.015198,383.598206 523.326172,360.881989 
	C525.445740,355.088440 526.647400,348.959106 528.270874,342.984039 
	C528.335693,342.629974 528.400574,342.275879 528.716309,341.441772 
	C530.634888,334.307281 532.302673,327.652802 534.318359,320.938293 
	C536.134399,319.329468 538.037476,317.833221 535.256348,315.329346 
	C535.299561,312.517151 535.369019,310.150177 535.438477,307.783173 
	C535.501282,307.540009 535.564026,307.296844 535.825562,306.806946 
	C536.024292,306.560242 536.291687,306.589325 536.668701,306.861084 
	C537.363770,309.380585 537.958435,311.628143 537.959961,313.876129 
	C538.009644,387.251984 538.002258,460.627838 538.003357,534.003723 
z"/>
<path fill="#EFEFEF" opacity="1.000000" stroke="none" 
	d="
M538.299561,533.852539 
	C538.002258,460.627838 538.009644,387.251984 537.959961,313.876129 
	C537.958435,311.628143 537.363770,309.380585 536.594116,306.824554 
	C536.142639,306.516296 535.833740,306.411621 535.833740,306.411621 
	C535.773438,306.172089 535.713196,305.932587 535.862976,305.050354 
	C536.668152,296.579132 537.263428,288.750671 537.858704,280.922211 
	C537.879822,274.615753 537.900940,268.309296 538.001099,261.077942 
	C537.682495,252.655792 537.284851,245.158569 536.835205,237.342896 
	C536.533142,236.684937 536.283081,236.345413 536.033020,236.005890 
	C535.935303,235.842789 535.837646,235.679718 535.861511,235.258713 
	C536.655334,233.205551 537.906311,231.412704 537.913696,229.614777 
	C538.035095,199.990707 537.999329,170.366028 538.000122,140.741470 
	C538.001282,97.136810 538.003418,53.532146 538.011108,9.457457 
	C545.092163,12.172352 548.111755,18.596989 550.897278,25.183840 
	C551.603882,26.854765 552.103699,28.613123 552.846558,30.663582 
	C552.997803,35.024139 553.000977,39.052422 553.005371,44.012054 
	C553.005981,199.961319 553.005432,354.979248 553.004883,509.997162 
	C550.653015,519.388550 546.532715,527.704956 538.299561,533.852539 
z"/>
<path fill="#B3B3B3" opacity="1.000000" stroke="none" 
	d="
M62.222214,445.416931 
	C59.330635,443.016571 55.933781,440.627686 53.623959,437.448944 
	C47.038017,428.385468 40.335392,419.324585 34.730083,409.653320 
	C28.818758,399.454071 23.931452,388.639404 18.960726,377.924774 
	C15.734398,370.970306 12.985360,363.776917 10.362359,356.566956 
	C8.922462,352.609070 8.187203,348.394806 7.317468,343.883636 
	C9.028541,347.056000 10.881598,350.539734 12.033224,354.241638 
	C22.065933,386.491760 38.308990,415.338989 59.492359,441.513062 
	C60.430725,442.672546 61.307724,443.881683 62.222214,445.416931 
z"/>
<path fill="#ACACAC" opacity="1.000000" stroke="none" 
	d="
M196.844757,532.106079 
	C190.730469,530.521484 184.389038,529.517151 178.549179,527.231384 
	C166.417053,522.482788 154.093262,517.894592 142.695862,511.684814 
	C129.611649,504.555939 117.340385,495.898865 104.937515,487.575500 
	C100.661720,484.706116 97.051300,480.845215 93.174149,477.078278 
	C101.914963,482.959869 110.213860,489.891052 119.414902,495.282654 
	C134.024689,503.843597 148.990036,511.896088 164.281158,519.161621 
	C174.485413,524.010071 185.516464,527.118469 196.552887,531.305908 
	C196.900436,531.772827 196.872604,531.939453 196.844757,532.106079 
z"/>
<path fill="#B3B3B3" opacity="1.000000" stroke="none" 
	d="
M7.798435,198.339050 
	C8.184966,194.562683 8.182522,190.318329 9.669443,186.683197 
	C15.545816,172.316971 21.258471,157.824661 28.220673,143.976822 
	C36.714298,127.082924 47.352173,111.437347 59.953457,97.230362 
	C60.363579,96.767990 61.002651,96.508698 61.884773,96.193756 
	C55.776505,105.188286 48.613037,113.727570 43.025951,123.196945 
	C34.670143,137.358948 26.925697,151.939606 19.888020,166.800049 
	C15.547224,175.965897 13.019302,185.988312 9.626009,195.608017 
	C9.303573,196.522095 8.613330,197.306442 7.798435,198.339050 
z"/>
<path fill="#5D5D5D" opacity="1.000000" stroke="none" 
	d="
M527.933228,343.133606 
	C526.647400,348.959106 525.445740,355.088440 523.326172,360.881989 
	C515.015198,383.598206 504.406006,405.197266 490.360809,424.955627 
	C485.193115,432.225433 479.345642,439.012054 473.480316,446.097626 
	C476.970062,440.722015 480.618805,435.139832 484.637421,429.837982 
	C496.200836,414.582214 505.711731,398.114197 513.103455,380.515533 
	C517.762085,369.424103 521.367615,357.891632 525.519104,346.583984 
	C525.957275,345.390442 526.891479,344.379028 527.933228,343.133606 
z"/>
<path fill="#B1B1B1" opacity="1.000000" stroke="none" 
	d="
M442.404236,476.762543 
	C439.790039,479.683014 437.188263,483.141968 433.798492,485.437073 
	C420.846710,494.206329 408.214264,503.714722 394.375458,510.833832 
	C379.439514,518.517273 363.296570,523.859619 347.652100,530.153625 
	C345.720551,530.930725 343.616943,531.280090 341.331421,531.580688 
	C344.456879,529.853333 347.731537,527.991211 351.249420,526.954468 
	C373.903198,520.278259 394.702637,509.593292 414.555023,497.122253 
	C424.184174,491.073334 432.916473,483.596741 442.404236,476.762543 
z"/>
<path fill="#5E5E5E" opacity="1.000000" stroke="none" 
	d="
M482.088135,107.220718 
	C487.275940,113.846046 492.757324,120.605927 497.457245,127.871338 
	C509.667938,146.747452 518.603027,167.219559 525.838013,188.452377 
	C526.952515,191.723297 527.723145,195.111404 528.461426,198.727295 
	C526.624695,195.554581 524.465393,192.248245 523.418335,188.620865 
	C517.182861,167.018448 507.291046,147.132980 495.475708,128.138474 
	C491.152252,121.188065 486.518097,114.430908 482.088135,107.220718 
z"/>
<path fill="#575757" opacity="1.000000" stroke="none" 
	d="
M108.060005,53.051594 
	C134.498932,33.317165 163.747147,19.335182 195.730804,10.561991 
	C192.572388,12.400763 189.282166,14.581382 185.664230,15.616434 
	C163.931030,21.834057 144.016464,31.910496 124.908974,43.740089 
	C119.500450,47.088543 114.258987,50.706821 108.527786,53.900658 
	C108.096443,53.417179 108.078224,53.234386 108.060005,53.051594 
z"/>
<path fill="#5E5E5E" opacity="1.000000" stroke="none" 
	d="
M432.093567,57.187660 
	C442.955902,66.286049 454.131256,75.365410 464.471130,85.313202 
	C470.993347,91.588112 476.266174,99.161613 482.122803,106.501999 
	C480.870819,105.949951 479.287994,105.288986 478.366608,104.110764 
	C465.682465,87.891045 451.268951,73.421921 435.020935,60.769913 
	C433.882538,59.883450 433.035614,58.622738 432.093567,57.187660 
z"/>
<path fill="#575757" opacity="1.000000" stroke="none" 
	d="
M340.128082,11.090435 
	C345.929688,12.375943 352.113251,13.426419 357.779938,15.741881 
	C370.533936,20.953295 383.033783,26.787003 395.625092,32.394417 
	C396.046021,32.581871 396.337280,33.060612 396.842102,33.951740 
	C396.996368,34.670464 396.997528,34.841026 396.998688,35.011581 
	C389.751282,31.595434 382.602661,27.945717 375.229187,24.827763 
	C367.602203,21.602625 359.753876,18.901844 352.008453,15.955605 
	C348.090485,14.465263 344.186005,12.939400 340.128082,11.090435 
z"/>
<path fill="#B3B3B3" opacity="1.000000" stroke="none" 
	d="
M91.534790,475.200745 
	C90.472763,475.233368 89.114906,475.224701 88.422607,474.541534 
	C79.928619,466.159485 71.514275,457.696228 63.146168,449.188232 
	C62.519073,448.550690 62.402721,447.410767 62.144035,446.141052 
	C72.008827,455.467133 81.778534,465.156586 91.534790,475.200745 
z"/>
<path fill="#B3B3B3" opacity="1.000000" stroke="none" 
	d="
M62.562675,96.128624 
	C62.307365,95.586510 62.135567,94.756767 62.473339,94.343010 
	C71.368996,83.446289 80.653191,72.937973 92.865639,65.158295 
	C83.109940,75.505760 72.996796,85.770294 62.562675,96.128624 
z"/>
<path fill="#5E5E5E" opacity="1.000000" stroke="none" 
	d="
M528.214844,201.037567 
	C530.218689,207.478195 532.015503,214.325333 533.873657,221.911591 
	C534.385742,223.842682 534.836426,225.034683 535.287109,226.226669 
	C535.462646,228.614487 535.638184,231.002304 535.626587,233.806473 
	C534.851013,233.450363 533.896667,232.749222 533.730164,231.894577 
	C531.754578,221.757675 529.896729,211.597870 528.214844,201.037567 
z"/>
<path fill="#5D5D5D" opacity="1.000000" stroke="none" 
	d="
M535.132568,307.946472 
	C535.369019,310.150177 535.299561,312.517151 534.983154,315.539764 
	C534.481018,317.796387 534.225769,319.397369 533.970459,320.998352 
	C532.302673,327.652802 530.634888,334.307281 528.693848,341.171326 
	C529.009583,336.952087 529.487305,332.504822 530.214905,328.098877 
	C531.174927,322.285217 532.290955,316.495972 533.443298,310.716858 
	C533.627625,309.792603 534.351990,308.976074 535.132568,307.946472 
z"/>
<path fill="#575757" opacity="1.000000" stroke="none" 
	d="
M198.026794,10.805672 
	C202.326553,9.148667 206.965271,7.374664 211.762497,6.325376 
	C217.900925,4.982732 224.167114,4.224091 230.793030,3.398424 
	C230.455383,4.174697 229.775330,5.138970 228.939529,5.301251 
	C218.785034,7.272880 208.607635,9.126451 198.026794,10.805672 
z"/>
<path fill="#575757" opacity="1.000000" stroke="none" 
	d="
M304.953857,3.893638 
	C309.965729,4.211154 315.199097,4.526103 320.292450,5.542620 
	C326.242065,6.730029 332.069489,8.529687 338.168152,10.333679 
	C333.949707,10.018154 329.494507,9.545264 325.080933,8.819296 
	C319.272308,7.863860 313.488312,6.750092 307.714722,5.599112 
	C306.791412,5.415053 305.977753,4.681100 304.953857,3.893638 
z"/>
<path fill="#575757" opacity="1.000000" stroke="none" 
	d="
M197.110184,532.388916 
	C196.872604,531.939453 196.900436,531.772827 196.921844,531.353027 
	C201.553421,531.782471 206.204849,532.385742 210.825989,533.167969 
	C216.662231,534.155945 222.481827,535.249084 228.287674,536.402344 
	C229.213837,536.586304 230.030365,537.322205 231.056366,538.111450 
	C228.990601,538.360352 226.766037,538.300781 223.958771,537.937988 
	C222.243637,537.444702 221.111191,537.254578 219.978745,537.064453 
	C212.444366,535.600220 204.909988,534.136047 197.110184,532.388916 
z"/>
<path fill="#5E5E5E" opacity="1.000000" stroke="none" 
	d="
M536.887207,237.661346 
	C537.284851,245.158569 537.682495,252.655792 537.970154,260.615295 
	C537.010376,258.890198 535.589172,256.745117 535.423401,254.507050 
	C535.009338,248.918427 535.165588,243.287552 535.659302,237.507309 
	C536.446106,237.447784 536.666687,237.554565 536.887207,237.661346 
z"/>
<path fill="#5D5D5D" opacity="1.000000" stroke="none" 
	d="
M537.533203,281.081848 
	C537.263428,288.750671 536.668152,296.579132 535.810547,304.683594 
	C536.101379,297.053558 536.654602,289.147491 537.533203,281.081848 
z"/>
<path fill="#545454" opacity="1.000000" stroke="none" 
	d="
M297.609863,538.349609 
	C291.577759,539.405273 285.208954,540.233154 278.377380,540.953918 
	C280.077881,539.977417 282.187439,538.577942 284.415833,538.352234 
	C288.665741,537.921692 292.983521,538.160767 297.609863,538.349609 
z"/>
<path fill="#575757" opacity="1.000000" stroke="none" 
	d="
M257.938293,540.518799 
	C251.573380,540.286804 245.060272,539.720764 238.292419,538.871643 
	C244.621841,539.120667 251.205978,539.652710 257.938293,540.518799 
z"/>
<path fill="#B3B3B3" opacity="1.000000" stroke="none" 
	d="
M93.583267,65.223709 
	C96.658012,62.138271 100.081795,59.042992 103.868874,56.056343 
	C100.798882,59.181271 97.365601,62.197563 93.583267,65.223709 
z"/>
<path fill="#545454" opacity="1.000000" stroke="none" 
	d="
M316.794373,535.887146 
	C317.022552,536.565674 316.827545,536.783386 315.878784,536.848511 
	C314.298798,537.315857 313.281616,537.764709 312.264465,538.213623 
	C310.039673,538.399475 307.814911,538.585266 305.194427,538.588440 
	C308.719879,537.469666 312.640991,536.533508 316.794373,535.887146 
z"/>
<path fill="#BDBDBD" opacity="1.000000" stroke="none" 
	d="
M337.859497,531.594116 
	C336.192596,532.630432 334.215973,533.475220 332.071228,534.015686 
	C331.903046,533.711426 331.705353,533.312134 332.159485,533.206909 
	C333.532959,532.581726 334.452332,532.061829 335.371735,531.541931 
	C336.097778,531.495422 336.823792,531.448975 337.859497,531.594116 
z"/>
<path fill="#545454" opacity="1.000000" stroke="none" 
	d="
M323.008514,536.058594 
	C322.219116,536.113708 321.429718,536.168884 320.287476,536.043335 
	C321.793396,535.031555 323.652191,534.200562 325.584900,533.869080 
	C324.775421,534.931946 323.891968,535.495300 323.008514,536.058594 
z"/>
<path fill="#BDBDBD" opacity="1.000000" stroke="none" 
	d="
M323.226746,536.315735 
	C323.891968,535.495300 324.775421,534.931946 325.835480,534.096680 
	C326.488983,533.825684 326.965881,533.826599 327.750916,534.009583 
	C326.521027,534.985352 324.983002,535.779114 323.226746,536.315735 
z"/>
<path fill="#5E5E5E" opacity="1.000000" stroke="none" 
	d="
M397.324829,35.142097 
	C396.997528,34.841026 396.996368,34.670464 396.999695,34.244095 
	C398.624817,34.760693 400.245392,35.533096 401.955811,36.633904 
	C400.580719,36.399078 399.115814,35.835846 397.324829,35.142097 
z"/>
<path fill="#B1B1B1" opacity="1.000000" stroke="none" 
	d="
M448.359436,471.560852 
	C447.692902,472.752808 446.682251,473.899811 445.293884,474.984741 
	C445.949280,473.787140 446.982300,472.651520 448.359436,471.560852 
z"/>
<path fill="#B1B1B1" opacity="1.000000" stroke="none" 
	d="
M471.595917,447.919586 
	C471.076538,449.217590 470.212891,450.531189 468.976868,451.775238 
	C469.486877,450.448853 470.369263,449.192017 471.595917,447.919586 
z"/>
<path fill="#B3B3B3" opacity="1.000000" stroke="none" 
	d="
M107.701492,53.024689 
	C108.078224,53.234386 108.096443,53.417179 108.169052,53.870289 
	C107.336334,54.742485 106.449226,55.344364 105.242867,55.886425 
	C105.730072,54.883667 106.536530,53.940727 107.701492,53.024689 
z"/>
<path fill="#545454" opacity="1.000000" stroke="none" 
	d="
M335.029755,531.367310 
	C334.452332,532.061829 333.532959,532.581726 332.286316,533.023743 
	C332.868622,532.361389 333.778198,531.777039 335.029755,531.367310 
z"/>
<path fill="#5E5E5E" opacity="1.000000" stroke="none" 
	d="
M403.674622,38.151630 
	C404.540466,38.161503 405.395569,38.520554 406.350952,39.179119 
	C405.522095,39.152695 404.592987,38.826752 403.674622,38.151630 
z"/>
<path fill="#B1B1B1" opacity="1.000000" stroke="none" 
	d="
M455.900879,464.490906 
	C455.665009,465.363312 455.113434,466.202759 454.180054,466.945862 
	C454.393860,466.052338 454.989502,465.255157 455.900879,464.490906 
z"/>
<path fill="#B1B1B1" opacity="1.000000" stroke="none" 
	d="
M458.564087,461.845703 
	C458.318390,462.781616 457.754608,463.684357 456.854584,464.405060 
	C457.094238,463.419495 457.670105,462.615967 458.564087,461.845703 
z"/>
<path fill="#B1B1B1" opacity="1.000000" stroke="none" 
	d="
M460.899902,459.495056 
	C460.689362,460.372040 460.162323,461.218750 459.257202,461.973694 
	C459.447205,461.076202 460.015259,460.270477 460.899902,459.495056 
z"/>
<path fill="#B1B1B1" opacity="1.000000" stroke="none" 
	d="
M463.530640,456.794617 
	C463.299896,457.726624 462.750000,458.655273 461.858459,459.403687 
	C462.081696,458.412750 462.646606,457.601990 463.530640,456.794617 
z"/>
<path fill="#B1B1B1" opacity="1.000000" stroke="none" 
	d="
M444.617798,474.939758 
	C444.440887,475.577423 443.958679,476.241821 443.123138,476.826904 
	C443.284027,476.153900 443.798279,475.560211 444.617798,474.939758 
z"/>
<path fill="#F6F6F6" opacity="1.000000" stroke="none" 
	d="
M536.835205,237.342896 
	C536.666687,237.554565 536.446106,237.447784 535.900085,237.170258 
	C535.621765,236.820435 535.669006,236.641342 535.874634,236.234070 
	C536.283081,236.345413 536.533142,236.684937 536.835205,237.342896 
z"/>
<path fill="#5D5D5D" opacity="1.000000" stroke="none" 
	d="
M535.876953,306.410522 
	C535.833740,306.411621 536.142639,306.516296 536.217163,306.552795 
	C536.291687,306.589325 536.024292,306.560242 535.945618,306.449890 
	C535.866943,306.339508 535.920227,306.409424 535.876953,306.410522 
z"/>
<path fill="#EFEFEF" opacity="1.000000" stroke="none" 
	d="
M535.620972,226.089294 
	C534.836426,225.034683 534.385742,223.842682 534.007324,222.323730 
	C534.704590,223.315155 535.329712,224.633530 535.620972,226.089294 
z"/>
<path fill="#D1D1D1" opacity="1.000000" stroke="none" 
	d="
M220.071289,537.451233 
	C221.111191,537.254578 222.243637,537.444702 223.549896,537.937012 
	C222.537079,538.105469 221.350449,537.971741 220.071289,537.451233 
z"/>
<path fill="#DCDCDC" opacity="1.000000" stroke="none" 
	d="
M553.378540,509.912628 
	C553.005432,354.979248 553.005981,199.961319 553.010620,44.475731 
	C554.009705,47.094624 555.835388,50.170837 555.874023,53.269321 
	C556.394592,95.055305 556.896301,136.844070 556.954346,178.632782 
	C557.094910,279.788300 557.048828,380.944214 556.912415,482.099731 
	C556.900818,490.683014 555.676880,499.266754 554.932739,507.843048 
	C554.872803,508.533691 554.161011,509.167755 553.378540,509.912628 
z"/>
<path fill="#040404" opacity="1.000000" stroke="none" 
	d="
M242.924149,315.290497 
	C245.472092,289.255035 258.098602,269.299408 277.185455,252.866150 
	C290.627136,241.293213 304.033295,229.677094 317.333893,217.942642 
	C340.096161,197.860626 334.501343,165.555115 309.552185,150.177368 
	C297.442169,142.713196 284.014099,141.472107 270.215668,142.274689 
	C244.002594,143.799332 227.073425,157.983398 217.107651,181.473068 
	C215.700470,184.789871 214.781372,188.358109 214.017883,191.892380 
	C213.067596,196.291428 211.075104,198.562973 206.150711,197.856522 
	C190.024628,195.543091 173.877380,193.368591 157.715378,191.321381 
	C154.441727,190.906723 153.578674,189.510010 153.852585,186.418427 
	C155.258224,170.553711 160.656937,156.073212 169.430740,142.943832 
	C181.913895,124.263680 198.866440,110.738159 219.648361,102.409668 
	C232.789352,97.143326 246.657806,94.668884 260.873962,93.708519 
	C278.122314,92.543327 295.260956,93.321121 311.962524,97.302231 
	C344.666962,105.097908 370.336609,123.039841 385.681061,153.523560 
	C393.423920,168.905701 395.897217,185.400177 392.528381,202.854446 
	C388.754456,222.407486 377.983215,237.459534 364.154572,250.659607 
	C351.205170,263.020416 337.615204,274.710693 324.289093,286.675964 
	C316.239655,293.903442 307.498077,300.955811 304.408569,311.663452 
	C302.004242,319.996552 301.339020,328.931946 300.738281,337.657318 
	C300.110199,346.779572 300.280060,345.066162 292.931305,345.084106 
	C277.932953,345.120758 262.930695,344.911591 247.938278,345.213135 
	C243.508865,345.302216 242.492401,343.706482 242.618851,339.745667 
	C242.873978,331.754150 242.807556,323.752350 242.924149,315.290497 
z"/>
<path fill="#080808" opacity="1.000000" stroke="none" 
	d="
M249.236847,431.793030 
	C243.911606,432.647186 242.489624,430.577484 242.569824,425.768585 
	C242.833618,409.950745 242.668686,394.125793 242.668472,378.303558 
	C242.668457,376.691711 242.668488,375.079895 242.668488,373.342621 
	C244.476028,373.156281 245.612915,372.938477 246.750107,372.937012 
	C263.405060,372.915375 280.060608,372.996490 296.714569,372.866974 
	C300.515228,372.837433 301.907440,373.900330 301.841187,378.000397 
	C301.585693,393.818542 301.740448,409.643188 301.725800,425.465393 
	C301.720001,431.703766 301.616638,431.791412 295.171570,431.792969 
	C280.015533,431.796631 264.859528,431.792999 249.236847,431.793030 
z"/>
<path fill="#EFEFEF" opacity="1.000000" stroke="none" 
	d="
M534.318420,320.938293 
	C534.225769,319.397369 534.481018,317.796387 535.009399,315.984985 
	C538.037476,317.833221 536.134399,319.329468 534.318420,320.938293 
z"/>
<path fill="#D1D1D1" opacity="1.000000" stroke="none" 
	d="
M312.628326,538.441406 
	C313.281616,537.764709 314.298798,537.315857 315.666077,536.958740 
	C315.008179,537.590088 314.000214,538.129639 312.628326,538.441406 
z"/>
</svg>