<svg version="1.1" id="Layer_1" xmlns="http://www.w3.org/2000/svg" xmlns:xlink="http://www.w3.org/1999/xlink" x="0px" y="0px"
	 width="100%" viewBox="0 0 98 84" enable-background="new 0 0 98 84" xml:space="preserve">
<path fill="#FFFFFF" opacity="1.000000" stroke="none" 
	d="
M64.000000,85.000000 
	C42.666672,85.000000 21.833342,85.000000 1.000008,85.000000 
	C1.000006,57.000008 1.000006,29.000017 1.000003,1.000020 
	C33.666653,1.000013 66.333305,1.000013 98.999969,1.000007 
	C98.999977,28.999979 98.999977,56.999958 98.999985,84.999969 
	C87.500000,85.000000 76.000000,85.000000 64.000000,85.000000 
M14.072540,50.499710 
	C14.080087,55.828159 14.104781,61.156658 14.090980,66.485054 
	C14.072410,73.654366 19.215790,78.970024 26.285498,78.981361 
	C40.938908,79.004852 55.624786,78.406532 70.234291,79.209923 
	C79.786903,79.735245 85.824257,72.295990 85.837891,63.633823 
	C85.859642,49.812950 86.114601,35.984936 85.753723,22.173452 
	C85.487434,11.982265 80.872910,7.411442 70.367340,7.101597 
	C56.392082,6.689419 42.392601,6.829225 28.409163,7.065400 
	C20.147064,7.204943 13.125871,11.631495 13.915579,21.537580 
	C14.654263,30.803610 14.072928,40.174873 14.072540,50.499710 
z"/>
<path fill="#17426D" opacity="1.000000" stroke="none" 
	d="
M14.072543,49.999767 
	C14.072928,40.174873 14.654263,30.803610 13.915579,21.537580 
	C13.125871,11.631495 20.147064,7.204943 28.409163,7.065400 
	C42.392601,6.829225 56.392082,6.689419 70.367340,7.101597 
	C80.872910,7.411442 85.487434,11.982265 85.753723,22.173452 
	C86.114601,35.984936 85.859642,49.812950 85.837891,63.633823 
	C85.824257,72.295990 79.786903,79.735245 70.234291,79.209923 
	C55.624786,78.406532 40.938908,79.004852 26.285498,78.981361 
	C19.215790,78.970024 14.072410,73.654366 14.090980,66.485054 
	C14.104781,61.156658 14.080087,55.828159 14.072543,49.999767 
M39.016380,65.358665 
	C39.347397,64.969307 39.678413,64.579941 40.669403,63.834343 
	C45.346664,59.956520 44.884125,54.182915 46.751003,48.763760 
	C48.547054,46.528648 50.343102,44.293541 52.713150,41.773659 
	C53.117359,40.858620 53.521568,39.943581 54.483498,38.657269 
	C56.977917,35.403217 59.472336,32.149166 62.217781,28.271717 
	C62.837055,26.868832 63.456326,25.465944 64.032799,24.032959 
	C64.032799,24.032959 64.036804,24.084181 64.557373,23.930351 
	C64.750526,23.634422 64.943680,23.338495 65.700081,22.758307 
	C66.154762,21.872164 66.609451,20.986019 67.526421,19.904833 
	C67.329811,19.683771 67.133202,19.462711 66.013603,19.139256 
	C60.014576,19.203793 54.015549,19.268328 47.124111,19.152409 
	C43.705051,19.435619 40.285988,19.718830 36.455090,20.222973 
	C36.218025,20.436312 36.048275,20.693995 35.328003,21.335466 
	C32.252274,24.186630 31.539049,27.799034 32.013096,31.768316 
	C32.306286,34.223263 32.625313,36.677074 33.016300,39.118011 
	C33.972370,45.086758 34.976971,51.047737 35.990730,57.881081 
	C36.261600,60.611069 36.532475,63.341057 37.474709,66.332489 
	C37.820953,66.066002 38.167202,65.799522 39.016380,65.358665 
z"/>
<path fill="#133962" opacity="1.000000" stroke="none" 
	d="
M61.966751,28.895115 
	C59.472336,32.149166 56.977917,35.403217 53.788380,38.825912 
	C50.744522,38.632591 48.395782,38.270622 46.160419,37.571346 
	C45.958122,36.068420 45.642448,34.902802 45.304276,33.712906 
	C45.281780,33.688629 45.287663,33.622692 45.458309,33.477192 
	C45.654221,33.200191 45.724537,33.057575 45.695415,32.939487 
	C45.633736,32.689354 45.520184,32.452007 45.579399,31.908470 
	C46.737724,30.735353 47.695942,29.185755 48.759895,29.109390 
	C53.144718,28.794672 57.561634,28.927080 61.966751,28.895115 
z"/>
<path fill="#123861" opacity="1.000000" stroke="none" 
	d="
M35.962040,57.011841 
	C34.976971,51.047737 33.972370,45.086758 33.016300,39.118011 
	C32.625313,36.677074 32.306286,34.223263 32.013096,31.768316 
	C31.539049,27.799034 32.252274,24.186630 35.728878,21.376997 
	C36.271442,21.702902 36.482594,21.919582 36.816208,22.504925 
	C36.939869,25.297642 37.010521,27.654003 37.003937,30.428879 
	C36.865891,32.543118 36.805084,34.238846 36.507710,36.278568 
	C36.168106,43.418987 36.065075,50.215416 35.962040,57.011841 
z"/>
<path fill="#DFB23E" opacity="1.000000" stroke="none" 
	d="
M46.126827,49.038280 
	C44.884125,54.182915 45.346664,59.956520 40.335354,63.653519 
	C39.367523,62.031288 38.733742,60.589886 38.386765,58.941547 
	C38.168289,53.153111 37.663017,47.571606 37.483006,42.055511 
	C38.870380,43.077667 39.932499,44.034412 40.998333,45.400272 
	C40.709629,50.061081 43.926010,48.743752 46.126827,49.038280 
z"/>
<path fill="#E7BC42" opacity="1.000000" stroke="none" 
	d="
M62.092266,28.583416 
	C57.561634,28.927080 53.144718,28.794672 48.759895,29.109390 
	C47.695942,29.185755 46.737724,30.735353 45.086487,31.790764 
	C42.647434,31.791138 39.787907,32.488747 42.317284,28.962025 
	C43.148300,28.265049 43.648491,27.610170 44.470459,26.802177 
	C46.863983,26.093765 48.935734,25.538467 51.419228,24.934837 
	C55.912518,24.612022 59.994057,24.337542 64.075600,24.063061 
	C63.456326,25.465944 62.837055,26.868832 62.092266,28.583416 
z"/>
<path fill="#F3D64B" opacity="1.000000" stroke="none" 
	d="
M64.054199,24.048010 
	C59.994057,24.337542 55.912518,24.612022 51.379536,24.594236 
	C49.957573,22.645599 48.987049,20.989231 48.016525,19.332863 
	C54.015549,19.268328 60.014576,19.203793 66.487396,19.407875 
	C66.961189,19.676497 67.064140,20.099878 67.064140,20.099876 
	C66.609451,20.986019 66.154762,21.872164 65.165085,22.989212 
	C64.432327,23.508139 64.234566,23.796160 64.036804,24.084179 
	C64.036804,24.084181 64.032799,24.032959 64.054199,24.048010 
z"/>
<path fill="#EECE49" opacity="1.000000" stroke="none" 
	d="
M47.570320,19.242636 
	C48.987049,20.989231 49.957573,22.645599 50.967789,24.642569 
	C48.935734,25.538467 46.863983,26.093765 44.394310,26.492592 
	C43.344177,25.570484 42.691963,24.804852 41.753658,23.901428 
	C40.094234,22.493269 38.720905,21.222897 37.224388,19.935505 
	C37.101196,19.918484 36.866928,20.002041 36.866928,20.002041 
	C40.285988,19.718830 43.705051,19.435619 47.570320,19.242636 
z"/>
<path fill="#DDAD3D" opacity="1.000000" stroke="none" 
	d="
M46.438915,48.901020 
	C43.926010,48.743752 40.709629,50.061081 41.040665,45.076920 
	C41.730011,43.886841 42.380741,43.429226 43.459724,42.973984 
	C46.638367,42.670380 49.388760,42.364403 52.139153,42.058430 
	C50.343102,44.293541 48.547054,46.528648 46.438915,48.901020 
z"/>
<path fill="#3B4A49" opacity="1.000000" stroke="none" 
	d="
M37.157745,41.990101 
	C37.663017,47.571606 38.168289,53.153111 38.026718,59.092735 
	C37.319332,61.294346 37.258793,63.137840 37.101192,65.254364 
	C36.937199,65.708611 36.870270,65.889824 36.803345,66.071045 
	C36.532475,63.341057 36.261600,60.611069 35.976387,57.446461 
	C36.065075,50.215416 36.168106,43.418987 36.606956,36.703201 
	C37.014431,38.519257 37.086086,40.254681 37.157745,41.990101 
z"/>
<path fill="#F8DE50" opacity="1.000000" stroke="none" 
	d="
M52.426151,41.916046 
	C49.388760,42.364403 46.638367,42.670380 43.475876,42.639496 
	C44.058197,40.837982 45.052620,39.373318 46.047043,37.908653 
	C48.395782,38.270622 50.744522,38.632591 53.509521,39.011551 
	C53.521568,39.943581 53.117359,40.858620 52.426151,41.916046 
z"/>
<path fill="#BC872F" opacity="1.000000" stroke="none" 
	d="
M37.198257,64.981331 
	C37.258793,63.137840 37.319332,61.294346 37.739914,59.299667 
	C38.733742,60.589886 39.367523,62.031288 40.005371,63.831635 
	C39.678413,64.579941 39.347397,64.969307 38.452385,65.265114 
	C37.658352,65.108154 37.428307,65.044739 37.198257,64.981331 
z"/>
<path fill="#3B4A49" opacity="1.000000" stroke="none" 
	d="
M36.763199,22.068569 
	C36.482594,21.919582 36.271442,21.702902 36.037796,21.207273 
	C36.048275,20.693995 36.218025,20.436312 36.661011,20.112507 
	C36.866928,20.002041 37.101196,19.918484 37.097183,20.279848 
	C36.983177,21.116999 36.873188,21.592783 36.763199,22.068569 
z"/>
<path fill="#E7BC42" opacity="1.000000" stroke="none" 
	d="
M64.297089,24.007265 
	C64.234566,23.796160 64.432327,23.508139 64.883461,23.131342 
	C64.943680,23.338495 64.750526,23.634422 64.297089,24.007265 
z"/>
<path fill="#C3B74B" opacity="1.000000" stroke="none" 
	d="
M67.295280,20.002356 
	C67.064140,20.099878 66.961189,19.676497 66.948891,19.459072 
	C67.133202,19.462711 67.329811,19.683771 67.295280,20.002356 
z"/>
<path fill="#AC7D2E" opacity="1.000000" stroke="none" 
	d="
M37.101196,65.254364 
	C37.428307,65.044739 37.658352,65.108154 38.200920,65.352295 
	C38.167202,65.799522 37.820953,66.066002 37.139027,66.201767 
	C36.870270,65.889824 36.937199,65.708611 37.101196,65.254364 
z"/>
<path fill="#EABE43" opacity="1.000000" stroke="none" 
	d="
M46.160419,37.571350 
	C45.052620,39.373318 44.058197,40.837982 43.047623,42.637127 
	C42.380741,43.429226 41.730011,43.886841 41.036949,44.667809 
	C39.932499,44.034412 38.870380,43.077667 37.483002,42.055511 
	C37.086086,40.254681 37.014431,38.519257 36.843529,36.359207 
	C36.805084,34.238846 36.865891,32.543118 37.345535,30.358444 
	C39.149754,28.254429 40.535137,26.639360 41.938698,25.421562 
	C41.966743,26.880594 41.976604,27.942360 41.986465,29.004124 
	C39.787907,32.488747 42.647434,31.791138 44.934998,32.091713 
	C45.520184,32.452007 45.633736,32.689354 45.695415,32.939487 
	C45.724537,33.057575 45.654221,33.200191 45.154251,33.654404 
	C44.305340,34.245937 43.916523,34.499043 43.581772,34.810295 
	C43.551620,34.838333 43.870590,35.241848 44.027424,35.470989 
	C44.460541,34.893055 44.893658,34.315121 45.326775,33.737183 
	C45.642448,34.902802 45.958122,36.068420 46.160419,37.571350 
z"/>
<path fill="#E7BC42" opacity="1.000000" stroke="none" 
	d="
M45.304276,33.712906 
	C44.893658,34.315121 44.460541,34.893055 44.027424,35.470989 
	C43.870590,35.241848 43.551620,34.838333 43.581772,34.810295 
	C43.916523,34.499043 44.305340,34.245937 44.983604,33.799904 
	C45.287663,33.622692 45.281780,33.688629 45.304276,33.712906 
z"/>
<path fill="#E1B43F" opacity="1.000000" stroke="none" 
	d="
M41.920517,25.024292 
	C40.535137,26.639360 39.149754,28.254429 37.422775,29.939930 
	C37.010521,27.654003 36.939869,25.297642 36.816208,22.504925 
	C36.873188,21.592783 36.983177,21.116999 37.220371,20.296867 
	C38.720905,21.222897 40.094234,22.493269 41.728821,24.148117 
	C41.990074,24.532593 41.920517,25.024292 41.920517,25.024292 
z"/>
<path fill="#CD8E33" opacity="1.000000" stroke="none" 
	d="
M41.938698,25.421562 
	C41.920517,25.024292 41.990074,24.532593 42.014915,24.285904 
	C42.691963,24.804852 43.344177,25.570484 44.072536,26.645704 
	C43.648491,27.610170 43.148300,28.265049 42.317287,28.962025 
	C41.976604,27.942360 41.966743,26.880594 41.938698,25.421562 
z"/>
</svg>