<svg version="1.1" id="Layer_1" xmlns="http://www.w3.org/2000/svg" xmlns:xlink="http://www.w3.org/1999/xlink" x="0px" y="0px"
	 width="100%" viewBox="0 0 90 80" enable-background="new 0 0 90 80" xml:space="preserve">
<path fill="#010101" opacity="1.000000" stroke="none" 
	d="
M53.000000,81.000000 
	C35.333336,81.000000 18.166674,81.000000 1.000007,81.000000 
	C1.000005,54.333340 1.000005,27.666683 1.000002,1.000018 
	C30.999987,1.000012 60.999973,1.000012 90.999969,1.000006 
	C90.999985,27.666649 90.999985,54.333298 90.999992,80.999969 
	C78.500000,81.000000 66.000000,81.000000 53.000000,81.000000 
M34.778481,60.540646 
	C40.805950,70.656105 50.642632,75.488556 61.157875,73.500008 
	C71.878807,71.472557 80.014877,63.057331 81.636070,52.319199 
	C83.250259,41.627430 77.943649,31.109222 68.341408,25.967915 
	C59.224567,21.086500 47.913357,22.591549 40.018833,29.736460 
	C31.648066,37.312393 29.539677,48.524551 34.778481,60.540646 
z"/>
<path fill="#5FCD51" opacity="1.000000" stroke="none" 
	d="
M34.561691,60.225204 
	C29.539677,48.524551 31.648066,37.312393 40.018833,29.736460 
	C47.913357,22.591549 59.224567,21.086500 68.341408,25.967915 
	C77.943649,31.109222 83.250259,41.627430 81.636070,52.319199 
	C80.014877,63.057331 71.878807,71.472557 61.157875,73.500008 
	C50.642632,75.488556 40.805950,70.656105 34.561691,60.225204 
M65.656837,50.472523 
	C65.326523,48.814274 64.996208,47.156025 64.542847,45.316578 
	C64.542847,45.316578 64.760597,45.129860 64.760597,45.129860 
	C64.760597,45.129860 64.928429,45.348961 64.427872,44.510914 
	C63.522694,44.214577 62.617519,43.918243 61.417744,43.112679 
	C61.320667,42.759544 61.223591,42.406406 61.882999,42.021137 
	C64.246468,41.260635 66.667412,40.640720 68.958847,39.704010 
	C71.817055,38.535614 73.899185,36.580776 72.600075,33.173969 
	C71.359406,29.920441 68.744965,29.375057 65.639145,30.434608 
	C60.307045,32.253654 54.874996,33.829895 49.682510,35.984314 
	C47.486126,36.895622 44.739189,38.712669 44.178749,40.671906 
	C43.673576,42.437939 45.812389,44.960278 47.077011,47.805897 
	C47.192501,47.721008 46.525555,48.211224 45.164043,49.079369 
	C42.207993,52.341438 43.882511,55.042519 46.382244,57.637318 
	C43.644909,60.274540 42.006710,63.159878 45.097168,66.313049 
	C47.253937,68.513588 49.955212,68.577515 52.184113,66.279381 
	C55.563354,62.795166 53.251808,60.015446 50.953178,57.702499 
	C55.670479,55.482292 60.389095,53.261463 65.656837,50.472523 
z"/>
<path fill="#111610" opacity="1.000000" stroke="none" 
	d="
M45.858601,48.701431 
	C46.525555,48.211224 47.192501,47.721008 47.077011,47.805897 
	C45.812389,44.960278 43.673576,42.437939 44.178749,40.671906 
	C44.739189,38.712669 47.486126,36.895622 49.682510,35.984314 
	C54.874996,33.829895 60.307045,32.253654 65.639145,30.434608 
	C68.744965,29.375057 71.359406,29.920441 72.600075,33.173969 
	C73.899185,36.580776 71.817055,38.535614 68.958847,39.704010 
	C66.667412,40.640720 64.246468,41.260635 61.186089,42.071594 
	C60.204407,42.441582 59.919632,42.761112 59.634861,43.080647 
	C60.327354,43.261066 61.019848,43.441486 61.712341,43.621906 
	C62.617519,43.918243 63.522694,44.214577 64.383636,45.311905 
	C62.304684,46.133114 60.152031,45.731380 58.259499,46.260323 
	C54.166969,47.404152 50.207760,49.025017 46.106548,50.014114 
	C45.965588,49.285458 45.912090,48.993443 45.858601,48.701431 
M57.752686,35.243034 
	C54.620434,36.310352 51.387115,37.161583 48.407505,38.555241 
	C47.273972,39.085423 46.723354,40.861858 45.907066,42.070301 
	C47.209507,42.669308 48.737648,44.043312 49.777451,43.740494 
	C56.127945,41.891029 62.415112,39.785908 68.597580,37.435154 
	C69.631744,37.041935 70.051216,35.032097 70.754723,33.769260 
	C69.342796,33.295284 67.823227,32.233761 66.541161,32.468628 
	C63.802094,32.970417 61.186016,34.143524 57.752686,35.243034 
M53.573090,45.298111 
	C53.775612,45.028259 53.978130,44.758408 54.180653,44.488556 
	C53.899239,44.661755 53.617825,44.834953 53.573090,45.298111 
z"/>
<path fill="#F2F2F2" opacity="1.000000" stroke="none" 
	d="
M46.194016,50.450752 
	C50.207760,49.025017 54.166969,47.404152 58.259499,46.260323 
	C60.152031,45.731380 62.304684,46.133114 64.633911,45.730927 
	C64.928429,45.348961 64.760597,45.129860 64.760597,45.129860 
	C64.760597,45.129860 64.542847,45.316578 64.198425,45.584576 
	C63.626995,47.438553 63.399990,49.024532 62.861229,50.755699 
	C58.625866,52.225052 54.734497,53.656918 50.769787,54.843796 
	C46.609158,56.089329 45.694107,55.133621 46.194016,50.450752 
z"/>
<path fill="#151D14" opacity="1.000000" stroke="none" 
	d="
M46.106548,50.014111 
	C45.694107,55.133621 46.609158,56.089329 50.769787,54.843796 
	C54.734497,53.656918 58.625866,52.225052 63.342308,50.875065 
	C64.459328,50.913040 64.783516,50.976837 65.107712,51.040634 
	C60.389095,53.261463 55.670479,55.482292 50.953178,57.702499 
	C53.251808,60.015446 55.563354,62.795166 52.184113,66.279381 
	C49.955212,68.577515 47.253937,68.513588 45.097168,66.313049 
	C42.006710,63.159878 43.644909,60.274540 46.382244,57.637318 
	C43.882511,55.042519 42.207993,52.341438 45.511322,48.890396 
	C45.912090,48.993443 45.965588,49.285458 46.106548,50.014111 
M46.829437,65.252556 
	C48.335594,64.859390 50.012634,64.729645 51.252182,63.925518 
	C51.667660,63.655987 51.367020,61.246189 50.666321,60.581684 
	C49.954544,59.906673 47.487270,59.728352 47.284100,60.116070 
	C46.569427,61.479927 46.497585,63.180634 46.829437,65.252556 
z"/>
<path fill="#111610" opacity="1.000000" stroke="none" 
	d="
M65.382278,50.756577 
	C64.783516,50.976837 64.459328,50.913040 63.654060,50.729877 
	C63.399990,49.024532 63.626995,47.438553 64.259949,45.675175 
	C64.996208,47.156025 65.326523,48.814274 65.382278,50.756577 
z"/>
<path fill="#151D14" opacity="1.000000" stroke="none" 
	d="
M61.565041,43.367294 
	C61.019848,43.441486 60.327354,43.261066 59.634861,43.080647 
	C59.919632,42.761112 60.204407,42.441582 60.807846,42.087662 
	C61.223591,42.406406 61.320667,42.759544 61.565041,43.367294 
z"/>
<path fill="#F2F2F2" opacity="1.000000" stroke="none" 
	d="
M58.136124,35.142326 
	C61.186016,34.143524 63.802094,32.970417 66.541161,32.468628 
	C67.823227,32.233761 69.342796,33.295284 70.754723,33.769260 
	C70.051216,35.032097 69.631744,37.041935 68.597580,37.435154 
	C62.415112,39.785908 56.127945,41.891029 49.777451,43.740494 
	C48.737648,44.043312 47.209507,42.669308 45.907066,42.070301 
	C46.723354,40.861858 47.273972,39.085423 48.407505,38.555241 
	C51.387115,37.161583 54.620434,36.310352 58.136124,35.142326 
z"/>
<path fill="#151D14" opacity="1.000000" stroke="none" 
	d="
M53.454750,45.153130 
	C53.617825,44.834953 53.899239,44.661755 54.180653,44.488556 
	C53.978130,44.758408 53.775612,45.028259 53.454750,45.153130 
z"/>
<path fill="#E7E7E7" opacity="1.000000" stroke="none" 
	d="
M46.505627,65.003036 
	C46.497585,63.180634 46.569427,61.479927 47.284100,60.116070 
	C47.487270,59.728352 49.954544,59.906673 50.666321,60.581684 
	C51.367020,61.246189 51.667660,63.655987 51.252182,63.925518 
	C50.012634,64.729645 48.335594,64.859390 46.505627,65.003036 
z"/>
</svg>