<?xml version="1.0" standalone="no"?>
<!DOCTYPE svg PUBLIC "-//W3C//DTD SVG 20010904//EN"
 "http://www.w3.org/TR/2001/REC-SVG-20010904/DTD/svg10.dtd">
<svg version="1.0" xmlns="http://www.w3.org/2000/svg"
 width="542.000000pt" height="354.000000pt" viewBox="0 0 542.000000 354.000000"
 preserveAspectRatio="xMidYMid meet">

<g transform="translate(0.000000,354.000000) scale(0.100000,-0.100000)"
fill="#000000" stroke="none">
<path d="M15 3531 c3 -5 1 -12 -5 -16 -7 -4 -10 -383 -10 -1166 0 -765 4
-1158 10 -1154 6 4 8 11 5 16 -4 5 1 9 9 9 9 0 16 -3 16 -7 0 -16 -25 -73 -32
-73 -4 0 -8 -200 -8 -444 l0 -443 25 5 c21 4 25 1 25 -21 0 -28 -22 -41 -39
-24 -8 8 -11 -18 -11 -101 l0 -112 430 0 c398 0 455 3 420 25 -14 9 -12 22 5
29 8 3 14 2 14 -2 -1 -4 -1 -17 0 -29 l1 -23 564 0 c623 0 575 -5 577 63 1 48
22 142 37 159 20 25 91 30 118 9 13 -10 58 -24 101 -31 108 -18 155 -43 136
-72 -9 -14 -32 -96 -33 -115 0 -10 60 -13 270 -13 l270 0 10 28 c6 15 19 43
30 62 19 35 19 36 0 48 -11 7 -30 12 -42 12 -13 0 -45 7 -73 14 l-50 14 43 1
c24 1 42 -4 42 -10 0 -7 9 -9 23 -5 13 3 38 1 55 -4 30 -8 35 -5 88 50 59 62
152 117 243 144 41 12 99 16 238 16 129 0 183 3 183 11 0 8 4 8 14 0 10 -9
162 -11 565 -11 505 1 552 3 562 18 10 16 10 16 5 0 -4 -15 9 -17 148 -17 128
-1 155 1 160 14 7 19 26 19 26 0 0 -12 20 -15 120 -15 l120 0 0 225 0 225 -40
0 c-31 0 -40 -4 -40 -17 -1 -17 -1 -17 -14 -1 -12 16 -80 18 -1022 20 l-1009
3 -58 22 c-71 27 -172 98 -222 155 -71 81 -125 224 -125 329 0 180 104 370
247 451 29 16 51 34 47 39 -3 5 1 6 8 4 8 -3 34 2 58 11 37 14 90 18 282 22
131 2 237 7 237 10 -3 21 3 32 17 32 11 0 15 -6 11 -20 -5 -19 2 -20 524 -20
348 0 529 3 529 10 0 5 8 10 18 10 14 0 15 -2 2 -10 -10 -6 81 -10 268 -10
l282 0 0 309 c0 304 0 309 -20 304 -12 -3 -20 0 -20 7 0 6 9 14 20 17 20 5 20
14 20 524 l0 519 -701 0 c-464 0 -698 -3 -694 -10 3 -5 -3 -10 -15 -10 -12 0
-18 4 -15 10 4 6 -457 10 -1340 10 -900 0 -1344 -3 -1340 -10 11 -17 -5 -32
-21 -19 -7 6 -11 15 -8 20 3 5 -266 9 -636 9 -393 0 -639 -4 -635 -9z m297
-17 c32 -20 -36 -54 -76 -38 -16 6 -22 35 -9 48 7 7 70 -1 85 -10z m908 2 c0
-8 -7 -16 -15 -20 -10 -4 -15 1 -15 14 0 11 7 20 15 20 8 0 15 -6 15 -14z
m665 -5 c3 -5 1 -12 -5 -16 -5 -3 -10 1 -10 9 0 18 6 21 15 7z m2775 1 c0 -13
-12 -22 -22 -16 -10 6 -1 24 13 24 5 0 9 -4 9 -8z m520 -2 c0 -5 -7 -10 -15
-10 -8 0 -15 5 -15 10 0 6 7 10 15 10 8 0 15 -4 15 -10z m177 -14 c-6 -17 -47
-20 -47 -3 0 9 6 17 13 20 18 6 38 -4 34 -17z m-3749 -8 c-5 -34 -38 -37 -38
-4 0 20 5 26 21 26 15 0 20 -5 17 -22z m-508 4 c0 -13 -12 -22 -22 -16 -10 6
-1 24 13 24 5 0 9 -4 9 -8z m1540 -1 c0 -12 -20 -25 -27 -18 -7 7 6 27 18 27
5 0 9 -4 9 -9z m-200 -5 c0 -3 -4 -8 -10 -11 -5 -3 -10 -1 -10 4 0 6 5 11 10
11 6 0 10 -2 10 -4z m2078 -14 c2 -7 -6 -12 -17 -12 -21 0 -27 11 -14 24 9 9
26 2 31 -12z m547 -2 c3 -5 2 -10 -4 -10 -5 0 -13 5 -16 10 -3 6 -2 10 4 10 5
0 13 -4 16 -10z m-585 -40 c0 -5 -2 -10 -4 -10 -3 0 -8 5 -11 10 -3 6 -1 10 4
10 6 0 11 -4 11 -10z m-3963 -16 c8 -21 -13 -42 -28 -27 -13 13 -5 43 11 43 6
0 13 -7 17 -16z m182 7 c19 -12 6 -41 -19 -41 -13 0 -20 7 -20 18 0 31 14 39
39 23z m1366 -21 c-5 -8 -11 -8 -17 -2 -6 6 -7 16 -3 22 5 8 11 8 17 2 6 -6 7
-16 3 -22z m3245 0 c0 -5 -7 -10 -15 -10 -8 0 -15 5 -15 10 0 6 7 10 15 10 8
0 15 -4 15 -10z m-2455 -41 c-8 -12 -35 -12 -35 0 0 11 22 20 33 14 4 -2 5 -9
2 -14z m2335 1 c0 -5 -4 -10 -10 -10 -5 0 -10 5 -10 10 0 6 5 10 10 10 6 0 10
-4 10 -10z m-1195 -10 c3 -6 -1 -13 -10 -16 -19 -8 -30 0 -20 15 8 14 22 14
30 1z m1110 1 c7 -12 -12 -24 -25 -16 -11 7 -4 25 10 25 5 0 11 -4 15 -9z
m-4605 -5 c0 -3 -4 -8 -10 -11 -5 -3 -10 -1 -10 4 0 6 5 11 10 11 6 0 10 -2
10 -4z m2044 -14 c9 -14 -9 -31 -23 -23 -7 5 -10 14 -7 20 8 13 23 14 30 3z
m2702 -3 c10 -17 -13 -36 -27 -22 -12 12 -4 33 11 33 5 0 12 -5 16 -11z
m-1124 -11 c-9 -9 -15 -9 -24 0 -9 9 -7 12 12 12 19 0 21 -3 12 -12z m-148
-19 c-3 -5 -10 -7 -15 -3 -5 3 -7 10 -3 15 3 5 10 7 15 3 5 -3 7 -10 3 -15z
m-2464 -4 c0 -8 -9 -15 -20 -15 -11 0 -20 7 -20 15 0 8 9 15 20 15 11 0 20 -7
20 -15z m-1225 -5 c3 -5 -1 -10 -9 -10 -9 0 -16 5 -16 10 0 6 4 10 9 10 6 0
13 -4 16 -10z m-87 -23 c2 -10 -3 -17 -12 -17 -18 0 -29 16 -21 31 9 14 29 6
33 -14z m2348 -6 c-8 -13 -36 -15 -36 -3 0 4 5 13 12 20 14 14 34 0 24 -17z
m-453 -9 c-5 -22 -23 -31 -23 -12 0 10 23 40 27 36 1 -1 0 -12 -4 -24z m-148
-2 c-3 -5 -10 -10 -16 -10 -5 0 -9 5 -9 10 0 6 7 10 16 10 8 0 12 -4 9 -10z
m3465 2 c0 -13 -12 -22 -22 -16 -10 6 -1 24 13 24 5 0 9 -4 9 -8z m-4440 -17
c0 -8 -6 -15 -14 -15 -17 0 -28 14 -19 24 12 12 33 6 33 -9z m2708 -7 c-3 -7
-12 -14 -21 -16 -12 -2 -15 1 -11 12 7 19 38 22 32 4z m149 -14 c-3 -3 -12 -4
-19 -1 -8 3 -5 6 6 6 11 1 17 -2 13 -5z m850 0 c-3 -3 -12 -4 -19 -1 -8 3 -5
6 6 6 11 1 17 -2 13 -5z m677 -9 c-4 -8 -12 -15 -20 -15 -8 0 -11 6 -8 15 4 8
12 15 20 15 8 0 11 -6 8 -15z m-2766 -23 c2 -7 -6 -12 -17 -12 -21 0 -27 11
-14 24 9 9 26 2 31 -12z m1052 -6 c0 -7 -11 -23 -25 -36 l-25 -23 0 35 c0 36
13 50 38 40 6 -2 12 -10 12 -16z m-3132 -14 c3 -20 0 -23 -20 -20 -15 2 -24
11 -26 26 -3 20 0 23 20 20 15 -2 24 -11 26 -26z m3182 -3 c0 -5 -7 -9 -15 -9
-15 0 -20 12 -9 23 8 8 24 -1 24 -14z m255 -8 c-3 -6 -11 -8 -17 -5 -6 4 -5 9
3 15 16 10 23 4 14 -10z m-2905 -31 c0 -5 -4 -10 -10 -10 -5 0 -10 5 -10 10 0
6 5 10 10 10 6 0 10 -4 10 -10z m2436 -21 c10 -17 -13 -36 -27 -22 -12 12 -4
33 11 33 5 0 12 -5 16 -11z m-1188 -35 c-4 -21 -48 -33 -48 -13 0 7 8 21 17
31 19 21 37 10 31 -18z m3034 -19 c2 -12 -49 -31 -58 -22 -4 3 -4 13 0 22 6
18 55 18 58 0z m-4412 -25 c0 -21 -15 -27 -25 -10 -7 12 2 30 16 30 5 0 9 -9
9 -20z m3860 4 c0 -17 -22 -14 -28 4 -2 7 3 12 12 12 9 0 16 -7 16 -16z m450
6 c0 -5 -4 -10 -10 -10 -5 0 -10 5 -10 10 0 6 5 10 10 10 6 0 10 -4 10 -10z
m-1810 -19 c0 -6 -4 -13 -10 -16 -5 -3 -10 1 -10 9 0 9 5 16 10 16 6 0 10 -4
10 -9z m1240 -7 c0 -8 -4 -12 -10 -9 -5 3 -10 10 -10 16 0 5 5 9 10 9 6 0 10
-7 10 -16z m-215 -3 c7 -12 -12 -24 -25 -16 -11 7 -4 25 10 25 5 0 11 -4 15
-9z m-2407 -12 c-2 -6 -8 -10 -13 -10 -5 0 -11 4 -13 10 -2 6 4 11 13 11 9 0
15 -5 13 -11z m1597 -9 c3 -5 1 -10 -4 -10 -6 0 -11 5 -11 10 0 6 2 10 4 10 3
0 8 -4 11 -10z m-1365 -34 c-7 -7 -14 -6 -22 2 -10 10 -10 15 2 22 17 11 34
-10 20 -24z m200 -22 c0 -8 -7 -14 -15 -14 -15 0 -21 21 -9 33 10 9 24 -2 24
-19z m1385 17 c3 -5 1 -12 -5 -16 -5 -3 -10 1 -10 9 0 18 6 21 15 7z m-2770
-41 c0 -8 -10 -16 -22 -18 -22 -3 -32 16 -16 32 12 11 38 2 38 -14z m1033 -7
c-4 -22 -22 -20 -26 1 -2 10 3 16 13 16 10 0 15 -7 13 -17z m2550 -1 c2 -7 -3
-12 -12 -12 -9 0 -16 7 -16 16 0 17 22 14 28 -4z m-3044 2 c17 -7 10 -34 -9
-34 -17 0 -28 17 -20 30 7 12 8 12 29 4z m269 -9 c1 -5 -6 -11 -15 -13 -11 -2
-18 3 -18 13 0 17 30 18 33 0z m667 -11 c0 -16 -16 -19 -25 -4 -8 13 4 32 16
25 5 -4 9 -13 9 -21z m2766 -5 c9 -16 -18 -30 -33 -17 -7 6 -10 14 -7 19 7 13
31 11 40 -2z m-5266 -30 c0 -20 -24 -26 -35 -9 -4 6 -4 17 -1 25 7 20 36 7 36
-16z m2850 27 c0 -3 -4 -8 -10 -11 -5 -3 -10 -1 -10 4 0 6 5 11 10 11 6 0 10
-2 10 -4z m660 -11 c0 -8 -7 -15 -15 -15 -8 0 -15 7 -15 15 0 8 7 15 15 15 8
0 15 -7 15 -15z m90 11 c0 -11 -19 -15 -25 -6 -3 5 1 10 9 10 9 0 16 -2 16 -4z
m-270 -26 c0 -5 -5 -12 -11 -16 -14 -8 -33 11 -25 25 7 11 36 4 36 -9z m1346
-19 c-10 -16 -36 -13 -36 3 0 17 21 27 34 16 4 -5 5 -13 2 -19z m-2246 9 c0
-5 -5 -10 -11 -10 -5 0 -7 5 -4 10 3 6 8 10 11 10 2 0 4 -4 4 -10z m1930 0 c0
-5 -5 -10 -11 -10 -5 0 -7 5 -4 10 3 6 8 10 11 10 2 0 4 -4 4 -10z m-3902 -28
c3 -17 -2 -22 -17 -22 -14 0 -21 6 -21 18 0 38 33 41 38 4z m3446 9 c3 -5 -1
-12 -10 -15 -22 -9 -24 -8 -24 9 0 16 25 21 34 6z m56 1 c0 -14 -11 -21 -26
-15 -21 8 -17 23 6 23 11 0 20 -4 20 -8z m-2925 -13 c10 -14 1 -21 -19 -13 -9
3 -13 10 -10 15 7 12 21 11 29 -2z m1342 -16 c-3 -3 -11 -2 -17 2 -9 6 -9 10
1 16 14 8 27 -7 16 -18z m2453 -1 c0 -13 -12 -22 -22 -16 -10 6 -1 24 13 24 5
0 9 -4 9 -8z m-4536 -29 c-21 -22 -27 -25 -34 -13 -7 11 -3 18 13 27 37 21 47
14 21 -14z m-48 -31 c19 -13 23 -40 9 -52 -30 -25 -69 16 -45 45 14 17 20 18
36 7z m704 -11 c0 -5 -6 -13 -13 -19 -15 -13 -42 1 -33 17 8 13 46 15 46 2z
m-336 -17 c22 -21 20 -31 -6 -40 -27 -8 -54 22 -37 43 15 17 24 16 43 -3z
m3036 7 c0 -6 -4 -13 -10 -16 -5 -3 -10 1 -10 9 0 9 5 16 10 16 6 0 10 -4 10
-9z m1608 -23 c-6 -18 -28 -21 -28 -4 0 9 7 16 16 16 9 0 14 -5 12 -12z
m-4382 -9 c10 -17 -13 -36 -27 -22 -12 12 -4 33 11 33 5 0 12 -5 16 -11z
m-782 -14 c6 -17 4 -18 -18 -9 -20 8 -21 24 -2 24 8 0 16 -7 20 -15z m5263 9
c-3 -3 -12 -4 -19 -1 -8 3 -5 6 6 6 11 1 17 -2 13 -5z m-5355 -33 c-3 -16 3
-24 18 -28 31 -8 23 -48 -10 -48 -21 0 -25 6 -32 44 -4 24 -5 48 -2 53 11 17
29 1 26 -21z m601 -24 c-3 -5 -10 -4 -15 1 -6 6 -7 16 -3 22 6 9 9 9 16 -1 4
-7 5 -17 2 -22z m887 13 c0 -13 -7 -20 -20 -20 -13 0 -20 7 -20 20 0 13 7 20
20 20 13 0 20 -7 20 -20z m1920 10 c0 -5 -4 -10 -10 -10 -5 0 -10 5 -10 10 0
6 5 10 10 10 6 0 10 -4 10 -10z m-710 -9 c0 -6 -4 -13 -10 -16 -5 -3 -10 1
-10 9 0 9 5 16 10 16 6 0 10 -4 10 -9z m631 -14 c-13 -13 -26 -3 -16 12 3 6
11 8 17 5 6 -4 6 -10 -1 -17z m-2001 9 c0 -3 -4 -8 -10 -11 -5 -3 -10 -1 -10
4 0 6 5 11 10 11 6 0 10 -2 10 -4z m1608 -13 c5 -17 -26 -29 -40 -15 -6 6 -7
15 -3 22 9 14 37 9 43 -7z m1477 -4 c0 -7 -8 -15 -17 -17 -18 -3 -25 18 -11
32 10 10 28 1 28 -15z m-2505 -3 c0 -3 -4 -8 -10 -11 -5 -3 -10 -1 -10 4 0 6
5 11 10 11 6 0 10 -2 10 -4z m3045 -17 c0 -7 -8 -15 -17 -17 -18 -3 -25 18
-11 32 10 10 28 1 28 -15z m-639 -20 c10 -17 -13 -36 -27 -22 -12 12 -4 33 11
33 5 0 12 -5 16 -11z m959 1 c3 -5 -3 -10 -15 -10 -12 0 -18 5 -15 10 3 6 10
10 15 10 5 0 12 -4 15 -10z m-3415 -40 c8 -15 6 -21 -10 -30 -16 -9 -22 -8
-26 5 -4 8 -1 22 6 30 16 19 17 19 30 -5z m-422 -49 c-2 -9 -12 -16 -23 -16
-21 0 -32 33 -20 63 6 15 9 14 26 -7 11 -13 18 -31 17 -40z m2212 55 c0 -3 -4
-8 -10 -11 -5 -3 -10 -1 -10 4 0 6 5 11 10 11 6 0 10 -2 10 -4z m158 -19 c2
-10 -3 -17 -12 -17 -10 0 -16 9 -16 21 0 24 23 21 28 -4z m282 14 c0 -6 -4
-13 -10 -16 -5 -3 -10 1 -10 9 0 9 5 16 10 16 6 0 10 -4 10 -9z m-690 -21 c0
-5 -4 -10 -10 -10 -5 0 -10 5 -10 10 0 6 5 10 10 10 6 0 10 -4 10 -10z m-3015
-10 c3 -6 -1 -13 -10 -16 -19 -8 -30 0 -20 15 8 14 22 14 30 1z m2900 0 c-3
-5 -10 -10 -16 -10 -5 0 -9 5 -9 10 0 6 7 10 16 10 8 0 12 -4 9 -10z m1565 -6
c0 -8 -5 -12 -10 -9 -6 4 -8 11 -5 16 9 14 15 11 15 -7z m-1964 -21 c-3 -8 -6
-17 -6 -19 0 -2 -6 -4 -14 -4 -21 0 -30 19 -16 35 14 17 43 8 36 -12z m-2117
-19 c26 -44 26 -54 1 -54 -11 0 -20 7 -20 15 0 8 -6 15 -14 15 -20 0 -39 27
-32 45 10 27 43 17 65 -21z m3161 22 c0 -11 -19 -15 -25 -6 -3 5 1 10 9 10 9
0 16 -2 16 -4z m100 -37 c0 -12 -27 -11 -35 1 -11 17 5 32 21 19 8 -6 14 -15
14 -20z m-2733 -1 c-3 -8 -6 -5 -6 6 -1 11 2 17 5 13 3 -3 4 -12 1 -19z m1309
11 c8 -14 -11 -33 -25 -25 -11 7 -4 36 9 36 5 0 12 -5 16 -11z m1974 1 c0 -5
-4 -10 -9 -10 -6 0 -13 5 -16 10 -3 6 1 10 9 10 9 0 16 -4 16 -10z m513 3 c-7
-2 -19 -2 -25 0 -7 3 -2 5 12 5 14 0 19 -2 13 -5z m207 3 c0 -3 -4 -8 -10 -11
-5 -3 -10 -1 -10 4 0 6 5 11 10 11 6 0 10 -2 10 -4z m-1974 -17 c3 -6 15 -9
25 -6 12 3 19 0 19 -9 0 -16 -26 -19 -34 -5 -3 5 -15 7 -26 4 -19 -5 -27 7
-13 20 9 10 21 8 29 -4z m1691 -5 c-3 -3 -12 -4 -19 -1 -8 3 -5 6 6 6 11 1 17
-2 13 -5z m-1897 -12 c0 -13 -12 -22 -22 -16 -10 6 -1 24 13 24 5 0 9 -4 9 -8z
m450 -18 c0 -8 -5 -12 -10 -9 -6 4 -8 11 -5 16 9 14 15 11 15 -7z m-1660 -3
c0 -6 -4 -13 -10 -16 -5 -3 -10 1 -10 9 0 9 5 16 10 16 6 0 10 -4 10 -9z
m2450 -1 c0 -5 -4 -10 -10 -10 -5 0 -10 5 -10 10 0 6 5 10 10 10 6 0 10 -4 10
-10z m-3462 -24 c3 -13 -1 -17 -14 -14 -11 2 -20 11 -22 22 -3 13 1 17 14 14
11 -2 20 -11 22 -22z m3684 9 c0 -5 -5 -11 -11 -13 -6 -2 -11 4 -11 13 0 9 5
15 11 13 6 -2 11 -8 11 -13z m-4392 -5 c0 -5 -4 -10 -10 -10 -5 0 -10 5 -10
10 0 6 5 10 10 10 6 0 10 -4 10 -10z m-157 -25 c7 -16 -8 -29 -23 -20 -15 9
-12 35 4 35 8 0 16 -7 19 -15z m3927 11 c0 -11 -19 -15 -25 -6 -3 5 1 10 9 10
9 0 16 -2 16 -4z m-2000 -30 c0 -8 -6 -16 -12 -19 -20 -7 -37 3 -31 19 7 18
43 18 43 0z m2250 -1 c0 -8 -7 -15 -15 -15 -8 0 -15 7 -15 15 0 8 7 15 15 15
8 0 15 -7 15 -15z m740 -5 c0 -5 -7 -10 -16 -10 -8 0 -12 5 -9 10 3 6 10 10
16 10 5 0 9 -4 9 -10z m-1635 -20 c3 -5 1 -10 -4 -10 -6 0 -11 5 -11 10 0 6 2
10 4 10 3 0 8 -4 11 -10z m-2225 -15 c0 -8 -7 -15 -15 -15 -16 0 -20 12 -8 23
11 12 23 8 23 -8z m210 0 c0 -8 -7 -15 -15 -15 -16 0 -20 12 -8 23 11 12 23 8
23 -8z m230 -10 c0 -15 -26 -32 -36 -23 -2 3 -2 13 2 22 8 20 34 21 34 1z
m1395 5 c3 -5 -3 -10 -14 -10 -12 0 -21 5 -21 10 0 6 6 10 14 10 8 0 18 -4 21
-10z m925 -9 c0 -12 -20 -25 -27 -18 -7 7 6 27 18 27 5 0 9 -4 9 -9z m730 -7
c0 -8 -4 -12 -10 -9 -5 3 -10 10 -10 16 0 5 5 9 10 9 6 0 10 -7 10 -16z m698
-1 c-2 -10 -13 -19 -26 -21 -24 -4 -29 7 -10 26 18 18 40 15 36 -5z m-4958
-27 c0 -8 -4 -17 -8 -20 -13 -8 -35 11 -28 23 10 16 36 14 36 -3z m1032 -38
c-9 -9 -12 -7 -12 12 0 19 3 21 12 12 9 -9 9 -15 0 -24z m-415 6 c3 -9 0 -20
-8 -25 -21 -13 -29 -11 -29 9 0 33 26 44 37 16z m2308 -20 c0 -10 -8 -20 -17
-22 -18 -3 -26 27 -11 42 12 11 28 0 28 -20z m-3075 -13 c0 -16 -7 -35 -16
-42 -14 -11 -18 -10 -30 6 -18 25 -18 35 4 51 28 21 42 16 42 -15z m360 14 c0
-9 -6 -12 -15 -9 -8 4 -15 10 -15 15 0 5 7 9 15 9 8 0 15 -7 15 -15z m500 -10
c0 -17 -31 -28 -43 -16 -7 7 -6 15 2 25 14 17 41 11 41 -9z m64 17 c2 -4 -7
-12 -20 -19 -26 -12 -32 -5 -12 15 14 14 25 15 32 4z m1962 -13 c8 -14 -11
-33 -25 -25 -11 7 -4 36 9 36 5 0 12 -5 16 -11z m1894 -9 c0 -5 -4 -10 -10
-10 -5 0 -10 5 -10 10 0 6 5 10 10 10 6 0 10 -4 10 -10z m-3536 -21 c-3 -5
-10 -7 -15 -3 -5 3 -7 10 -3 15 3 5 10 7 15 3 5 -3 7 -10 3 -15z m569 6 c1 -5
-6 -11 -15 -13 -11 -2 -18 3 -18 13 0 17 30 18 33 0z m2454 -11 c-3 -4 -14 -3
-24 0 -15 6 -15 8 -3 16 16 10 39 -4 27 -16z m650 10 c-3 -3 -12 -4 -19 -1 -8
3 -5 6 6 6 11 1 17 -2 13 -5z m-3189 -26 c-3 -7 -11 -13 -18 -13 -7 0 -15 6
-17 13 -3 7 4 12 17 12 13 0 20 -5 18 -12z m1045 -24 c-7 -18 -43 -18 -43 0 0
8 6 16 13 19 19 7 36 -3 30 -19z m1797 -4 c0 -5 -9 -10 -21 -10 -11 0 -17 5
-14 10 3 6 13 10 21 10 8 0 14 -4 14 -10z m-4540 -26 c0 -8 -5 -12 -10 -9 -6
4 -8 11 -5 16 9 14 15 11 15 -7z m1630 -9 c0 -19 -20 -29 -32 -17 -15 15 -2
43 17 36 8 -3 15 -12 15 -19z m-560 -5 c0 -13 -7 -20 -20 -20 -23 0 -26 10 -8
28 18 18 28 15 28 -8z m-706 -5 c3 -9 -1 -18 -10 -22 -19 -7 -39 11 -30 26 10
16 33 13 40 -4z m254 -8 c2 -10 -3 -17 -12 -17 -10 0 -16 9 -16 21 0 24 23 21
28 -4z m3252 9 c0 -8 -4 -17 -9 -21 -12 -7 -24 12 -16 25 9 15 25 12 25 -4z
m-3905 -16 c0 -19 -35 -26 -46 -9 -4 7 -5 17 -2 22 8 14 48 3 48 -13z m1349 1
c3 -5 -1 -14 -9 -21 -13 -10 -15 -9 -15 9 0 21 14 28 24 12z m486 -6 c0 -8 -7
-15 -15 -15 -9 0 -12 6 -9 15 4 8 10 15 15 15 5 0 9 -7 9 -15z m658 3 c-3 -7
-11 -13 -18 -13 -7 0 -15 6 -17 13 -3 7 4 12 17 12 13 0 20 -5 18 -12z m2192
3 c0 -5 -7 -12 -16 -15 -22 -9 -24 -8 -24 9 0 8 9 15 20 15 11 0 20 -4 20 -9z
m320 -1 c0 -5 -4 -10 -10 -10 -5 0 -10 5 -10 10 0 6 5 10 10 10 6 0 10 -4 10
-10z m-3720 -10 c0 -5 -4 -10 -10 -10 -5 0 -10 5 -10 10 0 6 5 10 10 10 6 0
10 -4 10 -10z m3094 -11 c-3 -5 -10 -7 -15 -3 -5 3 -7 10 -3 15 3 5 10 7 15 3
5 -3 7 -10 3 -15z m-734 7 c0 -2 -7 -9 -15 -16 -12 -10 -15 -10 -15 4 0 9 7
16 15 16 8 0 15 -2 15 -4z m1277 -2 c-3 -3 -12 -4 -19 -1 -8 3 -5 6 6 6 11 1
17 -2 13 -5z m244 -28 c-27 -12 -38 -1 -21 19 10 12 16 13 27 3 13 -11 12 -14
-6 -22z m-1724 -11 c-7 -17 -34 -31 -44 -22 -3 4 2 18 12 33 18 28 43 20 32
-11z m-1007 15 c0 -5 -2 -10 -4 -10 -3 0 -8 5 -11 10 -3 6 -1 10 4 10 6 0 11
-4 11 -10z m2196 -1 c9 -15 -11 -33 -30 -26 -9 4 -13 13 -10 22 7 17 30 20 40
4z m-2092 -8 c3 -5 -1 -14 -9 -21 -13 -10 -15 -9 -15 9 0 21 14 28 24 12z
m600 1 c8 -13 -11 -35 -23 -28 -16 10 -14 36 3 36 8 0 17 -4 20 -8z m1216 -26
c-14 -14 -24 0 -16 21 6 15 8 15 16 3 6 -9 5 -19 0 -24z m-4390 -17 c0 -10 -6
-19 -13 -19 -22 0 -27 11 -16 32 12 22 29 15 29 -13z m2383 -27 c-5 -32 -6
-32 -24 -16 -23 21 -24 28 -3 49 22 22 33 8 27 -33z m79 33 c0 -5 -5 -11 -11
-13 -6 -2 -11 4 -11 13 0 9 5 15 11 13 6 -2 11 -8 11 -13z m1533 5 c3 -5 1
-10 -4 -10 -6 0 -11 5 -11 10 0 6 2 10 4 10 3 0 8 -4 11 -10z m-3478 -16 c8
-21 -13 -64 -31 -64 -21 0 -24 11 -14 48 9 34 34 43 45 16z m4372 -16 c-17
-14 -25 -16 -28 -7 -5 15 28 41 42 32 6 -4 0 -14 -14 -25z m-4139 3 c0 -5 -6
-14 -14 -20 -16 -13 -32 2 -21 19 8 12 35 13 35 1z m715 -32 c-5 -7 -11 -6
-21 2 -11 9 -12 15 -2 26 10 12 13 12 20 -1 5 -9 6 -21 3 -27z m260 16 c0 -13
-8 -21 -22 -23 -17 -3 -23 2 -23 16 0 10 3 22 7 26 13 13 38 1 38 -19z m234
12 c6 -8 8 -17 4 -20 -7 -8 -33 11 -33 24 0 13 16 11 29 -4z m-1856 -23 c-7
-18 -33 -18 -33 -1 0 19 10 27 25 20 8 -2 11 -11 8 -19z m2857 1 c0 -8 -4 -15
-10 -15 -5 0 -10 7 -10 15 0 8 5 15 10 15 6 0 10 -7 10 -15z m70 0 c-7 -8 -19
-15 -26 -15 -8 0 -11 6 -8 15 4 8 15 15 26 15 17 0 18 -3 8 -15z m2150 -4 c0
-5 -7 -14 -15 -21 -12 -10 -19 -10 -28 -1 -9 9 -9 14 3 21 19 12 40 13 40 1z
m-4936 -18 c8 -19 -17 -48 -33 -39 -12 8 -15 39 -4 49 12 12 31 7 37 -10z
m1014 -15 c2 -9 -4 -18 -13 -21 -11 -5 -15 0 -15 19 0 28 23 29 28 2z m952 6
c0 -8 -5 -12 -10 -9 -6 4 -8 11 -5 16 9 14 15 11 15 -7z m-1192 -12 c2 -7 -3
-12 -12 -12 -9 0 -16 7 -16 16 0 17 22 14 28 -4z m592 3 c0 -8 -7 -15 -15 -15
-8 0 -15 7 -15 15 0 8 7 15 15 15 8 0 15 -7 15 -15z m-717 -30 c7 -16 -8 -29
-23 -20 -15 9 -12 35 4 35 8 0 16 -7 19 -15z m1907 -6 c0 -25 -33 -22 -38 4
-2 12 3 17 17 17 15 0 21 -6 21 -21z m-1640 -14 c0 -13 -29 -35 -44 -35 -14 0
-4 40 11 49 20 11 33 6 33 -14z m-1262 -14 c-5 -24 -38 -27 -38 -3 0 10 3 21
6 25 11 11 35 -5 32 -22z m277 -6 c0 -22 -31 -33 -47 -17 -17 17 -1 44 24 40
15 -2 23 -10 23 -23z m355 -10 c0 -8 -6 -15 -14 -15 -17 0 -28 14 -19 24 12
12 33 6 33 -9z m128 -17 c-2 -15 -10 -23 -23 -23 -13 0 -21 8 -23 23 -3 18 1
22 23 22 22 0 26 -4 23 -22z m238 -19 c3 -6 1 -16 -5 -22 -6 -6 -11 -20 -11
-30 0 -20 -43 -67 -61 -67 -5 0 -22 11 -37 25 -24 23 -25 26 -10 41 13 13 20
14 37 4 26 -13 51 1 51 30 0 28 22 41 36 19z m254 -64 c0 -7 -7 -16 -15 -19
-18 -7 -30 16 -21 40 5 13 9 14 21 4 8 -7 15 -18 15 -25z m160 15 c0 -11 -6
-20 -13 -20 -19 0 -27 10 -20 26 8 21 33 17 33 -6z m-1214 -22 c9 -15 -27 -41
-39 -29 -13 13 -1 41 17 41 8 0 18 -5 22 -12z m2462 -16 c2 -7 -3 -12 -12 -12
-9 0 -16 7 -16 16 0 17 22 14 28 -4z m-2363 -11 c-3 -6 -11 -8 -17 -5 -6 4 -5
9 3 15 16 10 23 4 14 -10z m1065 -21 c0 -21 -24 -28 -35 -10 -8 14 3 30 21 30
8 0 14 -9 14 -20z m176 -11 c10 -17 -23 -46 -37 -32 -7 7 -9 19 -6 27 7 18 33
21 43 5z m810 -16 c-10 -10 -19 5 -10 18 6 11 8 11 12 0 2 -7 1 -15 -2 -18z
m-1676 -13 c0 -5 -4 -10 -10 -10 -5 0 -10 5 -10 10 0 6 5 10 10 10 6 0 10 -4
10 -10z m-650 -14 c0 -18 -17 -29 -30 -21 -8 5 -7 11 1 21 15 18 29 18 29 0z
m1205 -16 c0 -18 -6 -26 -23 -28 -27 -4 -40 22 -22 44 19 22 45 13 45 -16z
m519 11 c3 -4 -1 -17 -9 -27 -10 -15 -16 -16 -26 -7 -6 6 -9 19 -6 27 7 17 32
22 41 7z m326 -26 c0 -8 -4 -15 -9 -15 -13 0 -22 16 -14 24 11 11 23 6 23 -9z
m640 -15 c0 -5 -4 -10 -10 -10 -5 0 -10 5 -10 10 0 6 5 10 10 10 6 0 10 -4 10
-10z m-2725 -42 c-10 -46 -24 -61 -41 -47 -20 16 -17 30 9 56 31 31 40 28 32
-9z m1240 -8 c10 -16 -16 -43 -28 -31 -11 11 -2 41 12 41 5 0 13 -5 16 -10z
m395 -10 c0 -11 -4 -20 -9 -20 -13 0 -32 26 -24 33 13 14 33 6 33 -13z m292
-42 c-9 -9 -15 -9 -24 0 -10 10 -10 15 2 22 9 6 19 5 24 0 7 -7 6 -14 -2 -22z
m-1832 12 c0 -5 7 -10 15 -10 15 0 20 -21 8 -33 -7 -8 -53 31 -53 45 0 4 7 8
15 8 8 0 15 -4 15 -10z m660 -25 c0 -8 -6 -15 -14 -15 -17 0 -28 14 -19 24 12
12 33 6 33 -9z m-550 -18 c0 -19 -37 -50 -49 -42 -17 10 -13 33 7 44 24 15 42
13 42 -2z m365 3 c6 -9 -17 -40 -29 -40 -8 0 -7 35 1 43 9 10 21 9 28 -3z
m219 -21 c-3 -5 -10 -7 -15 -3 -5 3 -7 10 -3 15 3 5 10 7 15 3 5 -3 7 -10 3
-15z m1623 5 c-3 -3 -12 -4 -19 -1 -8 3 -5 6 6 6 11 1 17 -2 13 -5z m-497 -25
c0 -5 -4 -9 -10 -9 -5 0 -10 7 -10 16 0 8 5 12 10 9 6 -3 10 -10 10 -16z
m-1217 -6 c4 -3 -4 -14 -18 -24 -25 -20 -45 -18 -45 5 0 29 28 38 63 19z
m-268 -18 c0 -13 -8 -21 -22 -23 -17 -3 -23 2 -23 16 0 10 3 22 7 26 13 13 38
1 38 -19z m1051 14 c10 -16 -18 -40 -35 -29 -12 7 -12 11 -2 24 16 19 27 20
37 5z m926 -51 c-15 -15 -26 -4 -18 18 5 13 9 15 18 6 9 -9 9 -15 0 -24z
m-955 -42 c-9 -22 -47 -21 -47 2 0 10 5 23 12 30 16 16 43 -10 35 -32z m333
25 c0 -6 -4 -13 -10 -16 -5 -3 -10 1 -10 9 0 9 5 16 10 16 6 0 10 -4 10 -9z
m-1450 -22 c0 -5 -7 -9 -15 -9 -16 0 -31 -43 -20 -59 10 -18 -4 -12 -25 9 -26
26 -25 31 13 56 32 21 47 22 47 3z m474 -30 c-3 -5 -10 -7 -15 -3 -5 3 -7 10
-3 15 3 5 10 7 15 3 5 -3 7 -10 3 -15z m-254 7 c0 -3 -4 -8 -10 -11 -5 -3 -10
-1 -10 4 0 6 5 11 10 11 6 0 10 -2 10 -4z m518 -23 c-4 -22 -38 -30 -38 -10 0
14 13 24 33 26 5 1 7 -7 5 -16z m592 -3 c0 -11 -6 -20 -14 -20 -18 0 -29 16
-21 30 11 18 35 11 35 -10z m355 0 c0 -7 -6 -15 -12 -17 -8 -3 -13 4 -13 17 0
13 5 20 13 18 6 -3 12 -11 12 -18z m-525 -14 c0 -3 -4 -8 -10 -11 -5 -3 -10
-1 -10 4 0 6 5 11 10 11 6 0 10 -2 10 -4z m-1033 -40 c-8 -19 -37 -21 -37 -3
0 7 5 18 12 25 15 15 33 -1 25 -22z m1413 20 c0 -18 -16 -29 -30 -21 -13 8 -1
35 16 35 8 0 14 -6 14 -14z m570 -27 c0 -5 -7 -9 -15 -9 -15 0 -20 12 -9 23 8
8 24 -1 24 -14z m-1772 -6 c-2 -10 -10 -18 -18 -18 -8 0 -16 8 -18 18 -2 12 3
17 18 17 15 0 20 -5 18 -17z m1616 1 c9 -23 1 -28 -24 -14 -18 10 -20 14 -9
21 20 12 26 11 33 -7z m-1684 -34 c0 -5 -5 -12 -11 -16 -14 -8 -33 11 -25 25
7 11 36 4 36 -9z m1207 14 c-3 -3 -12 -4 -19 -1 -8 3 -5 6 6 6 11 1 17 -2 13
-5z m-977 -24 c-8 -5 -17 -7 -19 -4 -3 3 1 9 9 14 8 5 17 7 19 4 3 -3 -1 -9
-9 -14z m690 16 c0 -2 -3 -11 -6 -20 -9 -23 -34 -20 -34 4 0 13 7 20 20 20 11
0 20 -2 20 -4z m-735 -36 c-3 -5 -11 -10 -16 -10 -6 0 -7 5 -4 10 3 6 11 10
16 10 6 0 7 -4 4 -10z m1800 -40 c-9 -15 -35 -12 -35 3 0 7 5 18 12 25 9 9 14
9 21 -3 4 -8 5 -20 2 -25z m178 24 c9 -10 -4 -34 -19 -34 -8 0 -14 9 -14 20 0
19 19 27 33 14z m-123 -22 c0 -13 -12 -22 -22 -16 -10 6 -1 24 13 24 5 0 9 -4
9 -8z m-810 -27 c0 -16 -27 -28 -35 -15 -3 4 -2 15 1 23 7 18 34 11 34 -8z
m168 13 c-6 -18 -28 -21 -28 -4 0 9 7 16 16 16 9 0 14 -5 12 -12z m-1026 -50
c-15 -15 -26 -4 -18 18 5 13 9 15 18 6 9 -9 9 -15 0 -24z m1608 2 c0 -5 -4
-10 -10 -10 -5 0 -10 5 -10 10 0 6 5 10 10 10 6 0 10 -4 10 -10z m-66 -19 c7
-11 -3 -41 -14 -41 -11 0 -21 30 -14 41 3 5 9 9 14 9 5 0 11 -4 14 -9z m-1189
-26 c0 -10 -6 -20 -12 -22 -8 -3 -13 5 -13 22 0 17 5 25 13 23 6 -3 12 -13 12
-23z m-1189 -12 c-10 -10 -19 5 -10 18 6 11 8 11 12 0 2 -7 1 -15 -2 -18z
m1955 -54 c-24 -22 -37 -20 -28 6 4 8 16 15 29 15 l22 0 -23 -21z m659 -4 c0
-8 -4 -15 -9 -15 -13 0 -22 16 -14 24 11 11 23 6 23 -9z m-1970 1 c0 -3 -4 -8
-10 -11 -5 -3 -10 -1 -10 4 0 6 5 11 10 11 6 0 10 -2 10 -4z m890 -27 c0 -5
-4 -9 -10 -9 -5 0 -10 7 -10 16 0 8 5 12 10 9 6 -3 10 -10 10 -16z m170 1 c0
-5 -5 -10 -11 -10 -5 0 -7 5 -4 10 3 6 8 10 11 10 2 0 4 -4 4 -10z m650 -4 c0
-20 -26 -40 -35 -26 -10 16 2 40 20 40 8 0 15 -6 15 -14z m-2382 -39 c4 -21
-27 -35 -38 -17 -12 19 0 42 19 38 9 -2 17 -11 19 -21z m746 -8 c12 -21 15
-34 8 -41 -16 -16 -29 -1 -34 37 -5 43 2 44 26 4z m-258 -1 c-10 -6 -20 -7
-24 -3 -9 8 20 25 31 18 5 -3 2 -10 -7 -15z m1007 -4 c-3 -8 -9 -14 -13 -14
-13 0 -22 19 -15 30 9 14 34 0 28 -16z m285 3 c2 -12 -3 -17 -17 -17 -12 0
-21 6 -21 13 0 31 32 34 38 4z m252 -2 c0 -8 -4 -15 -10 -15 -5 0 -10 7 -10
15 0 8 5 15 10 15 6 0 10 -7 10 -15z m1230 -25 c0 -13 -7 -20 -20 -20 -19 0
-27 20 -13 33 13 14 33 6 33 -13z m380 -2 c0 -16 -3 -19 -11 -11 -6 6 -8 16
-5 22 11 17 16 13 16 -11z m-2551 -9 c11 -18 11 -23 -1 -30 -27 -17 -43 -2
-33 31 8 26 17 25 34 -1z m2061 -60 c0 -5 -7 -6 -15 -3 -14 6 -55 68 -55 82 1
10 70 -69 70 -79z m-2462 53 c2 -7 -3 -12 -12 -12 -9 0 -16 7 -16 16 0 17 22
14 28 -4z m1492 9 c0 -12 -20 -25 -27 -18 -7 7 6 27 18 27 5 0 9 -4 9 -9z
m1289 -18 c-8 -9 -16 -10 -22 -4 -13 13 0 31 19 24 11 -4 12 -8 3 -20z m-1971
-6 c2 -10 -3 -17 -12 -17 -10 0 -16 9 -16 21 0 24 23 21 28 -4z m3412 19 c0
-3 -4 -8 -10 -11 -5 -3 -10 -1 -10 4 0 6 5 11 10 11 6 0 10 -2 10 -4z m-2440
-31 c0 -8 -2 -15 -4 -15 -2 0 -6 7 -10 15 -3 8 -1 15 4 15 6 0 10 -7 10 -15z
m-326 -16 c-3 -5 -10 -7 -15 -3 -5 3 -7 10 -3 15 3 5 10 7 15 3 5 -3 7 -10 3
-15z m856 -8 c0 -10 -7 -21 -15 -25 -15 -5 -22 24 -8 37 12 13 23 7 23 -12z
m1960 -21 c0 -5 -7 -10 -15 -10 -8 0 -15 5 -15 10 0 6 7 10 15 10 8 0 15 -4
15 -10z m-4690 -16 c0 -14 -3 -14 -15 -4 -8 7 -15 14 -15 16 0 2 7 4 15 4 8 0
15 -7 15 -16z m862 -16 c-9 -9 -15 -9 -24 0 -10 10 -10 15 2 22 20 12 38 -6
22 -22z m2060 -12 c11 -20 10 -20 -13 -5 -13 9 -26 25 -28 35 -3 16 -1 17 13
5 10 -8 22 -24 28 -35z m-1644 16 c2 -7 -4 -15 -13 -18 -20 -8 -27 -1 -19 20
7 18 25 17 32 -2z m-1630 -14 c-4 -27 -23 -34 -32 -13 -8 21 1 35 20 35 10 0
14 -8 12 -22z m3509 6 c8 -20 -8 -36 -26 -25 -15 10 -8 41 9 41 6 0 13 -7 17
-16z m-387 -3 c0 -5 -7 -11 -15 -15 -9 -3 -15 0 -15 9 0 8 7 15 15 15 8 0 15
-4 15 -9z m330 -11 c0 -5 -4 -10 -10 -10 -5 0 -10 5 -10 10 0 6 5 10 10 10 6
0 10 -4 10 -10z m1040 -11 c0 -12 -29 -24 -37 -16 -3 4 -3 13 0 21 6 16 37 11
37 -5z m-2130 1 c0 -5 -4 -10 -10 -10 -5 0 -10 5 -10 10 0 6 5 10 10 10 6 0
10 -4 10 -10z m587 -16 c-3 -3 -12 -4 -19 -1 -8 3 -5 6 6 6 11 1 17 -2 13 -5z
m-1627 -29 c0 -8 -7 -15 -15 -15 -16 0 -20 12 -8 23 11 12 23 8 23 -8z m2875
6 c3 -5 1 -12 -5 -16 -5 -3 -10 1 -10 9 0 18 6 21 15 7z m-855 -32 c0 -14 -17
-10 -23 5 -4 10 -1 13 9 9 7 -3 14 -9 14 -14z m-305 1 c3 -5 1 -10 -4 -10 -6
0 -11 5 -11 10 0 6 2 10 4 10 3 0 8 -4 11 -10z m785 -15 c0 -16 -34 -38 -43
-28 -10 9 12 43 28 43 8 0 15 -7 15 -15z m-3255 -5 c-3 -5 -10 -10 -16 -10 -5
0 -9 5 -9 10 0 6 7 10 16 10 8 0 12 -4 9 -10z m1875 -6 c0 -9 -5 -14 -12 -12
-18 6 -21 28 -4 28 9 0 16 -7 16 -16z m1134 8 c2 -4 1 -14 -4 -21 -11 -19 -41
-6 -34 14 6 16 29 20 38 7z m386 -8 c0 -8 -5 -12 -10 -9 -6 4 -8 11 -5 16 9
14 15 11 15 -7z m-1665 -24 c-5 -8 -11 -8 -17 -2 -6 6 -7 16 -3 22 5 8 11 8
17 2 6 -6 7 -16 3 -22z m-1155 5 c0 -9 -6 -12 -15 -9 -8 4 -12 10 -9 15 8 14
24 10 24 -6z m275 -3 c0 -18 -20 -15 -23 4 -3 10 1 15 10 12 7 -3 13 -10 13
-16z m1265 4 c0 -18 -17 -29 -30 -21 -8 5 -7 11 1 21 15 18 29 18 29 0z m2000
-1 c0 -8 -4 -15 -10 -15 -5 0 -10 7 -10 15 0 8 5 15 10 15 6 0 10 -7 10 -15z
m-3860 -9 c0 -3 -4 -8 -10 -11 -5 -3 -10 -1 -10 4 0 6 5 11 10 11 6 0 10 -2
10 -4z m3200 0 c0 -11 -19 -15 -25 -6 -3 5 1 10 9 10 9 0 16 -2 16 -4z m-2675
-28 c15 -6 11 -7 -14 -3 -18 3 -44 5 -58 5 -13 0 -21 4 -18 10 6 10 55 3 90
-12z m1065 -4 c0 -8 -4 -14 -10 -14 -5 0 -10 9 -10 21 0 11 5 17 10 14 6 -3
10 -13 10 -21z m2183 20 c3 -4 1 -16 -5 -27 -9 -18 -11 -19 -20 -4 -13 25 6
49 25 31z m-4383 -19 c0 -8 -4 -15 -10 -15 -5 0 -10 7 -10 15 0 8 5 15 10 15
6 0 10 -7 10 -15z m77 -7 c-3 -8 -6 -5 -6 6 -1 11 2 17 5 13 3 -3 4 -12 1 -19z
m4533 7 c0 -8 -7 -15 -15 -15 -8 0 -15 7 -15 15 0 8 7 15 15 15 8 0 15 -7 15
-15z m-1260 -9 c0 -18 -30 -30 -43 -17 -5 5 -6 14 -3 20 10 16 46 13 46 -3z
m-2680 -9 c0 -7 10 -18 21 -25 16 -11 19 -16 9 -25 -9 -9 -17 -5 -36 16 -13
16 -22 33 -19 38 9 13 25 11 25 -4z m597 -2 c19 -8 50 -15 67 -15 36 -1 96
-29 61 -29 -34 -1 -189 34 -210 46 -18 11 -17 12 13 13 18 0 49 -7 69 -15z
m3423 6 c0 -12 -20 -25 -27 -18 -7 7 6 27 18 27 5 0 9 -4 9 -9z m-743 -22 c2
-8 -1 -21 -7 -29 -8 -13 -11 -13 -26 2 -15 14 -15 20 -4 33 15 18 34 15 37 -6z
m-1022 1 c3 -5 -3 -10 -15 -10 -12 0 -18 5 -15 10 3 6 10 10 15 10 5 0 12 -4
15 -10z m805 0 c0 -5 -7 -10 -15 -10 -8 0 -15 5 -15 10 0 6 7 10 15 10 8 0 15
-4 15 -10z m287 -6 c5 -17 -15 -37 -31 -31 -14 5 -15 11 -6 27 11 21 31 23 37
4z m-3397 -14 c0 -11 -6 -20 -13 -20 -19 0 -27 10 -20 26 8 21 33 17 33 -6z
m2343 14 c9 -9 -4 -35 -14 -28 -5 3 -9 12 -9 20 0 14 12 19 23 8z m-2065 -38
c-3 -24 -38 -36 -38 -13 0 8 -9 17 -21 20 -34 9 -14 24 26 19 30 -4 36 -8 33
-26z m-918 10 c0 -20 -26 -40 -35 -26 -10 16 2 40 20 40 8 0 15 -6 15 -14z
m1555 -3 c63 -8 61 -32 -2 -25 -27 2 -58 9 -70 13 -32 12 -30 33 2 25 14 -4
45 -9 70 -13z m-260 -22 c7 -12 -12 -24 -25 -16 -11 7 -4 25 10 25 5 0 11 -4
15 -9z m-585 -26 c0 -20 -5 -25 -25 -25 -27 0 -33 18 -13 38 20 20 38 14 38
-13z m130 1 c0 -28 -26 -42 -34 -20 -11 29 -6 44 14 44 14 0 20 -7 20 -24z
m835 13 c12 -18 -1 -20 -31 -4 l-29 15 27 0 c15 0 30 -5 33 -11z m-635 -9 c0
-5 -4 -10 -10 -10 -5 0 -10 5 -10 10 0 6 5 10 10 10 6 0 10 -4 10 -10z m830
-29 c23 -9 23 -10 4 -10 -32 -1 -164 30 -164 39 0 8 122 -14 160 -29z m-529
14 c-1 -15 -24 -12 -29 3 -3 9 2 13 12 10 10 -1 17 -7 17 -13z m-1116 -15 c3
-5 1 -10 -4 -10 -6 0 -11 5 -11 10 0 6 2 10 4 10 3 0 8 -4 11 -10z m1799 -26
c16 -8 48 -14 70 -15 23 0 57 -7 76 -14 l35 -13 -44 -1 c-24 -1 -60 3 -80 8
-20 5 -62 15 -94 22 -32 7 -66 18 -75 26 -15 12 -10 13 33 7 28 -3 63 -12 79
-20z m-854 1 c0 -8 -4 -15 -10 -15 -5 0 -10 7 -10 15 0 8 5 15 10 15 6 0 10
-7 10 -15z m240 -15 c0 -24 -22 -41 -40 -30 -11 7 -12 14 -2 34 13 29 42 26
42 -4z m-486 5 c11 -8 16 -21 12 -30 -5 -14 -8 -14 -31 1 -26 17 -34 44 -12
44 6 0 20 -7 31 -15z m600 7 c2 -4 1 -14 -4 -21 -11 -19 -41 -6 -34 14 6 16
29 20 38 7z m1206 -2 c0 -5 -2 -10 -4 -10 -3 0 -8 5 -11 10 -3 6 -1 10 4 10 6
0 11 -4 11 -10z m-1670 -16 c0 -8 -5 -12 -10 -9 -6 4 -8 11 -5 16 9 14 15 11
15 -7z m-570 -14 c0 -5 -5 -10 -11 -10 -5 0 -7 5 -4 10 3 6 8 10 11 10 2 0 4
-4 4 -10z m1775 -20 c4 -6 -5 -10 -19 -10 -14 0 -26 5 -26 10 0 6 9 10 19 10
11 0 23 -4 26 -10z m114 -26 c10 -9 -65 -3 -79 6 -13 9 -13 11 -1 19 13 8 60
-7 80 -25z m-2399 11 c0 -8 -7 -15 -15 -15 -8 0 -15 7 -15 15 0 8 7 15 15 15
8 0 15 -7 15 -15z m565 -25 c0 -20 -5 -25 -23 -24 -16 0 -21 -4 -17 -13 8 -22
-13 -53 -36 -53 -45 0 -36 68 13 98 42 26 63 24 63 -8z m115 -15 c0 -18 -5
-25 -20 -25 -17 0 -18 3 -8 25 6 14 15 25 20 25 4 0 8 -11 8 -25z m640 15 c0
-5 -7 -10 -15 -10 -8 0 -15 5 -15 10 0 6 7 10 15 10 8 0 15 -4 15 -10z m-1110
-31 c0 -5 -4 -9 -10 -9 -5 0 -10 7 -10 16 0 8 5 12 10 9 6 -3 10 -10 10 -16z
m705 1 c3 -6 -4 -10 -17 -10 -18 0 -20 2 -8 10 19 12 18 12 25 0z m1343 -18
c2 -7 -5 -12 -17 -12 -14 0 -19 5 -14 15 6 17 25 15 31 -3z m-2020 -25 c3 -22
-1 -27 -17 -27 -15 0 -21 6 -21 23 0 46 33 49 38 4z m2132 19 c0 -3 -4 -8 -10
-11 -5 -3 -10 -1 -10 4 0 6 5 11 10 11 6 0 10 -2 10 -4z m-1095 -26 c8 -24 -1
-40 -21 -40 -17 0 -28 24 -20 45 8 22 34 18 41 -5z m1258 6 c7 -18 -3 -56 -15
-56 -5 0 -6 5 -2 11 3 6 1 15 -6 19 -14 9 -7 40 9 40 5 0 11 -6 14 -14z
m-2733 -6 c0 -5 -4 -10 -10 -10 -5 0 -10 5 -10 10 0 6 5 10 10 10 6 0 10 -4
10 -10z m1663 -11 c3 -13 0 -22 -10 -26 -17 -7 -34 14 -26 34 8 20 30 16 36
-8z m970 -4 c7 -16 -8 -29 -23 -20 -10 6 -2 35 10 35 4 0 10 -7 13 -15z
m-1483 -15 c0 -13 -7 -20 -19 -20 -14 0 -18 5 -14 20 3 11 12 20 19 20 8 0 14
-9 14 -20z m-290 0 c0 -5 -5 -10 -11 -10 -5 0 -7 5 -4 10 3 6 8 10 11 10 2 0
4 -4 4 -10z m440 0 c0 -5 -4 -10 -10 -10 -5 0 -10 5 -10 10 0 6 5 10 10 10 6
0 10 -4 10 -10z m610 -10 c0 -5 -4 -10 -10 -10 -5 0 -10 5 -10 10 0 6 5 10 10
10 6 0 10 -4 10 -10z m-554 -21 c8 -14 -21 -43 -35 -35 -8 5 -8 13 -1 27 12
21 25 25 36 8z"/>
</g>
</svg>
