<?xml version="1.0" standalone="no"?>
<!DOCTYPE svg PUBLIC "-//W3C//DTD SVG 20010904//EN"
 "http://www.w3.org/TR/2001/REC-SVG-20010904/DTD/svg10.dtd">
<svg version="1.0" xmlns="http://www.w3.org/2000/svg"
 width="142.000000pt" height="146.000000pt" viewBox="0 0 142.000000 146.000000"
 preserveAspectRatio="xMidYMid meet">

<g transform="translate(0.000000,146.000000) scale(0.100000,-0.100000)"
fill="#000000" stroke="none">
<path d="M0 730 l0 -730 710 0 710 0 0 730 0 730 -710 0 -710 0 0 -730z m814
504 c33 -9 83 -27 110 -40 l50 -25 79 21 c43 12 83 20 88 18 6 -2 -24 -38 -67
-80 -78 -76 -79 -77 -67 -109 10 -25 9 -38 -2 -64 -18 -45 -47 -59 -106 -52
l-48 6 -135 -130 c-132 -127 -136 -130 -158 -115 -12 9 -33 16 -45 16 -19 0
-23 -5 -23 -34 0 -27 -8 -41 -41 -71 -40 -36 -44 -37 -99 -32 -55 5 -127 33
-162 65 -29 24 -25 199 5 289 57 167 189 290 363 338 68 18 184 18 258 -1z
m347 -288 c88 -188 50 -418 -95 -567 -56 -58 -122 -102 -195 -130 -67 -26
-254 -39 -299 -20 -51 21 -113 190 -91 248 17 45 59 83 91 83 16 0 54 16 84
36 31 19 61 33 67 31 7 -2 17 -25 22 -52 6 -27 15 -50 21 -52 5 -2 47 58 93
132 47 74 106 159 133 188 27 28 65 78 85 110 20 31 40 57 45 57 5 0 22 -29
39 -64z"/>
<path d="M872 1044 c-35 -24 -31 -86 7 -113 39 -28 57 -26 92 8 34 35 36 59 8
95 -24 30 -72 35 -107 10z"/>
<path d="M669 960 c-29 -21 -130 -85 -201 -127 -27 -16 -47 -32 -45 -37 3 -9
95 -35 128 -36 10 0 48 44 93 106 42 58 76 107 76 110 0 10 -27 2 -51 -16z"/>
</g>
</svg>
