<?xml version="1.0" standalone="no"?>
<!DOCTYPE svg PUBLIC "-//W3C//DTD SVG 20010904//EN"
 "http://www.w3.org/TR/2001/REC-SVG-20010904/DTD/svg10.dtd">
<svg version="1.0" xmlns="http://www.w3.org/2000/svg"
 width="552.000000pt" height="526.000000pt" viewBox="0 0 552.000000 526.000000"
 preserveAspectRatio="xMidYMid meet">

<g transform="translate(0.000000,526.000000) scale(0.100000,-0.100000)"
fill="#000000" stroke="none">
<path d="M2760 3974 c-82 -14 -182 -40 -227 -60 l-52 -23 -26 30 c-14 17 -25
35 -25 40 0 18 -30 9 -112 -34 -164 -86 -314 -186 -443 -297 -73 -62 -250
-244 -307 -315 -61 -76 -208 -293 -208 -306 0 -9 -59 -110 -70 -119 -3 -3 -24
-27 -45 -55 -22 -27 -47 -56 -55 -65 -39 -42 -70 -85 -67 -95 2 -5 17 -11 33
-13 16 -1 74 -9 129 -16 55 -8 154 -22 220 -31 122 -16 231 -32 273 -41 12 -2
27 -16 32 -29 9 -23 15 -25 75 -25 61 0 74 5 212 74 127 64 157 75 210 78 48
3 64 1 68 -10 3 -8 4 -16 3 -17 -13 -9 -137 -75 -249 -132 -134 -70 -136 -70
-250 -81 -111 -11 -308 -23 -689 -43 -102 -5 -226 -14 -277 -19 -51 -6 -124
-10 -163 -10 -82 0 -95 -13 -66 -64 10 -17 37 -67 61 -111 23 -44 61 -116 85
-160 42 -78 82 -154 176 -332 26 -49 59 -110 74 -138 15 -27 52 -97 82 -155
95 -182 119 -225 135 -237 14 -10 34 -3 122 44 58 31 155 81 214 112 99 50
116 63 195 151 106 116 190 201 217 217 20 13 121 79 445 291 242 159 412 270
430 282 8 6 44 29 80 53 86 56 126 110 135 182 10 80 -1 131 -46 213 -44 80
-90 120 -160 141 -64 19 -74 25 -77 53 -5 40 17 50 79 37 108 -23 192 -98 259
-233 33 -64 35 -75 35 -165 0 -86 -3 -101 -28 -146 -15 -27 -39 -62 -52 -78
-22 -25 -181 -133 -500 -342 -596 -389 -596 -389 -655 -457 -175 -201 -187
-210 -359 -299 -68 -35 -125 -69 -128 -75 -2 -7 21 -61 53 -120 31 -60 64
-122 72 -139 26 -50 61 -91 103 -120 35 -25 51 -29 142 -33 126 -6 147 -17
147 -76 0 -24 2 -45 5 -48 3 -3 41 14 83 38 91 53 275 143 352 173 30 12 64
26 75 31 11 5 49 18 85 30 36 11 74 25 85 30 11 5 52 18 90 30 39 12 78 26 87
31 10 5 24 9 33 9 8 0 29 6 47 14 18 8 74 29 123 46 314 113 487 226 570 374
46 83 52 114 29 162 -28 58 -26 165 5 229 13 28 32 70 43 95 11 25 28 63 38
85 55 121 80 176 80 180 0 2 15 36 34 77 18 40 46 102 61 138 15 36 34 79 41
97 8 17 14 36 14 42 0 6 4 19 9 29 22 41 62 177 85 292 18 86 20 151 7 212 -6
24 -18 79 -27 123 -73 336 -300 603 -614 721 -168 64 -244 76 -475 79 -110 2
-211 1 -225 -1z m-1012 -1697 c12 -12 36 -52 55 -87 45 -87 136 -259 153 -290
33 -60 7 -131 -50 -142 -48 -9 -83 20 -128 107 -19 39 -57 111 -83 160 -79
148 -85 163 -85 195 0 68 92 106 138 57z m-335 -27 c14 -16 43 -65 65 -107 22
-43 58 -112 80 -153 178 -340 184 -352 177 -389 -11 -60 -30 -81 -74 -81 -54
0 -46 -11 -196 275 -52 100 -107 203 -172 324 -32 61 -31 113 3 140 40 31 87
27 117 -9z m-364 4 c28 -17 35 -27 143 -234 39 -74 92 -175 118 -225 185 -351
186 -352 153 -401 -44 -68 -112 -48 -162 47 -31 60 -57 110 -186 354 -29 55
-76 145 -105 200 -29 55 -59 111 -66 125 -23 42 -17 88 15 121 33 33 52 36 90
13z"/>
<path d="M3796 1554 c-20 -159 -116 -301 -274 -407 -93 -62 -369 -197 -404
-197 -6 0 -24 -6 -41 -14 -18 -8 -135 -49 -262 -91 -249 -83 -409 -147 -550
-220 -91 -47 -295 -178 -350 -225 -90 -76 -252 -245 -305 -317 l-60 -83 32 0
c28 0 40 9 82 60 26 33 74 82 105 108 31 26 58 49 61 52 17 19 137 103 200
141 287 172 577 260 1075 325 71 9 291 59 354 80 64 22 158 70 212 110 74 54
130 123 182 223 42 81 47 99 47 155 0 87 -49 277 -84 327 -14 20 -15 19 -20
-27z"/>
<path d="M3880 942 c-8 -2 -28 -22 -45 -45 -49 -67 -171 -152 -285 -200 -107
-45 -262 -83 -458 -113 -237 -36 -308 -49 -465 -83 -58 -13 -281 -88 -325
-110 -9 -4 -53 -26 -97 -47 -112 -55 -167 -88 -270 -165 -110 -81 -176 -149
-146 -149 11 0 21 3 23 8 5 11 114 66 193 97 188 75 440 122 815 155 63 5 142
14 175 19 33 6 87 13 120 16 33 3 85 10 115 16 108 21 245 52 260 59 8 4 42
18 75 30 66 26 143 73 192 120 39 37 93 114 93 132 0 8 4 18 9 23 15 17 43
158 39 200 -2 30 -7 39 -18 37z"/>
</g>
</svg>
