<svg version="1.1" id="Layer_1" xmlns="http://www.w3.org/2000/svg" xmlns:xlink="http://www.w3.org/1999/xlink" x="0px" y="0px"
	 width="100%" viewBox="0 0 150 158" enable-background="new 0 0 150 158" xml:space="preserve">
<path fill="#F6F6F6" opacity="1.000000" stroke="none" 
	d="
M1.000000,64.000000 
	C1.000000,42.683590 1.000000,21.867176 1.000000,1.025382 
	C50.942459,1.025382 100.884933,1.025382 150.913696,1.025382 
	C150.913696,53.566231 150.913696,106.132645 150.913696,158.849533 
	C101.000336,158.849533 51.000225,158.849533 1.000000,158.849533 
	C1.000000,127.448784 1.000000,95.974388 1.000000,64.000000 
M42.048752,113.616852 
	C42.732319,113.627670 43.415882,113.638489 44.704449,113.801498 
	C45.106354,113.908073 45.508259,114.014648 45.974567,114.842712 
	C48.603813,117.159264 51.181648,118.934898 53.764957,114.065544 
	C54.388268,114.126953 55.011574,114.188362 55.730797,114.833313 
	C55.765629,115.225861 55.800465,115.618416 55.396179,116.470139 
	C56.257202,117.651276 57.118225,118.832420 58.294903,120.624962 
	C63.095741,126.952309 70.290184,129.635284 77.121407,133.610672 
	C77.792473,133.982635 78.463547,134.354584 79.829765,134.695816 
	C80.033966,134.585831 80.238174,134.475845 80.998466,134.714890 
	C81.837891,134.969116 82.677315,135.223343 83.580421,136.019699 
	C83.696152,136.366257 83.811890,136.712799 84.029579,137.678406 
	C85.147942,137.685303 86.266312,137.692184 88.014023,137.544556 
	C88.696510,137.054642 89.378990,136.564713 90.803268,135.911728 
	C91.469887,134.822327 92.690567,133.743866 92.712296,132.641754 
	C92.843353,125.992882 92.834602,119.332420 92.529640,112.691589 
	C92.471703,111.429848 90.877113,110.238686 89.554115,108.937187 
	C89.554115,108.937187 89.111000,108.969406 88.983353,108.284279 
	C88.883316,107.594986 88.783279,106.905693 88.865623,105.535530 
	C88.204468,104.352661 87.543312,103.169792 87.437233,101.787582 
	C87.765350,101.315178 88.093468,100.842773 89.084526,100.192818 
	C90.348259,99.628929 91.612000,99.065033 93.484222,98.936531 
	C95.954254,102.050179 98.375572,102.400391 101.964104,100.053436 
	C107.757767,96.264305 114.207047,93.480659 120.021194,89.718689 
	C123.863464,87.232590 128.719208,84.894630 127.692390,78.163589 
	C127.737534,77.773865 127.782677,77.384148 128.504501,76.480392 
	C128.504395,69.279716 128.361115,62.074978 128.565582,54.880119 
	C128.665237,51.373444 127.023354,50.150490 124.248306,49.418068 
	C125.819862,46.252674 128.415894,43.191372 128.750275,39.900276 
	C129.452332,32.990475 129.041000,25.958849 128.943329,18.979242 
	C128.865494,13.418548 125.628098,11.584379 120.729950,14.208378 
	C117.111191,16.146992 113.305031,17.834089 109.970909,20.184418 
	C103.802910,24.532433 95.639389,26.747658 92.543808,34.852692 
	C91.719002,34.550869 90.894203,34.249050 89.755287,33.362438 
	C88.591171,32.170624 87.427055,30.978806 86.173531,29.820177 
	C86.173531,29.820177 86.210693,29.732346 86.090050,29.059628 
	C84.658012,28.173079 83.225975,27.286530 81.304153,26.177509 
	C80.828728,25.937260 80.353310,25.697008 79.982513,24.765640 
	C79.927551,24.540609 79.872589,24.315580 79.705780,23.342129 
	C78.619606,23.165077 77.533440,22.988026 75.840103,22.639515 
	C75.148293,22.183537 74.456482,21.727558 73.874443,20.549828 
	C71.388939,19.336439 68.903435,18.123051 65.896515,16.747612 
	C65.738014,16.658165 65.579506,16.568716 65.688980,15.805792 
	C65.235596,15.052611 64.782211,14.299431 64.328827,13.546252 
	C63.887199,14.067318 63.445572,14.588384 62.310745,14.926446 
	C62.083393,14.852803 61.856045,14.779160 61.611221,14.720975 
	C61.611221,14.720975 61.603783,14.691776 60.777275,14.611844 
	C60.500595,14.619555 60.223915,14.627266 59.445911,14.261256 
	C56.711678,14.079806 55.264950,14.928187 56.467743,18.873888 
	C56.504894,26.260006 56.542049,33.646122 56.155758,41.544434 
	C57.468456,44.382015 58.781151,47.219601 59.385281,50.071365 
	C57.931221,51.092522 56.477161,52.113674 54.448997,52.965153 
	C54.057381,52.921898 53.665768,52.878643 53.157784,52.104721 
	C50.911316,49.175507 48.664852,46.246292 46.478680,42.846931 
	C46.424496,42.529457 46.309673,42.235676 45.973507,41.389503 
	C45.284184,41.384319 44.594864,41.379135 43.268944,41.182560 
	C42.387680,40.573318 41.506416,39.964073 40.857338,38.755150 
	C40.235268,38.659184 39.613201,38.563217 38.367508,38.262405 
	C37.964973,38.091270 37.562443,37.920139 37.168121,37.076443 
	C36.105206,36.565102 35.042294,36.053761 33.350628,35.329697 
	C32.945843,35.151665 32.541054,34.973629 32.129032,34.052059 
	C31.235235,33.629089 30.341436,33.206116 28.843151,32.510441 
	C27.998182,32.245346 27.153212,31.980247 26.524046,31.437984 
	C26.524046,31.437984 26.429550,31.099661 26.626228,30.548208 
	C24.944874,27.981171 23.117582,26.853188 20.480947,30.455593 
	C20.249464,31.217455 20.017981,31.979315 19.755953,32.802948 
	C19.755953,32.802948 19.687073,32.800816 18.927425,32.921471 
	C18.383749,33.479568 17.376881,34.029716 17.367142,34.596981 
	C17.254045,41.184715 17.252214,47.775669 17.359179,54.363525 
	C17.368309,54.925911 18.367210,55.472229 18.897768,56.847385 
	C19.274828,59.565517 18.473122,63.083286 23.000153,63.000000 
	C23.000153,63.000000 23.044418,62.959057 22.856331,63.626041 
	C22.902554,64.084663 22.948776,64.543282 22.303432,65.109718 
	C20.579241,67.493156 17.644127,69.744812 17.367607,72.285789 
	C16.659170,78.795700 16.766186,85.464127 17.299583,92.007835 
	C17.540228,94.960030 17.647226,99.080170 22.335260,99.669830 
	C22.335260,99.669830 22.392544,99.714157 22.150450,100.447067 
	C25.849375,106.007149 31.092823,109.098984 38.265656,110.428047 
	C39.380455,110.818497 40.495258,111.208946 41.622757,112.091232 
	C41.712566,112.408508 41.821606,112.719032 42.048752,113.616852 
z"/>
<path fill="#643549" opacity="1.000000" stroke="none" 
	d="
M46.418385,43.317078 
	C48.664852,46.246292 50.911316,49.175507 52.960281,52.822754 
	C52.537209,61.371197 52.311642,69.201614 51.649776,77.076332 
	C49.464085,77.102531 47.714687,77.084435 45.798134,76.751251 
	C42.174839,75.808510 40.331367,70.598076 35.535797,72.817314 
	C33.205086,71.448532 31.153988,70.244537 29.079132,68.694374 
	C28.116425,67.521126 27.177471,66.694038 26.144325,65.541809 
	C25.048227,64.464127 24.046322,63.711594 23.044418,62.959057 
	C23.044418,62.959057 23.000153,63.000000 23.067158,62.623260 
	C22.091118,60.164593 21.048075,58.082668 20.049437,55.533722 
	C19.958252,47.644741 19.822662,40.222778 19.687073,32.800816 
	C19.687073,32.800816 19.755953,32.802948 20.182770,32.805882 
	C22.509140,32.444260 24.408691,32.079708 26.308243,31.715153 
	C27.153212,31.980247 27.998182,32.245346 29.196882,32.967918 
	C30.412498,33.882130 31.274384,34.338863 32.136269,34.795597 
	C32.541054,34.973629 32.945843,35.151665 33.743740,35.737778 
	C35.144539,36.680241 36.152222,37.214622 37.159908,37.749004 
	C37.562443,37.920139 37.964973,38.091270 38.770378,38.610607 
	C39.657215,39.090816 40.141182,39.222824 40.625153,39.354832 
	C41.506416,39.964073 42.387680,40.573318 43.503624,41.439713 
	C43.738300,41.696865 43.915176,42.015415 44.023754,42.344475 
	C44.894348,42.888050 45.656368,43.102566 46.418385,43.317078 
z"/>
<path fill="#9A3A45" opacity="1.000000" stroke="none" 
	d="
M29.102888,69.040543 
	C31.153988,70.244537 33.205086,71.448532 35.597187,73.182358 
	C37.506729,75.223434 38.844677,77.149147 40.684509,78.172791 
	C47.892143,82.182961 53.582394,86.864090 52.318233,96.362801 
	C51.839504,99.959892 51.906658,103.712791 52.322628,107.325859 
	C52.911301,112.439026 51.171947,114.799454 45.910164,114.121231 
	C45.508259,114.014648 45.106354,113.908073 44.469456,113.552475 
	C44.234463,113.303459 44.081158,112.964127 43.989376,112.626625 
	C43.135082,112.059212 42.372574,111.829300 41.610062,111.599388 
	C40.495258,111.208946 39.380455,110.818497 37.864857,109.950928 
	C32.440220,106.220589 27.416380,102.967377 22.392544,99.714157 
	C22.392544,99.714157 22.335260,99.669830 22.272758,99.268341 
	C21.501341,96.220512 20.338848,93.601242 20.178904,90.922134 
	C19.856209,85.516846 20.344212,80.061867 19.995529,74.659813 
	C19.693722,69.983978 21.313690,68.196922 25.977819,69.606766 
	C26.749899,70.472534 27.452196,71.021294 28.154493,71.570061 
	C28.414639,70.699387 28.674784,69.828705 28.992191,68.947571 
	C29.049452,68.937111 29.102888,69.040543 29.102888,69.040543 
z"/>
<path fill="#4C7F81" opacity="1.000000" stroke="none" 
	d="
M65.420998,16.479265 
	C65.579506,16.568716 65.738014,16.658165 66.279846,17.116877 
	C69.030350,18.747953 71.397507,20.009766 73.764671,21.271580 
	C74.456482,21.727558 75.148293,22.183537 76.243622,22.941652 
	C76.998619,23.583586 77.350090,23.923384 77.795929,24.518955 
	C78.552834,25.002075 79.215355,25.229418 79.877884,25.456757 
	C80.353310,25.697008 80.828728,25.937260 81.646530,26.600594 
	C83.396172,27.926565 84.803436,28.829454 86.210693,29.732346 
	C86.210693,29.732346 86.173531,29.820177 86.168724,30.181812 
	C87.121841,33.254463 88.783623,35.934776 88.903450,38.682343 
	C89.239960,46.397877 88.940933,54.141129 88.534286,61.986603 
	C87.429047,62.195301 86.682091,62.290848 85.795197,62.062607 
	C82.600708,59.824390 79.533401,57.929962 76.494461,55.991062 
	C71.324959,52.692825 66.083923,49.494461 61.062214,45.983421 
	C59.283482,44.739784 58.057518,42.705547 56.579201,41.032242 
	C56.542049,33.646122 56.504894,26.260006 56.886093,18.399971 
	C58.185375,16.829027 59.066307,15.732001 59.947235,14.634975 
	C60.223915,14.627266 60.500595,14.619555 61.077164,14.800188 
	C61.460930,14.894193 61.544811,14.799854 61.628693,14.705517 
	C61.856045,14.779160 62.083393,14.852803 62.760391,15.307470 
	C63.947025,15.952085 64.684013,16.215675 65.420998,16.479265 
z"/>
<path fill="#C49644" opacity="1.000000" stroke="none" 
	d="
M127.827812,76.994423 
	C127.782677,77.384148 127.737534,77.773865 127.348999,78.572266 
	C125.539185,80.943451 124.468132,83.526360 122.535805,84.757812 
	C115.349304,89.337669 107.999794,93.702026 100.457047,97.662758 
	C97.445488,99.244148 94.947212,98.016670 95.000603,93.904015 
	C95.080406,87.755745 94.876961,81.600456 95.090240,75.458435 
	C95.235962,71.262283 97.248199,67.985008 101.013443,65.808990 
	C107.401176,62.117367 113.681900,58.240078 120.081360,54.569431 
	C124.094032,52.267815 126.963715,54.084713 127.106056,58.732800 
	C127.292526,64.821671 127.582405,70.907364 127.827812,76.994423 
z"/>
<path fill="#BC5C42" opacity="1.000000" stroke="none" 
	d="
M83.516739,135.477585 
	C82.677315,135.223343 81.837891,134.969116 80.834663,134.291229 
	C80.404221,133.142685 80.348953,132.036270 79.837639,131.752991 
	C75.575935,129.391876 71.208664,127.222572 66.915115,124.917381 
	C61.102402,121.796562 57.433327,117.408302 57.873646,110.291565 
	C58.149544,105.832283 58.023556,101.339211 57.896271,96.866463 
	C57.772903,92.531326 59.358234,90.203697 64.177460,91.255486 
	C67.571007,93.627724 70.769203,95.765381 74.067055,97.736267 
	C78.901695,100.625595 83.807663,103.395569 88.683243,106.216400 
	C88.783279,106.905693 88.883316,107.594986 88.779236,108.872238 
	C88.575127,117.995453 88.575127,126.530708 88.575127,135.025452 
	C86.383385,135.221359 84.950066,135.349472 83.516739,135.477585 
z"/>
<path fill="#DEC89F" opacity="1.000000" stroke="none" 
	d="
M128.166153,76.737411 
	C127.582405,70.907364 127.292526,64.821671 127.106056,58.732800 
	C126.963715,54.084713 124.094032,52.267815 120.081360,54.569431 
	C113.681900,58.240078 107.401176,62.117367 101.013443,65.808990 
	C97.248199,67.985008 95.235962,71.262283 95.090240,75.458435 
	C94.876961,81.600456 95.080406,87.755745 95.000603,93.904015 
	C94.947212,98.016670 97.445488,99.244148 100.457047,97.662758 
	C107.999794,93.702026 115.349304,89.337669 122.535805,84.757812 
	C124.468132,83.526360 125.539185,80.943451 127.316025,78.864685 
	C128.719208,84.894630 123.863464,87.232590 120.021194,89.718689 
	C114.207047,93.480659 107.757767,96.264305 101.964104,100.053436 
	C98.375572,102.400391 95.954254,102.050179 93.199547,98.304634 
	C92.917603,89.237267 92.920334,80.801796 93.187759,72.097565 
	C95.669563,68.778175 97.886665,65.727547 100.304276,62.468239 
	C102.582146,61.285416 104.742393,60.453583 106.717087,59.303226 
	C109.557510,57.648537 112.262901,55.762066 115.386375,53.944275 
	C118.468689,52.620354 121.190544,51.326683 123.912407,50.033016 
	C127.023354,50.150490 128.665237,51.373444 128.565582,54.880119 
	C128.361115,62.074978 128.504395,69.279716 128.166153,76.737411 
z"/>
<path fill="#BCD3C3" opacity="1.000000" stroke="none" 
	d="
M124.080353,49.725540 
	C121.190544,51.326683 118.468689,52.620354 115.439331,53.594246 
	C116.452950,52.184719 117.666908,50.918518 119.115555,50.038742 
	C123.242989,47.532112 126.501556,44.089287 126.918716,39.329361 
	C127.481537,32.907459 127.098984,26.399546 127.055054,19.928997 
	C127.034172,16.853716 125.265503,15.382832 122.545876,16.773806 
	C115.265800,20.497255 107.794640,24.047750 101.156021,28.737911 
	C97.958939,30.996641 96.466507,35.668186 94.146965,38.893860 
	C93.770538,37.431862 93.449310,36.323147 93.128075,35.214436 
	C95.639389,26.747658 103.802910,24.532433 109.970909,20.184418 
	C113.305031,17.834089 117.111191,16.146992 120.729950,14.208378 
	C125.628098,11.584379 128.865494,13.418548 128.943329,18.979242 
	C129.041000,25.958849 129.452332,32.990475 128.750275,39.900276 
	C128.415894,43.191372 125.819862,46.252674 124.080353,49.725540 
z"/>
<path fill="#97AFB3" opacity="1.000000" stroke="none" 
	d="
M56.367477,41.288338 
	C58.057518,42.705547 59.283482,44.739784 61.062214,45.983421 
	C66.083923,49.494461 71.324959,52.692825 76.494461,55.991062 
	C79.533401,57.929962 82.600708,59.824390 85.611382,62.280357 
	C85.040176,63.553116 84.512848,64.284340 83.753319,65.149712 
	C83.342789,65.296371 83.164452,65.308884 82.879852,64.986473 
	C81.825394,64.122978 80.877182,63.594410 79.638351,63.001251 
	C78.967033,62.824539 78.586327,62.712414 78.078850,62.323914 
	C77.241241,61.763660 76.530411,61.479790 75.533020,60.992207 
	C72.552505,59.465397 69.858551,58.142303 67.104996,56.505524 
	C66.304985,55.530479 65.564560,54.869118 64.527748,54.041100 
	C63.153732,53.520161 62.076107,53.165874 60.995209,52.501183 
	C60.692570,51.479580 60.393208,50.768383 60.093845,50.057186 
	C58.781151,47.219601 57.468456,44.382015 56.367477,41.288338 
z"/>
<path fill="#C0989F" opacity="1.000000" stroke="none" 
	d="
M45.942368,114.481972 
	C51.171947,114.799454 52.911301,112.439026 52.322628,107.325859 
	C51.906658,103.712791 51.839504,99.959892 52.318233,96.362801 
	C53.582394,86.864090 47.892143,82.182961 40.684509,78.172791 
	C38.844677,77.149147 37.506729,75.223434 35.876801,73.347137 
	C40.331367,70.598076 42.174839,75.808510 45.699226,77.016098 
	C46.466705,78.404152 47.165943,79.212288 48.188652,80.151756 
	C50.365757,83.835396 52.219395,87.387688 54.035976,91.411079 
	C53.711647,99.308777 53.424374,106.735374 53.137104,114.161980 
	C51.181648,118.934898 48.603813,117.159264 45.942368,114.481972 
z"/>
<path fill="#CE9280" opacity="1.000000" stroke="none" 
	d="
M64.026665,90.946335 
	C59.358234,90.203697 57.772903,92.531326 57.896271,96.866463 
	C58.023556,101.339211 58.149544,105.832283 57.873646,110.291565 
	C57.433327,117.408302 61.102402,121.796562 66.915115,124.917381 
	C71.208664,127.222572 75.575935,129.391876 79.837639,131.752991 
	C80.348953,132.036270 80.404221,133.142685 80.556625,134.116699 
	C80.238174,134.475845 80.033966,134.585831 79.407379,134.421753 
	C78.345634,133.749863 77.706261,133.352066 77.066895,132.954254 
	C70.290184,129.635284 63.095741,126.952309 58.136360,119.977951 
	C57.263645,118.224281 56.549473,117.117622 55.835300,116.010963 
	C55.800465,115.618416 55.765629,115.225861 55.795410,114.059204 
	C55.843182,105.819931 55.826336,98.354759 56.114952,90.750534 
	C57.609303,90.066093 58.798203,89.520691 60.342392,89.013702 
	C61.175472,89.049553 61.653259,89.047005 62.377602,89.156967 
	C63.114254,89.504295 63.604351,89.739090 64.080872,90.217239 
	C64.067299,90.460587 64.026665,90.946335 64.026665,90.946335 
z"/>
<path fill="#D2AFB2" opacity="1.000000" stroke="none" 
	d="
M25.908037,69.289749 
	C21.313690,68.196922 19.693722,69.983978 19.995529,74.659813 
	C20.344212,80.061867 19.856209,85.516846 20.178904,90.922134 
	C20.338848,93.601242 21.501341,96.220512 22.259674,99.234573 
	C17.647226,99.080170 17.540228,94.960030 17.299583,92.007835 
	C16.766186,85.464127 16.659170,78.795700 17.367607,72.285789 
	C17.644127,69.744812 20.579241,67.493156 22.968046,65.178162 
	C24.501280,65.453384 25.369898,65.660172 26.238518,65.866959 
	C27.177471,66.694038 28.116425,67.521126 29.079132,68.694374 
	C29.102888,69.040543 29.049452,68.937111 28.611286,68.964661 
	C27.418093,69.091400 26.663065,69.190575 25.908037,69.289749 
z"/>
<path fill="#CBA89F" opacity="1.000000" stroke="none" 
	d="
M64.177460,91.255486 
	C64.026665,90.946335 64.067299,90.460587 64.384026,90.249466 
	C65.879707,90.008553 67.058662,89.978767 68.500877,90.086044 
	C69.473923,90.531075 70.183716,90.839020 71.044075,91.454170 
	C73.400734,92.897507 75.606812,94.033646 77.859283,95.108932 
	C77.905670,95.048088 77.852180,95.191460 77.921967,95.530869 
	C80.086067,96.803169 82.180374,97.736069 84.551620,98.725090 
	C85.203026,98.821213 85.577484,98.861221 85.948929,99.150536 
	C85.945900,99.399849 86.014542,99.893768 85.821922,100.044037 
	C86.046921,100.791855 86.464539,101.389389 86.882156,101.986923 
	C87.543312,103.169792 88.204468,104.352661 88.774429,105.875961 
	C83.807663,103.395569 78.901695,100.625595 74.067055,97.736267 
	C70.769203,95.765381 67.571007,93.627724 64.177460,91.255486 
z"/>
<path fill="#97AFB3" opacity="1.000000" stroke="none" 
	d="
M88.892563,61.873451 
	C88.940933,54.141129 89.239960,46.397877 88.903450,38.682343 
	C88.783623,35.934776 87.121841,33.254463 86.213425,30.165218 
	C87.427055,30.978806 88.591171,32.170624 89.918060,34.049931 
	C90.708473,37.384369 91.748505,40.011196 91.878838,42.682411 
	C92.159668,48.438137 91.972801,54.216686 91.700424,60.120247 
	C90.579865,60.794216 89.736214,61.333836 88.892563,61.873451 
z"/>
<path fill="#A4A8B2" opacity="1.000000" stroke="none" 
	d="
M68.237617,89.948975 
	C67.058662,89.978767 65.879707,90.008553 64.397598,90.006111 
	C63.604351,89.739090 63.114254,89.504295 62.228119,88.907608 
	C61.339462,88.277122 60.846844,88.008514 60.241497,87.408295 
	C57.440243,83.127998 53.961517,79.493156 54.974304,73.604385 
	C54.996048,66.465645 55.009571,59.800236 55.023098,53.134827 
	C56.477161,52.113674 57.931221,51.092522 59.739563,50.064278 
	C60.393208,50.768383 60.692570,51.479580 60.705040,52.615204 
	C60.024323,53.169842 59.630505,53.300056 58.841797,53.347916 
	C57.662323,54.499836 56.249710,55.709557 56.200333,56.972565 
	C55.968887,62.892704 55.721424,68.865334 56.289600,74.740891 
	C56.567848,77.618309 58.610855,80.325066 60.026844,83.405640 
	C62.878235,85.784470 65.557922,87.866722 68.237617,89.948975 
z"/>
<path fill="#B7A4AE" opacity="1.000000" stroke="none" 
	d="
M19.307249,32.861145 
	C19.822662,40.222778 19.958252,47.644741 19.774670,55.536766 
	C19.272440,56.013226 19.089378,56.019619 18.906315,56.026012 
	C18.367210,55.472229 17.368309,54.925911 17.359179,54.363525 
	C17.252214,47.775669 17.254045,41.184715 17.367142,34.596981 
	C17.376881,34.029716 18.383749,33.479568 19.307249,32.861145 
z"/>
<path fill="#AE9AA3" opacity="1.000000" stroke="none" 
	d="
M54.736046,53.049988 
	C55.009571,59.800236 54.996048,66.465645 54.714928,73.744545 
	C54.031448,75.260254 53.615562,76.162476 52.921303,77.055664 
	C52.457314,77.041756 52.271694,77.036888 52.086071,77.032028 
	C52.311642,69.201614 52.537209,61.371197 53.018463,53.188087 
	C53.665768,52.878643 54.057381,52.921898 54.736046,53.049988 
z"/>
<path fill="#AAAFAF" opacity="1.000000" stroke="none" 
	d="
M92.923065,72.366333 
	C92.920334,80.801796 92.917603,89.237267 92.895309,98.086937 
	C91.612000,99.065033 90.348259,99.628929 88.631142,100.172607 
	C88.177757,100.152397 87.946640,99.928802 88.083832,99.684570 
	C88.471481,98.945450 88.721931,98.450554 89.075790,97.776489 
	C89.179199,97.597313 89.353821,97.222237 89.706749,97.053574 
	C90.361946,95.317223 90.951355,93.743172 90.916794,92.182938 
	C90.766891,85.413147 90.434952,78.647377 90.519844,71.891632 
	C91.554688,72.057510 92.238876,72.211922 92.923065,72.366333 
z"/>
<path fill="#CE9280" opacity="1.000000" stroke="none" 
	d="
M83.548584,135.748642 
	C84.950066,135.349472 86.383385,135.221359 88.575127,135.025452 
	C88.575127,126.530708 88.575127,117.995453 88.843063,109.214806 
	C89.111000,108.969406 89.554115,108.937187 89.816650,109.391197 
	C90.073273,118.588402 90.067375,127.331589 90.061470,136.074783 
	C89.378990,136.564713 88.696510,137.054642 87.298210,137.412750 
	C85.697472,137.207092 84.812553,137.133224 83.927628,137.059357 
	C83.811890,136.712799 83.696152,136.366257 83.548584,135.748642 
z"/>
<path fill="#CBDCD1" opacity="1.000000" stroke="none" 
	d="
M91.977325,59.985893 
	C91.972801,54.216686 92.159668,48.438137 91.878838,42.682411 
	C91.748505,40.011196 90.708473,37.384369 90.075119,34.342323 
	C90.894203,34.249050 91.719002,34.550869 92.835938,35.033562 
	C93.449310,36.323147 93.770538,37.431862 94.134827,39.337029 
	C94.163536,46.711166 94.149185,53.288849 93.776924,59.910301 
	C92.938454,59.964676 92.457886,59.975285 91.977325,59.985893 
z"/>
<path fill="#DDB8AD" opacity="1.000000" stroke="none" 
	d="
M90.432373,135.993256 
	C90.067375,127.331589 90.073273,118.588402 90.035355,109.430084 
	C90.877113,110.238686 92.471703,111.429848 92.529640,112.691589 
	C92.834602,119.332420 92.843353,125.992882 92.712296,132.641754 
	C92.690567,133.743866 91.469887,134.822327 90.432373,135.993256 
z"/>
<path fill="#DFC2BE" opacity="1.000000" stroke="none" 
	d="
M55.809494,90.889587 
	C55.826336,98.354759 55.843182,105.819931 55.747456,113.767441 
	C55.011574,114.188362 54.388268,114.126953 53.451031,114.113762 
	C53.424374,106.735374 53.711647,99.308777 54.325905,91.417191 
	C55.038425,90.931335 55.423958,90.910461 55.809494,90.889587 
z"/>
<path fill="#D2AFB2" opacity="1.000000" stroke="none" 
	d="
M22.271496,100.080612 
	C27.416380,102.967377 32.440220,106.220589 37.544746,109.802231 
	C31.092823,109.098984 25.849375,106.007149 22.271496,100.080612 
z"/>
<path fill="#B6C9CA" opacity="1.000000" stroke="none" 
	d="
M73.819557,20.910704 
	C71.397507,20.009766 69.030350,18.747953 66.540558,17.197901 
	C68.903435,18.123051 71.388939,19.336439 73.819557,20.910704 
z"/>
<path fill="#AE9AA3" opacity="1.000000" stroke="none" 
	d="
M18.902042,56.436699 
	C19.089378,56.019619 19.272440,56.013226 19.730267,56.003788 
	C21.048075,58.082668 22.091118,60.164593 23.088383,62.601971 
	C18.473122,63.083286 19.274828,59.565517 18.902042,56.436699 
z"/>
<path fill="#97AFB3" opacity="1.000000" stroke="none" 
	d="
M59.696571,14.448116 
	C59.066307,15.732001 58.185375,16.829027 56.907745,17.928257 
	C55.264950,14.928187 56.711678,14.079806 59.696571,14.448116 
z"/>
<path fill="#AE9AA3" opacity="1.000000" stroke="none" 
	d="
M26.416145,31.576569 
	C24.408691,32.079708 22.509140,32.444260 20.198044,32.774994 
	C20.017981,31.979315 20.249464,31.217455 21.080723,30.224941 
	C23.263515,30.362745 24.846533,30.731203 26.429550,31.099659 
	C26.429550,31.099661 26.524046,31.437984 26.416145,31.576569 
z"/>
<path fill="#B7A4AE" opacity="1.000000" stroke="none" 
	d="
M26.527889,30.823933 
	C24.846533,30.731203 23.263515,30.362745 21.270489,29.978891 
	C23.117582,26.853188 24.944874,27.981171 26.527889,30.823933 
z"/>
<path fill="#97AFB3" opacity="1.000000" stroke="none" 
	d="
M86.150375,29.395985 
	C84.803436,28.829454 83.396172,27.926565 81.891426,26.711830 
	C83.225975,27.286530 84.658012,28.173079 86.150375,29.395985 
z"/>
<path fill="#B7A4AE" opacity="1.000000" stroke="none" 
	d="
M37.164017,37.412724 
	C36.152222,37.214622 35.144539,36.680241 34.058113,35.844139 
	C35.042294,36.053761 36.105206,36.565102 37.164017,37.412724 
z"/>
<path fill="#DFC2BE" opacity="1.000000" stroke="none" 
	d="
M55.615738,116.240555 
	C56.549473,117.117622 57.263645,118.224281 57.978531,119.672256 
	C57.118225,118.832420 56.257202,117.651276 55.615738,116.240555 
z"/>
<path fill="#B6C9CA" opacity="1.000000" stroke="none" 
	d="
M65.554993,16.142529 
	C64.684013,16.215675 63.947025,15.952085 63.106991,15.398972 
	C63.445572,14.588384 63.887199,14.067318 64.328827,13.546251 
	C64.782211,14.299431 65.235596,15.052611 65.554993,16.142529 
z"/>
<path fill="#AE9AA3" opacity="1.000000" stroke="none" 
	d="
M26.144325,65.541809 
	C25.369898,65.660172 24.501280,65.453384 23.313829,65.124252 
	C22.948776,64.543282 22.902554,64.084663 22.950375,63.292549 
	C24.046322,63.711594 25.048227,64.464127 26.144325,65.541809 
z"/>
<path fill="#DDB8AD" opacity="1.000000" stroke="none" 
	d="
M83.978607,137.368896 
	C84.812553,137.133224 85.697472,137.207092 86.983536,137.490021 
	C86.266312,137.692184 85.147942,137.685303 83.978607,137.368896 
z"/>
<path fill="#B7A4AE" opacity="1.000000" stroke="none" 
	d="
M32.132652,34.423828 
	C31.274384,34.338863 30.412498,33.882130 29.499126,33.104271 
	C30.341436,33.206116 31.235235,33.629089 32.132652,34.423828 
z"/>
<path fill="#B6C9CA" opacity="1.000000" stroke="none" 
	d="
M77.701561,24.263178 
	C77.350090,23.923384 76.998619,23.583586 76.547211,23.027382 
	C77.533440,22.988026 78.619606,23.165077 79.409271,23.720980 
	C78.642365,24.154280 78.171959,24.208727 77.701561,24.263178 
z"/>
<path fill="#AAAFAF" opacity="1.000000" stroke="none" 
	d="
M87.159698,101.887253 
	C86.464539,101.389389 86.046921,100.791855 86.144760,100.053574 
	C87.089020,99.918152 87.517830,99.923477 87.946640,99.928802 
	C87.946640,99.928802 88.177757,100.152397 88.299667,100.261383 
	C88.093468,100.842773 87.765350,101.315178 87.159698,101.887253 
z"/>
<path fill="#AE9AA3" opacity="1.000000" stroke="none" 
	d="
M46.448532,43.082005 
	C45.656368,43.102566 44.894348,42.888050 44.393673,42.333080 
	C45.148083,41.983612 45.641148,41.974598 46.134216,41.965584 
	C46.309673,42.235676 46.424496,42.529457 46.448532,43.082005 
z"/>
<path fill="#B7A4AE" opacity="1.000000" stroke="none" 
	d="
M46.053864,41.677544 
	C45.641148,41.974598 45.148083,41.983612 44.285095,42.004021 
	C43.915176,42.015415 43.738300,41.696865 43.821922,41.535408 
	C44.594864,41.379135 45.284184,41.384319 46.053864,41.677544 
z"/>
<path fill="#B7A4AE" opacity="1.000000" stroke="none" 
	d="
M40.741245,39.054993 
	C40.141182,39.222824 39.657215,39.090816 39.082188,38.713028 
	C39.613201,38.563217 40.235268,38.659184 40.741245,39.054993 
z"/>
<path fill="#C0989F" opacity="1.000000" stroke="none" 
	d="
M41.616409,111.845306 
	C42.372574,111.829300 43.135082,112.059212 43.634056,112.646225 
	C42.896973,113.009819 42.423420,113.016312 41.949871,113.022804 
	C41.821606,112.719032 41.712566,112.408508 41.616409,111.845306 
z"/>
<path fill="#D2AFB2" opacity="1.000000" stroke="none" 
	d="
M41.999313,113.319824 
	C42.423420,113.016312 42.896973,113.009819 43.725838,112.983734 
	C44.081158,112.964127 44.234463,113.303459 44.166954,113.476379 
	C43.415882,113.638489 42.732319,113.627670 41.999313,113.319824 
z"/>
<path fill="#97AFB3" opacity="1.000000" stroke="none" 
	d="
M77.795929,24.518955 
	C78.171959,24.208727 78.642365,24.154280 79.465195,24.095190 
	C79.872589,24.315580 79.927551,24.540609 79.930199,25.111198 
	C79.215355,25.229418 78.552834,25.002075 77.795929,24.518955 
z"/>
<path fill="#DDB8AD" opacity="1.000000" stroke="none" 
	d="
M77.094147,133.282471 
	C77.706261,133.352066 78.345634,133.749863 79.059814,134.437103 
	C78.463547,134.354584 77.792473,133.982635 77.094147,133.282471 
z"/>
<path fill="#B6C9CA" opacity="1.000000" stroke="none" 
	d="
M61.619957,14.713245 
	C61.544811,14.799854 61.460930,14.894193 61.490417,14.840154 
	C61.603783,14.691776 61.611221,14.720975 61.619957,14.713245 
z"/>
<path fill="#B7A4AE" opacity="1.000000" stroke="none" 
	d="
M51.649776,77.076332 
	C52.271694,77.036888 52.457314,77.041756 52.796097,77.395744 
	C51.254570,78.503387 49.559875,79.261902 47.865181,80.020416 
	C47.165943,79.212288 46.466705,78.404152 45.866379,77.331177 
	C47.714687,77.084435 49.464085,77.102531 51.649776,77.076332 
z"/>
<path fill="#AA5A63" opacity="1.000000" stroke="none" 
	d="
M25.977819,69.606758 
	C26.663065,69.190575 27.418093,69.091400 28.554026,68.975128 
	C28.674784,69.828705 28.414639,70.699387 28.154493,71.570061 
	C27.452196,71.021294 26.749899,70.472534 25.977819,69.606758 
z"/>
<path fill="#E6E8E6" opacity="1.000000" stroke="none" 
	d="
M91.700424,60.120247 
	C92.457886,59.975285 92.938454,59.964676 93.783752,59.897301 
	C94.148483,59.840534 94.179123,59.867584 94.141312,60.196602 
	C94.699471,61.042213 95.295441,61.558800 96.242363,62.123363 
	C97.763458,62.339867 98.933617,62.508396 100.103767,62.676926 
	C97.886665,65.727547 95.669563,68.778175 93.187759,72.097565 
	C92.238876,72.211922 91.554688,72.057510 90.314339,71.823647 
	C89.758179,71.744186 89.350662,71.886086 89.289368,71.579491 
	C89.068398,70.889091 88.908730,70.505295 88.844711,69.784698 
	C87.665199,68.248299 86.390060,67.048683 84.949463,65.681824 
	C84.517151,65.349350 84.250984,65.183006 83.985519,65.015564 
	C84.512848,64.284340 85.040176,63.553116 85.751320,62.604145 
	C86.682091,62.290848 87.429047,62.195301 88.534286,61.986603 
	C89.736214,61.333836 90.579865,60.794216 91.700424,60.120247 
z"/>
<path fill="#82AE91" opacity="1.000000" stroke="none" 
	d="
M100.304276,62.468239 
	C98.933617,62.508396 97.763458,62.339867 96.233185,61.807632 
	C95.308418,60.918484 94.743767,60.393032 94.179123,59.867584 
	C94.179123,59.867584 94.148483,59.840534 94.141663,59.853531 
	C94.149185,53.288849 94.163536,46.711166 94.190025,39.690315 
	C96.466507,35.668186 97.958939,30.996641 101.156021,28.737911 
	C107.794640,24.047750 115.265800,20.497255 122.545876,16.773806 
	C125.265503,15.382832 127.034172,16.853716 127.055054,19.928997 
	C127.098984,26.399546 127.481537,32.907459 126.918716,39.329361 
	C126.501556,44.089287 123.242989,47.532112 119.115555,50.038742 
	C117.666908,50.918518 116.452950,52.184719 115.078880,53.624496 
	C112.262901,55.762066 109.557510,57.648537 106.717087,59.303226 
	C104.742393,60.453583 102.582146,61.285416 100.304276,62.468239 
z"/>
<path fill="#1D4364" opacity="1.000000" stroke="none" 
	d="
M83.753311,65.149704 
	C84.250984,65.183006 84.517151,65.349350 84.926224,66.028870 
	C86.295311,67.735939 87.522186,68.928719 88.749069,70.121490 
	C88.908730,70.505295 89.068398,70.889091 88.961159,71.791443 
	C88.914108,80.614075 89.133965,88.918159 89.353821,97.222237 
	C89.353821,97.222237 89.179199,97.597313 88.744980,97.778320 
	C87.524498,98.273300 86.738220,98.587257 85.951950,98.901222 
	C85.577484,98.861221 85.203026,98.821213 84.412865,98.409851 
	C81.948837,97.089485 79.900513,96.140472 77.852180,95.191460 
	C77.852180,95.191460 77.905670,95.048088 77.875122,94.737106 
	C75.527542,93.333076 73.210526,92.240021 70.893501,91.146973 
	C70.183716,90.839020 69.473923,90.531075 68.500877,90.086044 
	C65.557922,87.866722 62.878235,85.784470 60.070213,82.989525 
	C59.560253,80.504753 58.850071,78.732010 58.853622,76.960701 
	C58.869358,69.116997 59.090122,61.273712 59.236691,53.430275 
	C59.630505,53.300056 60.024323,53.169842 60.708313,52.925606 
	C62.076107,53.165874 63.153732,53.520161 64.566917,54.378204 
	C65.656517,55.527710 66.410553,56.173458 67.164597,56.819206 
	C69.858551,58.142303 72.552505,59.465397 75.623688,61.308372 
	C76.735825,62.085594 77.470726,62.342941 78.205627,62.600288 
	C78.586327,62.712414 78.967033,62.824539 79.684334,63.305313 
	C81.009323,64.223106 81.997719,64.772255 82.986107,65.321404 
	C83.164452,65.308884 83.342789,65.296371 83.753311,65.149704 
z"/>
<path fill="#627B94" opacity="1.000000" stroke="none" 
	d="
M82.879852,64.986473 
	C81.997719,64.772255 81.009323,64.223106 79.974960,63.369900 
	C80.877182,63.594410 81.825394,64.122978 82.879852,64.986473 
z"/>
<path fill="#56738A" opacity="1.000000" stroke="none" 
	d="
M67.104996,56.505524 
	C66.410553,56.173458 65.656517,55.527710 64.863312,54.544857 
	C65.564560,54.869118 66.304985,55.530479 67.104996,56.505524 
z"/>
<path fill="#627B94" opacity="1.000000" stroke="none" 
	d="
M78.078850,62.323914 
	C77.470726,62.342941 76.735825,62.085594 75.910248,61.512085 
	C76.530411,61.479790 77.241241,61.763660 78.078850,62.323914 
z"/>
<path fill="#EAE4E5" opacity="1.000000" stroke="none" 
	d="
M48.188652,80.151756 
	C49.559875,79.261902 51.254570,78.503387 53.074471,77.404785 
	C53.615562,76.162476 54.031448,75.260254 54.706711,74.217880 
	C53.961517,79.493156 57.440243,83.127998 60.116707,87.709030 
	C60.065464,88.552696 60.026279,88.764000 59.987099,88.975296 
	C58.798203,89.520691 57.609303,90.066093 56.114948,90.750534 
	C55.423958,90.910461 55.038425,90.931335 54.362965,90.946098 
	C52.219395,87.387688 50.365757,83.835396 48.188652,80.151756 
z"/>
<path fill="#DFC2BE" opacity="1.000000" stroke="none" 
	d="
M60.342392,89.013702 
	C60.026279,88.764000 60.065464,88.552696 60.229439,88.040649 
	C60.846844,88.008514 61.339462,88.277122 61.981567,88.795090 
	C61.653259,89.047005 61.175472,89.049553 60.342392,89.013702 
z"/>
<path fill="#627B94" opacity="1.000000" stroke="none" 
	d="
M71.044075,91.454170 
	C73.210526,92.240021 75.527542,93.333076 77.828735,94.797958 
	C75.606812,94.033646 73.400734,92.897507 71.044075,91.454170 
z"/>
<path fill="#627B94" opacity="1.000000" stroke="none" 
	d="
M77.921967,95.530869 
	C79.900513,96.140472 81.948837,97.089485 84.135925,98.353729 
	C82.180374,97.736069 80.086067,96.803169 77.921967,95.530869 
z"/>
<path fill="#627B94" opacity="1.000000" stroke="none" 
	d="
M85.948929,99.150536 
	C86.738220,98.587257 87.524498,98.273300 88.641579,97.957497 
	C88.721931,98.450554 88.471481,98.945450 88.083832,99.684570 
	C87.517830,99.923477 87.089020,99.918152 86.337372,99.903297 
	C86.014542,99.893768 85.945900,99.399849 85.948929,99.150536 
z"/>
<path fill="#56738A" opacity="1.000000" stroke="none" 
	d="
M58.841797,53.347919 
	C59.090122,61.273712 58.869358,69.116997 58.853622,76.960701 
	C58.850071,78.732010 59.560253,80.504753 59.898518,82.692947 
	C58.610855,80.325066 56.567848,77.618309 56.289600,74.740891 
	C55.721424,68.865334 55.968887,62.892704 56.200333,56.972565 
	C56.249710,55.709557 57.662323,54.499836 58.841797,53.347919 
z"/>
<path fill="#627B94" opacity="1.000000" stroke="none" 
	d="
M89.706741,97.053574 
	C89.133965,88.918159 88.914108,80.614075 89.022461,72.098038 
	C89.350662,71.886086 89.758179,71.744186 89.963684,71.812164 
	C90.434952,78.647377 90.766891,85.413147 90.916794,92.182938 
	C90.951355,93.743172 90.361946,95.317223 89.706741,97.053574 
z"/>
<path fill="#627B94" opacity="1.000000" stroke="none" 
	d="
M88.844711,69.784698 
	C87.522186,68.928719 86.295311,67.735939 85.091675,66.196121 
	C86.390060,67.048683 87.665199,68.248299 88.844711,69.784698 
z"/>
<path fill="#BCD3C3" opacity="1.000000" stroke="none" 
	d="
M94.141312,60.196602 
	C94.743767,60.393032 95.308418,60.918484 95.882240,61.759659 
	C95.295441,61.558800 94.699471,61.042213 94.141312,60.196602 
z"/>
</svg>