<svg version="1.1" id="Layer_1" xmlns="http://www.w3.org/2000/svg" xmlns:xlink="http://www.w3.org/1999/xlink" x="0px" y="0px"
	 width="100%" viewBox="0 0 250 250" enable-background="new 0 0 250 250" xml:space="preserve">
<path fill="#47704C" opacity="1.000000" stroke="none" 
	d="
M161.000000,251.000000 
	C107.333336,251.000000 54.166672,251.000000 1.000007,251.000000 
	C1.000005,167.666672 1.000005,84.333351 1.000002,1.000018 
	C84.333321,1.000012 167.666641,1.000012 250.999969,1.000006 
	C250.999969,84.333313 250.999969,167.666626 250.999985,250.999969 
	C221.166672,251.000000 191.333328,251.000000 161.000000,251.000000 
M120.840034,165.028000 
	C121.916885,166.476318 122.993729,167.924652 124.745834,170.281189 
	C125.842712,167.494659 126.940811,164.705017 128.422791,160.940186 
	C124.673531,161.592514 120.512756,159.111267 119.426262,164.769043 
	C118.611992,163.879044 117.797722,162.989059 116.983452,162.099060 
	C116.319862,163.422394 115.656273,164.745743 114.329460,165.674255 
	C113.927666,162.206802 111.209831,162.276642 109.438438,163.475311 
	C108.146416,164.349609 107.085335,167.189209 107.522957,168.683655 
	C108.719658,172.770264 111.787727,171.960342 114.917076,170.329742 
	C114.917076,168.908737 114.917076,167.451233 115.584373,165.482208 
	C115.987785,167.259369 116.391197,169.036514 116.794609,170.813675 
	C117.193367,170.944794 117.592117,171.075912 117.990875,171.207031 
	C118.673477,169.158142 119.356079,167.109268 120.840034,165.028000 
M172.724487,148.035934 
	C174.965973,149.412598 176.246750,153.932373 179.510895,151.408371 
	C180.812531,150.401871 179.917358,146.531006 179.977829,143.963043 
	C179.989487,143.468140 179.794235,142.968369 179.513824,141.570297 
	C177.382111,145.103882 171.827103,142.832108 171.383728,147.834213 
	C169.013306,148.097488 166.642868,148.360764 164.185211,148.633713 
	C165.582764,151.519852 166.614304,153.650131 167.647446,155.783691 
	C173.132111,155.623520 173.132111,155.623520 172.724487,148.035934 
M189.033844,117.063995 
	C188.403122,112.029732 187.772385,106.995476 187.034454,101.137711 
	C185.740463,96.597054 184.665024,91.979416 183.099274,87.534492 
	C180.958466,81.456993 177.816193,76.226601 170.595642,75.027016 
	C156.386887,72.666451 142.339798,74.729050 128.269135,76.362923 
	C126.176277,76.605949 124.081398,76.831718 121.987457,77.065475 
	C121.958092,76.561363 121.928719,76.057259 121.899353,75.553146 
	C135.159256,74.425255 148.419159,73.297371 163.197525,72.040321 
	C161.252716,71.398903 160.720383,71.061211 160.196945,71.074501 
	C148.280060,71.377113 136.327667,71.266106 124.461998,72.224274 
	C117.530792,72.783981 110.686157,74.871849 103.923874,76.716820 
	C102.407883,77.130440 101.398941,79.402481 99.369743,80.744514 
	C96.861847,80.166306 94.164452,78.697372 91.882835,79.182785 
	C85.883751,80.459084 80.045769,82.523445 74.180244,84.389076 
	C66.296654,86.896591 62.813240,93.026436 60.960957,100.553139 
	C58.687786,109.790077 61.100315,114.008598 68.660980,114.762276 
	C67.827721,120.855896 66.994461,126.949516 66.034439,133.931915 
	C67.345238,140.220734 67.424820,147.204681 70.434044,152.534592 
	C72.205765,155.672638 78.627075,156.185577 82.145927,157.971329 
	C80.195343,158.202545 78.244766,158.433762 75.129730,158.802994 
	C84.703926,164.505722 136.396301,159.474884 139.509354,153.557068 
	C137.402313,153.057129 135.257462,152.548218 133.945496,152.009720 
	C137.469162,151.340759 141.096878,151.004974 144.497681,149.942673 
	C156.462799,146.205170 168.412430,142.394669 180.227631,138.215240 
	C183.650330,137.004517 187.297668,135.035919 187.751556,130.077454 
	C193.614105,129.477890 195.026627,126.591713 193.329330,118.261391 
	C191.978958,118.166626 190.546387,118.066093 189.033844,117.063995 
M158.612946,151.153671 
	C158.612946,153.354156 158.612946,155.554626 158.612946,159.135727 
	C156.333221,156.526932 154.889725,154.875061 153.363861,153.128937 
	C146.762070,154.136017 153.081528,159.397247 148.981766,162.273209 
	C154.874359,160.607651 159.165359,159.543274 163.328308,158.107559 
	C164.297775,157.773209 164.831711,156.175995 165.566040,155.159821 
	C164.320587,155.101242 163.075119,155.042679 161.747040,154.980225 
	C161.028687,153.824875 160.195343,152.484558 158.612946,151.153671 
M192.323227,145.086731 
	C191.185287,142.564377 190.047363,140.042023 188.909424,137.519653 
	C188.441971,137.710846 187.974503,137.902039 187.507034,138.093231 
	C187.216995,139.553619 186.926941,141.014008 186.734131,141.984848 
	C184.768616,141.637695 183.028198,141.330292 180.407104,140.867355 
	C182.116379,144.248260 183.308273,146.605804 184.268250,148.504608 
	C186.998123,147.469299 189.391464,146.561630 192.323227,145.086731 
M94.653107,165.034012 
	C94.420029,166.768845 93.863632,168.543915 94.072617,170.223755 
	C94.202278,171.265869 95.362617,172.761612 96.297592,172.965439 
	C97.325745,173.189621 99.018585,172.474594 99.704521,171.603760 
	C100.491776,170.604279 101.186798,168.218384 100.702515,167.779144 
	C99.288681,166.496780 97.267471,165.884094 94.653107,165.034012 
M137.457153,164.168289 
	C136.738480,163.345749 135.696381,162.637054 135.359589,161.680115 
	C134.180237,158.328979 132.390839,158.885971 130.507477,160.388092 
	C130.507477,163.057190 130.507477,165.450424 130.507477,167.425934 
	C132.844925,167.231827 134.993423,167.147430 137.095184,166.788895 
	C137.457199,166.727158 137.620453,165.500290 137.457153,164.168289 
M143.781021,161.136230 
	C142.209000,163.027832 141.150009,162.815887 141.033524,160.306702 
	C140.870712,156.800415 139.408691,156.983597 137.633652,158.298981 
	C138.367279,161.030991 138.995148,163.369156 139.626785,165.721375 
	C140.939514,165.477570 142.408432,165.346680 143.784515,164.917892 
	C146.202347,164.164444 146.687363,162.878708 143.781021,161.136230 
M102.669067,172.870239 
	C103.649750,172.480911 105.414619,172.189575 105.477592,171.685577 
	C105.776398,169.294281 105.611122,166.845032 105.611122,164.081543 
	C104.388733,164.194687 103.236198,164.301361 102.631744,164.357300 
	C102.444962,167.352859 102.291245,169.818069 102.669067,172.870239 
z"/>
<path fill="#02AAFF" opacity="1.000000" stroke="none" 
	d="
M66.161201,133.043137 
	C66.994461,126.949516 67.827721,120.855896 68.891296,114.030914 
	C70.359520,109.893478 71.730804,106.529022 72.809570,103.073265 
	C75.701134,93.810326 81.471519,87.664391 91.097878,85.299568 
	C94.262413,84.522163 97.293900,83.203102 100.680702,82.105164 
	C101.123566,81.749252 101.271942,81.419922 101.420326,81.090591 
	C100.967941,81.008606 100.515564,80.926620 100.090637,80.853104 
	C100.118103,80.861588 100.156563,80.818954 100.156563,80.818954 
	C101.398941,79.402481 102.407883,77.130440 103.923874,76.716820 
	C110.686157,74.871849 117.530792,72.783981 124.461998,72.224274 
	C136.327667,71.266106 148.280060,71.377113 160.196945,71.074501 
	C160.720383,71.061211 161.252716,71.398903 163.197525,72.040321 
	C148.419159,73.297371 135.159256,74.425255 121.899353,75.553146 
	C121.928719,76.057259 121.958092,76.561363 121.987457,77.065475 
	C124.081398,76.831718 126.176277,76.605949 128.269135,76.362923 
	C142.339798,74.729050 156.386887,72.666451 170.595642,75.027016 
	C177.816193,76.226601 180.958466,81.456993 183.099274,87.534492 
	C184.665024,91.979416 185.740463,96.597054 186.826294,101.837868 
	C184.866074,108.548416 183.113998,114.558807 181.306168,120.514328 
	C181.250397,120.459450 181.376038,120.366150 181.123184,120.373985 
	C180.588821,120.555351 180.307297,120.728882 179.755112,121.107742 
	C178.288193,123.208351 177.091934,125.103622 175.615479,127.176750 
	C172.574402,129.177628 170.033264,131.598984 167.010574,132.709259 
	C158.605103,135.796692 150.167953,139.208862 141.434891,140.900223 
	C127.149574,143.666931 112.603569,145.063400 98.198212,147.240860 
	C81.920441,149.701355 74.885910,146.741745 66.927094,133.672989 
	C66.764763,133.406433 66.420555,133.250610 66.161201,133.043137 
M144.417114,111.496269 
	C150.092941,112.520027 151.062897,111.310760 149.983109,105.599243 
	C150.551941,106.549950 151.229904,107.452988 151.669693,108.460045 
	C153.155502,111.862381 155.933792,112.109535 159.630737,109.175011 
	C160.237854,110.405960 160.844971,111.636909 161.471695,112.907585 
	C164.869492,113.238739 166.265137,111.747055 166.126663,108.306007 
	C166.060806,106.669807 166.722687,105.004318 167.206497,104.160614 
	C167.600449,105.880775 167.994415,107.600929 168.388367,109.321091 
	C168.853592,109.249168 169.318817,109.177246 169.784058,109.105324 
	C169.981354,107.441093 170.178650,105.776871 170.401611,103.896248 
	C171.614929,105.719582 172.672668,107.309120 174.460495,109.995781 
	C175.169724,102.668167 170.809586,101.202164 166.490372,98.616989 
	C166.741547,100.726036 166.905334,102.101311 166.317459,103.307350 
	C159.867981,101.838081 158.920929,102.604050 158.473877,108.673714 
	C157.898209,106.887253 157.322540,105.100784 156.746872,103.314323 
	C156.339798,103.412910 155.932709,103.511490 155.525620,103.610069 
	C155.310211,105.207764 155.094788,106.805458 154.794983,109.029152 
	C154.111526,106.911026 153.640778,105.452072 153.061646,103.657211 
	C151.454620,104.449524 150.247116,105.044853 148.597336,105.102493 
	C145.359024,104.449860 142.701752,104.624260 142.489426,109.328651 
	C142.331757,109.202385 142.174103,109.076118 142.058182,108.110748 
	C141.255112,106.089355 143.516983,101.475128 137.524918,103.125626 
	C136.974335,103.728935 135.955322,104.342377 135.968109,104.933487 
	C135.997116,106.273636 136.534302,107.602783 136.138351,108.906708 
	C133.191208,107.431793 130.264282,105.578529 126.341751,108.255501 
	C121.850861,106.672371 115.138725,108.213615 113.580345,110.078857 
	C109.952156,110.078857 107.484734,110.078857 104.283043,110.068146 
	C103.333038,110.521622 101.516441,111.173203 101.567780,111.397751 
	C102.053368,113.521889 102.856934,115.573334 103.984451,118.855362 
	C104.952499,115.562172 105.459511,113.837379 106.047241,112.848076 
	C106.699608,114.190300 107.351967,115.532524 108.506424,116.873711 
	C108.605965,116.587402 108.705505,116.301102 108.901863,115.422050 
	C108.630455,114.482986 108.359055,113.543915 108.669464,112.155952 
	C109.116516,112.078270 109.563568,112.000595 110.028481,112.725174 
	C110.369743,113.934410 110.710999,115.143639 111.013710,116.216270 
	C116.592506,115.573265 121.696930,114.984932 127.341988,114.334297 
	C125.398216,112.846581 124.254349,111.971085 123.110474,111.095604 
	C124.156181,110.337410 125.199799,109.576302 126.249069,108.823090 
	C126.511040,108.635025 126.791260,108.472366 127.514275,108.985107 
	C128.045151,114.004089 130.588058,115.394295 135.606567,113.051567 
	C136.303070,112.166763 136.999588,111.281960 138.325623,110.915985 
	C139.497101,111.564293 140.668594,112.212601 142.057007,112.980965 
	C142.438675,111.723801 142.711258,110.825897 143.545197,110.325752 
	C143.720474,110.472961 143.895737,110.620178 144.417114,111.496269 
M87.665382,119.218300 
	C87.665382,119.218300 88.002647,118.981415 88.593544,119.447205 
	C90.193558,119.708351 91.793571,119.969498 94.494698,120.410370 
	C92.923622,118.944038 92.366882,118.424416 92.250580,118.315872 
	C92.866211,116.800262 93.342239,115.628349 93.818275,114.456429 
	C92.534996,113.993187 91.203987,113.047844 89.978577,113.169159 
	C87.581268,113.406487 85.242897,114.239120 82.891830,114.822418 
	C83.556168,116.462624 84.272964,118.232346 85.199783,120.615402 
	C85.893326,120.441475 86.586861,120.267548 87.421341,119.607002 
	C87.368828,119.446503 87.316322,119.285995 87.665382,119.218300 
M103.368805,84.738365 
	C100.477211,85.510155 97.580605,86.263748 94.694977,87.057228 
	C86.830467,89.219818 82.546234,92.424835 80.940773,97.239601 
	C107.221024,84.063103 136.284027,82.951782 164.641495,78.077408 
	C159.502975,77.182693 154.339111,76.592323 149.356873,77.293106 
	C134.253876,79.417435 119.221184,82.041695 103.368805,84.738365 
M180.050705,107.988586 
	C185.319061,105.999550 178.644592,103.130241 180.531952,100.466064 
	C178.519135,101.085228 176.180206,102.067177 176.035080,103.306114 
	C175.821930,105.125748 174.763672,108.840950 180.050705,107.988586 
M73.793892,116.405334 
	C75.829346,117.772102 73.388535,123.402840 78.665726,121.738014 
	C77.907059,118.634956 77.190552,115.704330 76.474037,112.773697 
	C76.080254,112.793854 75.686470,112.814011 75.292679,112.834167 
	C74.771004,113.790627 74.249336,114.747078 73.793892,116.405334 
M82.440277,116.780853 
	C85.235153,112.586266 81.159897,113.032127 79.012726,112.130981 
	C79.661026,115.204842 80.309326,118.278702 80.957634,121.352554 
	C81.459885,121.294189 81.962143,121.235825 82.464401,121.177452 
	C82.464401,120.012299 82.464401,118.847145 82.440277,116.780853 
z"/>
<path fill="#008EFF" opacity="1.000000" stroke="none" 
	d="
M66.097824,133.487518 
	C66.420555,133.250610 66.764763,133.406433 66.927094,133.672989 
	C74.885910,146.741745 81.920441,149.701355 98.198212,147.240860 
	C112.603569,145.063400 127.149574,143.666931 141.434891,140.900223 
	C150.167953,139.208862 158.605103,135.796692 167.010574,132.709259 
	C170.033264,131.598984 172.574402,129.177628 175.664368,127.580864 
	C175.822296,131.726440 177.933090,132.659668 181.315872,131.812027 
	C183.207016,131.338165 185.068695,130.746704 186.943634,130.208221 
	C187.297668,135.035919 183.650330,137.004517 180.227631,138.215240 
	C168.412430,142.394669 156.462799,146.205170 144.497681,149.942673 
	C141.096878,151.004974 137.469162,151.340759 133.188690,152.189026 
	C130.902115,152.914291 129.411713,153.728882 127.835762,153.959900 
	C120.899353,154.976730 113.945663,155.887314 106.984016,156.717117 
	C100.050804,157.543533 93.105835,158.285736 86.152168,158.910645 
	C85.126358,159.002838 84.024086,158.244186 82.957191,157.879196 
	C78.627075,156.185577 72.205765,155.672638 70.434044,152.534592 
	C67.424820,147.204681 67.345238,140.220734 66.097824,133.487518 
z"/>
<path fill="#FCD818" opacity="1.000000" stroke="none" 
	d="
M100.386223,82.131737 
	C97.293900,83.203102 94.262413,84.522163 91.097878,85.299568 
	C81.471519,87.664391 75.701134,93.810326 72.809570,103.073265 
	C71.730804,106.529022 70.359520,109.893478 68.980789,113.646255 
	C61.100315,114.008598 58.687786,109.790077 60.960957,100.553139 
	C62.813240,93.026436 66.296654,86.896591 74.180244,84.389076 
	C80.045769,82.523445 85.883751,80.459084 91.882835,79.182785 
	C94.164452,78.697372 96.861847,80.166306 99.763153,80.781738 
	C100.156563,80.818954 100.118103,80.861588 100.108246,81.191071 
	C100.194328,81.724274 100.290276,81.928001 100.386223,82.131737 
z"/>
<path fill="#00A9FF" opacity="1.000000" stroke="none" 
	d="
M82.551559,157.925262 
	C84.024086,158.244186 85.126358,159.002838 86.152168,158.910645 
	C93.105835,158.285736 100.050804,157.543533 106.984016,156.717117 
	C113.945663,155.887314 120.899353,154.976730 127.835762,153.959900 
	C129.411713,153.728882 130.902115,152.914291 132.772263,152.203827 
	C135.257462,152.548218 137.402313,153.057129 139.509354,153.557068 
	C136.396301,159.474884 84.703926,164.505722 75.129730,158.802994 
	C78.244766,158.433762 80.195343,158.202545 82.551559,157.925262 
z"/>
<path fill="#1BCE05" opacity="1.000000" stroke="none" 
	d="
M187.347595,130.142853 
	C185.068695,130.746704 183.207016,131.338165 181.315872,131.812027 
	C177.933090,132.659668 175.822296,131.726440 175.944565,127.403015 
	C177.091934,125.103622 178.288193,123.208351 180.017639,121.126488 
	C180.825897,120.748650 181.100967,120.557404 181.376038,120.366150 
	C181.376038,120.366150 181.250397,120.459450 181.684723,120.480179 
	C184.450623,119.655792 186.782227,118.810677 189.113815,117.965561 
	C190.546387,118.066093 191.978958,118.166626 193.329330,118.261391 
	C195.026627,126.591713 193.614105,129.477890 187.347595,130.142853 
z"/>
<path fill="#FEDB13" opacity="1.000000" stroke="none" 
	d="
M158.987457,151.148956 
	C160.195343,152.484558 161.028687,153.824875 161.747040,154.980225 
	C163.075119,155.042679 164.320587,155.101242 165.566040,155.159821 
	C164.831711,156.175995 164.297775,157.773209 163.328308,158.107559 
	C159.165359,159.543274 154.874359,160.607651 148.981766,162.273209 
	C153.081528,159.397247 146.762070,154.136017 153.363861,153.128937 
	C154.889725,154.875061 156.333221,156.526932 158.612946,159.135727 
	C158.612946,155.554626 158.612946,153.354156 158.987457,151.148956 
z"/>
<path fill="#0091FB" opacity="1.000000" stroke="none" 
	d="
M189.073822,117.514771 
	C186.782227,118.810677 184.450623,119.655792 181.740479,120.535057 
	C183.113998,114.558807 184.866074,108.548416 186.879883,102.249619 
	C187.772385,106.995476 188.403122,112.029732 189.073822,117.514771 
z"/>
<path fill="#FEDB13" opacity="1.000000" stroke="none" 
	d="
M192.054016,145.370331 
	C189.391464,146.561630 186.998123,147.469299 184.268250,148.504608 
	C183.308273,146.605804 182.116379,144.248260 180.407104,140.867355 
	C183.028198,141.330292 184.768616,141.637695 186.734131,141.984848 
	C186.926941,141.014008 187.216995,139.553619 187.507034,138.093231 
	C187.974503,137.902039 188.441971,137.710846 188.909424,137.519653 
	C190.047363,140.042023 191.185287,142.564377 192.054016,145.370331 
z"/>
<path fill="#FEDB13" opacity="1.000000" stroke="none" 
	d="
M172.074875,148.103271 
	C171.827103,142.832108 177.382111,145.103882 179.513824,141.570297 
	C179.794235,142.968369 179.989487,143.468140 179.977829,143.963043 
	C179.917358,146.531006 180.812531,150.401871 179.510895,151.408371 
	C176.246750,153.932373 174.965973,149.412598 172.379852,148.044373 
	C172.035217,148.052795 172.074875,148.103271 172.074875,148.103271 
z"/>
<path fill="#FEDB13" opacity="1.000000" stroke="none" 
	d="
M114.917076,165.993729 
	C114.917076,167.451233 114.917076,168.908737 114.917076,170.329742 
	C111.787727,171.960342 108.719658,172.770264 107.522957,168.683655 
	C107.085335,167.189209 108.146416,164.349609 109.438438,163.475311 
	C111.209831,162.276642 113.927666,162.206802 114.648636,165.846344 
	C114.967812,166.018433 114.917076,165.993729 114.917076,165.993729 
z"/>
<path fill="#FEDB13" opacity="1.000000" stroke="none" 
	d="
M95.068726,165.021454 
	C97.267471,165.884094 99.288681,166.496780 100.702515,167.779144 
	C101.186798,168.218384 100.491776,170.604279 99.704521,171.603760 
	C99.018585,172.474594 97.325745,173.189621 96.297592,172.965439 
	C95.362617,172.761612 94.202278,171.265869 94.072617,170.223755 
	C93.863632,168.543915 94.420029,166.768845 95.068726,165.021454 
z"/>
<path fill="#FEDB13" opacity="1.000000" stroke="none" 
	d="
M172.012787,148.029846 
	C173.132111,155.623520 173.132111,155.623520 167.647446,155.783691 
	C166.614304,153.650131 165.582764,151.519852 164.185211,148.633713 
	C166.642868,148.360764 169.013306,148.097488 171.729309,147.968750 
	C172.074875,148.103271 172.035217,148.052795 172.012787,148.029846 
z"/>
<path fill="#FEDB13" opacity="1.000000" stroke="none" 
	d="
M137.666351,164.489960 
	C137.620453,165.500290 137.457199,166.727158 137.095184,166.788895 
	C134.993423,167.147430 132.844925,167.231827 130.507477,167.425934 
	C130.507477,165.450424 130.507477,163.057190 130.507477,160.388092 
	C132.390839,158.885971 134.180237,158.328979 135.359589,161.680115 
	C135.696381,162.637054 136.738480,163.345749 137.666351,164.489960 
z"/>
<path fill="#FEDB13" opacity="1.000000" stroke="none" 
	d="
M120.103531,165.148544 
	C120.512756,159.111267 124.673531,161.592514 128.422791,160.940186 
	C126.940811,164.705017 125.842712,167.494659 124.745834,170.281189 
	C122.993729,167.924652 121.916885,166.476318 120.455437,165.064728 
	C120.070839,165.101440 120.103531,165.148544 120.103531,165.148544 
z"/>
<path fill="#FEDB13" opacity="1.000000" stroke="none" 
	d="
M144.140076,161.151215 
	C146.687363,162.878708 146.202347,164.164444 143.784515,164.917892 
	C142.408432,165.346680 140.939514,165.477570 139.626785,165.721375 
	C138.995148,163.369156 138.367279,161.030991 137.633652,158.298981 
	C139.408691,156.983597 140.870712,156.800415 141.033524,160.306702 
	C141.150009,162.815887 142.209000,163.027832 144.140076,161.151215 
z"/>
<path fill="#FEDB13" opacity="1.000000" stroke="none" 
	d="
M114.980247,166.043762 
	C115.656273,164.745743 116.319862,163.422394 116.983452,162.099060 
	C117.797722,162.989059 118.611992,163.879044 119.764893,164.958801 
	C120.103531,165.148544 120.070839,165.101440 120.054764,165.080902 
	C119.356079,167.109268 118.673477,169.158142 117.990875,171.207031 
	C117.592117,171.075912 117.193367,170.944794 116.794609,170.813675 
	C116.391197,169.036514 115.987785,167.259369 115.250725,165.737976 
	C114.917076,165.993729 114.967812,166.018433 114.980247,166.043762 
z"/>
<path fill="#FEDB13" opacity="1.000000" stroke="none" 
	d="
M102.403297,172.576767 
	C102.291245,169.818069 102.444962,167.352859 102.631744,164.357300 
	C103.236198,164.301361 104.388733,164.194687 105.611122,164.081543 
	C105.611122,166.845032 105.776398,169.294281 105.477592,171.685577 
	C105.414619,172.189575 103.649750,172.480911 102.403297,172.576767 
z"/>
<path fill="#00C1FF" opacity="1.000000" stroke="none" 
	d="
M103.764954,84.604782 
	C119.221184,82.041695 134.253876,79.417435 149.356873,77.293106 
	C154.339111,76.592323 159.502975,77.182693 164.641495,78.077408 
	C136.284027,82.951782 107.221024,84.063103 80.940773,97.239601 
	C82.546234,92.424835 86.830467,89.219818 94.694977,87.057228 
	C97.580605,86.263748 100.477211,85.510155 103.764954,84.604782 
z"/>
<path fill="#E4F6FF" opacity="1.000000" stroke="none" 
	d="
M127.063095,108.298035 
	C126.791260,108.472366 126.511040,108.635025 126.249069,108.823090 
	C125.199799,109.576302 124.156181,110.337410 123.110474,111.095596 
	C124.254349,111.971085 125.398216,112.846581 127.341988,114.334297 
	C121.696930,114.984932 116.592506,115.573265 111.013710,116.216270 
	C110.710999,115.143639 110.369743,113.934410 109.821732,112.131485 
	C109.105865,111.893486 108.596756,112.249168 108.087646,112.604851 
	C108.359055,113.543915 108.630455,114.482986 108.696381,115.838394 
	C108.295898,116.435661 108.133713,116.642326 108.004333,116.874748 
	C107.351967,115.532524 106.699608,114.190300 105.910553,112.216476 
	C105.521675,111.082870 105.269493,110.580864 105.017319,110.078857 
	C107.484734,110.078857 109.952156,110.078857 113.580345,110.078857 
	C115.138725,108.213615 121.850861,106.672371 126.706161,108.308060 
	C127.070580,108.360626 127.063095,108.298035 127.063095,108.298035 
M116.885094,113.389793 
	C117.909866,113.581306 118.934647,113.772820 120.650848,114.093552 
	C119.816765,112.355179 119.319672,111.319145 118.552635,109.720520 
	C117.735489,111.174454 117.272003,111.999130 116.885094,113.389793 
z"/>
<path fill="#DCF4FF" opacity="1.000000" stroke="none" 
	d="
M127.288681,108.641571 
	C127.063095,108.298035 127.070580,108.360626 127.078384,108.391632 
	C130.264282,105.578529 133.191208,107.431793 136.870956,108.933800 
	C142.746338,107.514748 138.297974,105.277756 138.063065,103.388191 
	C143.516983,101.475128 141.255112,106.089355 142.112762,108.765923 
	C142.333588,109.753258 142.602402,109.915779 143.019409,109.908783 
	C143.065033,109.908920 143.074310,109.999710 143.050629,109.983124 
	C143.026947,109.966537 142.983856,109.927994 142.983856,109.927994 
	C142.711258,110.825897 142.438675,111.723801 142.057007,112.980965 
	C140.668594,112.212601 139.497101,111.564293 137.759521,110.532707 
	C134.334671,109.692825 133.927719,110.903793 135.117874,113.201042 
	C130.588058,115.394295 128.045151,114.004089 127.288681,108.641571 
M131.887939,110.422073 
	C131.674942,110.045822 131.461945,109.669563 131.248947,109.293312 
	C131.094498,109.555214 130.746780,109.944580 130.820328,110.056107 
	C131.085037,110.457451 131.491867,110.765053 131.887939,110.422073 
z"/>
<path fill="#DCF4FF" opacity="1.000000" stroke="none" 
	d="
M167.054901,103.352097 
	C166.722687,105.004318 166.060806,106.669807 166.126663,108.306007 
	C166.265137,111.747055 164.869492,113.238739 161.471695,112.907585 
	C160.844971,111.636909 160.237854,110.405960 159.342392,109.138344 
	C159.054047,109.101677 159.085297,109.156670 159.085297,109.156670 
	C158.920929,102.604050 159.867981,101.838081 166.676666,103.362228 
	C167.035873,103.417114 167.054886,103.352097 167.054901,103.352097 
z"/>
<path fill="#E4F6FF" opacity="1.000000" stroke="none" 
	d="
M167.130692,103.756355 
	C167.054886,103.352097 167.035873,103.417114 167.052490,103.446854 
	C166.905334,102.101311 166.741547,100.726036 166.490372,98.616989 
	C170.809586,101.202164 175.169724,102.668167 174.460495,109.995781 
	C172.672668,107.309120 171.614929,105.719582 170.401611,103.896248 
	C170.178650,105.776871 169.981354,107.441093 169.784058,109.105324 
	C169.318817,109.177246 168.853592,109.249168 168.388367,109.321091 
	C167.994415,107.600929 167.600449,105.880775 167.130692,103.756355 
z"/>
<path fill="#DCF4FF" opacity="1.000000" stroke="none" 
	d="
M149.039627,105.640182 
	C150.247116,105.044853 151.454620,104.449524 153.061646,103.657211 
	C153.640778,105.452072 154.111526,106.911026 154.794983,109.029152 
	C155.094788,106.805458 155.310211,105.207764 155.525620,103.610069 
	C155.932709,103.511490 156.339798,103.412910 156.746872,103.314323 
	C157.322540,105.100784 157.898209,106.887253 158.779587,108.915192 
	C159.085297,109.156670 159.054047,109.101677 159.033966,109.080170 
	C155.933792,112.109535 153.155502,111.862381 151.669693,108.460045 
	C151.229904,107.452988 150.551941,106.549950 149.510132,105.646179 
	C149.037155,105.693108 149.039627,105.640190 149.039627,105.640182 
z"/>
<path fill="#F3FBFF" opacity="1.000000" stroke="none" 
	d="
M84.989761,120.002068 
	C84.272964,118.232346 83.556168,116.462624 82.891830,114.822418 
	C85.242897,114.239120 87.581268,113.406487 89.978577,113.169159 
	C91.203987,113.047844 92.534996,113.993187 93.818268,114.456429 
	C93.342239,115.628349 92.866211,116.800262 92.250580,118.315872 
	C92.366882,118.424416 92.923622,118.944038 94.494698,120.410370 
	C91.793571,119.969498 90.193558,119.708351 88.272812,118.932693 
	C87.519020,118.162270 87.085968,117.906357 86.652924,117.650444 
	C86.856552,118.142128 87.060181,118.633812 87.263817,119.125496 
	C87.316322,119.285995 87.368828,119.446503 86.968185,119.831360 
	C86.006615,120.037834 85.498184,120.019951 84.989761,120.002068 
z"/>
<path fill="#F3FBFF" opacity="1.000000" stroke="none" 
	d="
M148.818481,105.371338 
	C149.039627,105.640190 149.037155,105.693108 149.051544,105.696831 
	C151.062897,111.310760 150.092941,112.520027 144.153107,110.921692 
	C143.679291,110.086441 143.407684,109.970634 143.074310,109.999710 
	C143.074310,109.999710 143.065033,109.908920 143.070465,109.689819 
	C143.075912,109.470726 143.013977,109.025230 143.013977,109.025230 
	C142.701752,104.624260 145.359024,104.449860 148.818481,105.371338 
z"/>
<path fill="#F3FBFF" opacity="1.000000" stroke="none" 
	d="
M179.634583,108.040489 
	C174.763672,108.840950 175.821930,105.125748 176.035080,103.306114 
	C176.180206,102.067177 178.519135,101.085228 180.531952,100.466064 
	C178.644592,103.130241 185.319061,105.999550 179.634583,108.040489 
z"/>
<path fill="#E4F6FF" opacity="1.000000" stroke="none" 
	d="
M73.760773,116.054428 
	C74.249336,114.747078 74.771004,113.790627 75.292679,112.834167 
	C75.686470,112.814011 76.080254,112.793854 76.474037,112.773697 
	C77.190552,115.704330 77.907059,118.634956 78.665726,121.738014 
	C73.388535,123.402840 75.829346,117.772102 73.760773,116.054428 
z"/>
<path fill="#F3FBFF" opacity="1.000000" stroke="none" 
	d="
M82.452339,117.231422 
	C82.464401,118.847145 82.464401,120.012299 82.464401,121.177452 
	C81.962143,121.235825 81.459885,121.294189 80.957634,121.352554 
	C80.309326,118.278702 79.661026,115.204842 79.012726,112.130981 
	C81.159897,113.032127 85.235153,112.586266 82.452339,117.231422 
z"/>
<path fill="#D5F1FF" opacity="1.000000" stroke="none" 
	d="
M104.650177,110.073502 
	C105.269493,110.580864 105.521675,111.082870 105.870193,111.848732 
	C105.459511,113.837379 104.952499,115.562172 103.984451,118.855362 
	C102.856934,115.573334 102.053368,113.521889 101.567780,111.397751 
	C101.516441,111.173203 103.333038,110.521622 104.650177,110.073502 
z"/>
<path fill="#C4ECFF" opacity="1.000000" stroke="none" 
	d="
M137.793991,103.256912 
	C138.297974,105.277756 142.746338,107.514748 137.234222,108.948654 
	C136.534302,107.602783 135.997116,106.273636 135.968109,104.933487 
	C135.955322,104.342377 136.974335,103.728935 137.793991,103.256912 
z"/>
<path fill="#C4ECFF" opacity="1.000000" stroke="none" 
	d="
M135.362213,113.126305 
	C133.927719,110.903793 134.334671,109.692825 137.444763,110.273300 
	C136.999588,111.281960 136.303070,112.166763 135.362213,113.126305 
z"/>
<path fill="#D5F1FF" opacity="1.000000" stroke="none" 
	d="
M87.464600,119.171898 
	C87.060181,118.633812 86.856552,118.142128 86.652924,117.650444 
	C87.085968,117.906357 87.519020,118.162270 87.977356,118.699799 
	C88.002647,118.981415 87.665382,119.218300 87.464600,119.171898 
z"/>
<path fill="#D5F1FF" opacity="1.000000" stroke="none" 
	d="
M85.094772,120.308731 
	C85.498184,120.019951 86.006615,120.037834 86.897720,120.074677 
	C86.586861,120.267548 85.893326,120.441475 85.094772,120.308731 
z"/>
<path fill="#D5F1FF" opacity="1.000000" stroke="none" 
	d="
M108.378555,112.380402 
	C108.596756,112.249168 109.105865,111.893486 109.812798,111.730362 
	C109.563568,112.000595 109.116516,112.078270 108.378555,112.380402 
z"/>
<path fill="#47704C" opacity="1.000000" stroke="none" 
	d="
M100.680702,82.105164 
	C100.290276,81.928001 100.194328,81.724274 100.080780,81.182587 
	C100.515564,80.926620 100.967941,81.008606 101.420326,81.090591 
	C101.271942,81.419922 101.123566,81.749252 100.680702,82.105164 
z"/>
<path fill="#0091FB" opacity="1.000000" stroke="none" 
	d="
M181.123184,120.373985 
	C181.100967,120.557404 180.825897,120.748650 180.288300,120.921158 
	C180.307297,120.728882 180.588821,120.555351 181.123184,120.373985 
z"/>
<path fill="#C4ECFF" opacity="1.000000" stroke="none" 
	d="
M142.751709,109.176941 
	C143.013977,109.025230 143.075912,109.470726 143.024841,109.689690 
	C142.602402,109.915779 142.333588,109.753258 142.091888,109.185471 
	C142.174103,109.076118 142.331757,109.202385 142.751709,109.176941 
z"/>
<path fill="#D5F1FF" opacity="1.000000" stroke="none" 
	d="
M108.255379,116.874229 
	C108.133713,116.642326 108.295898,116.435661 108.647972,116.134773 
	C108.705505,116.301102 108.605965,116.587402 108.255379,116.874229 
z"/>
<path fill="#C4ECFF" opacity="1.000000" stroke="none" 
	d="
M143.050629,109.983124 
	C143.407684,109.970634 143.679291,110.086441 143.980057,110.557251 
	C143.895737,110.620178 143.720474,110.472961 143.264526,110.126877 
	C142.983856,109.927994 143.026947,109.966537 143.050629,109.983124 
z"/>
<path fill="#D5F1FF" opacity="1.000000" stroke="none" 
	d="
M116.846802,113.106804 
	C117.272003,111.999130 117.735489,111.174454 118.552635,109.720520 
	C119.319672,111.319145 119.816765,112.355179 120.650848,114.093552 
	C118.934647,113.772820 117.909866,113.581306 116.846802,113.106804 
z"/>
<path fill="#02AAFF" opacity="1.000000" stroke="none" 
	d="
M131.866470,110.765076 
	C131.491867,110.765053 131.085037,110.457451 130.820328,110.056107 
	C130.746780,109.944580 131.094498,109.555214 131.248947,109.293312 
	C131.461945,109.669563 131.674942,110.045822 131.866470,110.765076 
z"/>
</svg>